<svg xmlns="http://www.w3.org/2000/svg" viewBox="0 0 24 24"><path d="M4.94 10.56a1 1 0 00-.38.79.79.79 0 00.25.63 1.06 1.06 0 00.74.24 1.9 1.9 0 001.06-.3 1.48 1.48 0 00.63-.67v-1H6a1.58 1.58 0 00-1.06.31zM16.94 14.69a1 1 0 00-.38.79.82.82 0 00.25.63 1.11 1.11 0 00.74.23 2 2 0 001.06-.29 1.5 1.5 0 00.63-.68v-1H18a1.54 1.54 0 00-1.06.32z" fill="none"/><path d="M4.94 10.56a1 1 0 00-.38.79.79.79 0 00.25.63 1.06 1.06 0 00.74.24 1.9 1.9 0 001.06-.3 1.48 1.48 0 00.63-.67v-1H6a1.58 1.58 0 00-1.06.31zM16.94 14.69a1 1 0 00-.38.79.82.82 0 00.25.63 1.11 1.11 0 00.74.23 2 2 0 001.06-.29 1.5 1.5 0 00.63-.68v-1H18a1.54 1.54 0 00-1.06.32z" fill="none"/><path d="M20.76 15.87v-3.06a2.17 2.17 0 00-.76-1.76 3 3 0 00-1.94-.61 3.06 3.06 0 00-2 .63 1.7 1.7 0 00-.73 1.45h1.49a.83.83 0 01.31-.66 1.29 1.29 0 01.84-.25 1.26 1.26 0 01.91.3 1.09 1.09 0 01.32.85v.6H18a3.81 3.81 0 00-2.22.56 1.78 1.78 0 00-.78 1.59 2 2 0 00.58 1.49 2.31 2.31 0 001.65.55 2.12 2.12 0 001.16-.33 2.79 2.79 0 00.83-.81 4.33 4.33 0 00.08.5c0 .16.08.33.13.51H21a4.29 4.29 0 01-.18-.77 5.46 5.46 0 01-.06-.78zm-1.52-.5a1.5 1.5 0 01-.63.68 2 2 0 01-1.06.29 1.11 1.11 0 01-.74-.23.82.82 0 01-.25-.63 1 1 0 01.38-.79 1.54 1.54 0 011.06-.34h1.24zM8.76 11.75V8.69A2.16 2.16 0 008 6.93a2.93 2.93 0 00-1.94-.61 3.06 3.06 0 00-2 .63 1.69 1.69 0 00-.73 1.44h1.5a.83.83 0 01.31-.65A1.3 1.3 0 016 7.52a1.23 1.23 0 01.91.31 1.07 1.07 0 01.32.84v.61H6a3.74 3.74 0 00-2.22.56A1.78 1.78 0 003 11.39a2 2 0 00.58 1.52 2.27 2.27 0 001.65.56 2.12 2.12 0 001.16-.33 2.79 2.79 0 00.83-.81 4.17 4.17 0 00.08.49 4.77 4.77 0 00.13.51H9a4 4 0 01-.18-.76 5.55 5.55 0 01-.06-.82zm-1.52-.5a1.48 1.48 0 01-.63.67 1.9 1.9 0 01-1.06.3 1.06 1.06 0 01-.74-.22.79.79 0 01-.25-.63 1 1 0 01.38-.79A1.58 1.58 0 016 10.23h1.24zM7 19h2v2H7zM7 15h2v2H7zM3 15h2v2H3zM15 7h2v2h-2zM15 3h2v2h-2zM3 19h2v2H3zM19 19h2v2h-2zM19 7h2v2h-2zM15 19h2v2h-2zM19 3h2v2h-2zM11 11h2v2h-2zM11 19h2v2h-2zM11 15h2v2h-2zM11 7h2v2h-2zM11 3h2v2h-2zM7 3h2v2H7zM3 3h2v2H3z"/><path d="M0 0h24v24H0z" fill="none"/></svg>
