<svg xmlns="http://www.w3.org/2000/svg" viewBox="0 0 24 24"><path d="M17.34 7.14a.5.5 0 00-.13.33v.33a.48.48 0 00.13.33.41.41 0 00.31.14.37.37 0 00.42-.37v-.41a.49.49 0 00-.07-.34.45.45 0 00-.62 0zM10.84 8a.54.54 0 00.51-.3 2.05 2.05 0 00.17-.92V5.3a2 2 0 00-.17-.94.6.6 0 00-1 0 2.13 2.13 0 00-.17.88V6.7a2.14 2.14 0 00.17 1 .55.55 0 00.49.3zM14.88 5c.28 0 .42-.18.42-.53v-.26a.53.53 0 00-.11-.34.4.4 0 00-.32-.14.42.42 0 00-.31.13.52.52 0 00-.12.36v.29a.49.49 0 00.12.34.39.39 0 00.32.15z" fill="none"/><path d="M9 18h2v3h2v-3h2l-3-3-3 3zM4 11h16v2H4zM6.38 8.92h1.36V3.08h-.12l-2.57.89V5l1.33-.39v4.31zM10.84 9a1.85 1.85 0 001.5-.64 2.82 2.82 0 00.53-1.82V5.47a2.76 2.76 0 00-.54-1.82 1.83 1.83 0 00-1.5-.65 1.83 1.83 0 00-1.5.65 2.78 2.78 0 00-.53 1.82v1.07a2.79 2.79 0 00.53 1.81 1.86 1.86 0 001.51.65zm-.69-3.79a2.13 2.13 0 01.17-.88.6.6 0 011 0 2 2 0 01.17.94v1.47a2.05 2.05 0 01-.17.92.59.59 0 01-1 0 2.14 2.14 0 01-.17-1zM14.88 5.71a1.31 1.31 0 00.94-.33 1.11 1.11 0 00.35-.86v-.29a1.19 1.19 0 00-.35-.9 1.32 1.32 0 00-1-.33 1.34 1.34 0 00-.95.33 1.17 1.17 0 00-.35.88v.28a1.16 1.16 0 00.36.9 1.4 1.4 0 001 .32zm-.44-1.49a.52.52 0 01.12-.36.42.42 0 01.31-.13.4.4 0 01.32.14.53.53 0 01.11.34v.24c0 .35-.14.53-.42.53a.39.39 0 01-.32-.13.49.49 0 01-.12-.34zM15.13 8.48l2.85-4.56-.62-.32-2.85 4.57.62.31zM16.7 6.62a1.1 1.1 0 00-.35.87v.29a1.12 1.12 0 00.35.89 1.36 1.36 0 00.95.33 1.32 1.32 0 001-.33A1.15 1.15 0 0019 7.8v-.28a1.17 1.17 0 00-.36-.91 1.54 1.54 0 00-1.89 0zm1.38.87v.41a.37.37 0 01-.42.37.41.41 0 01-.31-.14.48.48 0 01-.13-.33v-.33a.5.5 0 01.13-.33.45.45 0 01.62 0 .49.49 0 01.11.35z"/><path d="M0 0h24v24H0z" fill="none"/></svg>
