<svg xmlns="http://www.w3.org/2000/svg" viewBox="0 0 24 24"><path d="M13 13.65h5a5.63 5.63 0 00-.09-1H13zM13 10.65h4.19a6.29 6.29 0 00-.74-1H13zM13 19.58a5.87 5.87 0 002.34-.93H13zM13 6.18v1.48h1.48l-1-1-.48-.48zM13 15.65v1h4.2a5.68 5.68 0 00.46-1zM11 6.18L7.76 9.43A6 6 0 0011 19.58z" fill="none"/><path d="M16.45 9.65H13v1h4.19a6.29 6.29 0 00-.74-1zM13.48 6.66L13 6.18v1.48h1.48l-1-1zM6 13.66a6 6 0 005 5.92V6.18L7.76 9.42A6 6 0 006 13.66zM13 19.58a5.87 5.87 0 002.34-.93H13zM13 16.65h4.2a5.68 5.68 0 00.46-1H13zM13 12.65v1h5a5.63 5.63 0 00-.09-1z" fill="none"/><path d="M19.93 12.66a7.84 7.84 0 00-.51-2 8.48 8.48 0 00-.5-1A7.8 7.8 0 0017.66 8l-.35-.36-.31-.26-.73-.73-2-2-.85-.84L12 2.34 6.34 8A8 8 0 0011 21.58h.21a7 7 0 00.79 0 7.14 7.14 0 00.8 0h.2a7.94 7.94 0 006.93-8.92zM11 19.58A6 6 0 017.76 9.42L11 6.18zm2-12.93v-.47l.48.47 1 1H13zm0 3h3.45a6.29 6.29 0 01.74 1H13zm0 9.93v-.93h2.34a5.87 5.87 0 01-2.34.93zm4.2-2.93H13v-1h4.66a5.68 5.68 0 01-.46 1zm-4.2-3v-1h4.91a5.63 5.63 0 01.09 1z"/><path d="M0 0h24v24H0z" fill="none"/></svg>
