<svg xmlns="http://www.w3.org/2000/svg" viewBox="0 0 24 24"><path d="M10.79 12.77a1.16 1.16 0 00-.44.9.92.92 0 00.3.72 1.18 1.18 0 00.84.27 2.27 2.27 0 001.21-.34 1.61 1.61 0 00.71-.77v-1.17H12a1.76 1.76 0 00-1.21.39z" fill="none"/><path d="M5 19h14V5H5zm8-9.36a1.45 1.45 0 00-1-.35 1.5 1.5 0 00-1 .29.93.93 0 00-.35.75H9a1.93 1.93 0 01.83-1.65 3.54 3.54 0 012.3-.72 3.34 3.34 0 012.22.7 2.44 2.44 0 01.84 2v3.5a5.57 5.57 0 00.07.93 4.51 4.51 0 00.21.88h-1.83c-.06-.2-.12-.39-.16-.58a3.72 3.72 0 01-.08-.57 3.05 3.05 0 01-1 .93 2.39 2.39 0 01-1.32.37 2.63 2.63 0 01-1.89-.63 2.29 2.29 0 01-.66-1.74 2.07 2.07 0 01.9-1.78A4.39 4.39 0 0112 11.3h1.38v-.69a1.3 1.3 0 00-.38-.97z" fill="none"/><path d="M3 3v18h18V3zm16 16H5V5h14z"/><path d="M12 11.3a4.39 4.39 0 00-2.54.63 2.07 2.07 0 00-.9 1.78 2.29 2.29 0 00.66 1.74 2.63 2.63 0 001.89.63 2.39 2.39 0 001.32-.37 3.05 3.05 0 001-.93 3.72 3.72 0 00.08.57c0 .19.1.38.16.58h1.79a4.51 4.51 0 01-.21-.88 5.57 5.57 0 01-.07-.93v-3.5a2.44 2.44 0 00-.84-2 3.34 3.34 0 00-2.22-.7 3.54 3.54 0 00-2.3.72A1.93 1.93 0 009 10.29h1.71a.93.93 0 01.29-.71 1.5 1.5 0 011-.29 1.45 1.45 0 011 .35 1.3 1.3 0 01.37 1v.69zm1.4 1.08v1.17a1.61 1.61 0 01-.71.77 2.27 2.27 0 01-1.21.34 1.18 1.18 0 01-.84-.27.92.92 0 01-.3-.72 1.16 1.16 0 01.44-.9 1.76 1.76 0 011.22-.39z"/><path d="M0 0h24v24H0z" fill="none"/></svg>
