<svg id="Layer_1" data-name="Layer 1" xmlns="http://www.w3.org/2000/svg" viewBox="0 0 96 96"><defs><style>.cls-1{fill:#ab4191;}.cls-2{fill:#f05951;}.cls-2,.cls-3,.cls-4{fill-rule:evenodd;}.cls-3{fill:#fa8d3d;}.cls-4{fill:#0f6860;}</style></defs><title>ChartsGallery_Icons</title><rect class="cls-1" width="96" height="95.7"/><polygon class="cls-2" points="0 11.1 3.78 11.99 11.33 25.27 20.15 13.04 30.53 15.31 43.12 26.54 50.13 28.07 65.78 24.5 72.08 16.84 82.15 17.61 88.45 11.99 91.91 9.57 96 6.13 96 95.7 0 95.7 0 11.1"/><path class="cls-3" d="M0,54V95.7H96V18.37l-3.79,6.51-3.79,18-3.16,6.51-5.68,3.06-2.84,3.45s-3.42,6-3.48,6.12-7.58,4.6-7.58,4.6L60,67l-2.21.77-7.9-4.6-3.78,1.15-7.58-3.44L34.42,62.4l-3.79-1.15-4.1,3.44-3.48-.76L15.16,53.21,7.26,54,3.47,49Z"/><polygon class="cls-4" points="0 78.75 4.72 77.11 7.87 78.2 15.42 76.56 19.52 80.39 26.44 83.67 36.2 83.67 45.33 85.31 50.05 78.75 58.23 84.22 68.3 85.86 87.82 90.23 96 83.12 96 95.7 0 95.7 0 78.75"/></svg>