<svg xmlns="http://www.w3.org/2000/svg" viewBox="0 0 96 96"><defs><style>.cls-1{fill:#ab4191;}.cls-1,.cls-2,.cls-3,.cls-4{fill-rule:evenodd;}.cls-2{fill:#f05951;}.cls-3{fill:#fa8d3d;}.cls-4{fill:#0f6860;}</style></defs><title>ChartsGallery_Icons</title><g id="ChartNames"><path class="cls-1" d="M0,0V50.28H13.81V0ZM16.44,0V48.44H30.25V0ZM32.88,0V53.51h13.8V0ZM49.32,0V47.78h13.8V0ZM65.75,0V52.68H79.56V0ZM82.19,0V54H96V0Z"/><path class="cls-2" d="M16.44,20.35V66.43H30.25V20.35ZM65.75,30V68.74H79.56V30ZM32.88,25.73v48h13.8v-48ZM49.32,39.17V66.05h13.8V39.17ZM82.19,22.66V70.27H96V22.66ZM0,35.33v33H13.81v-33Z"/><path class="cls-3" d="M16.44,48.38V87.94H30.25V48.38Zm49.31,8.07V90.24H79.56V56.45ZM32.88,53V94.46h13.8V53ZM49.32,64.51V87.94h13.8V64.51ZM82.19,50.3V91.39H96V50.3ZM0,61.44V89.86H13.81V61.44Z"/><path class="cls-4" d="M32.88,82.11V96h13.8V82.11Zm16.44-4.45V96h13.8V77.66Zm32.87,3.41V96H96V81.07ZM16.44,73.73V96H30.25V73.73ZM65.75,84.47V96H79.56V84.47ZM0,85.08V96H13.81V85.08Z"/></g></svg>