<svg xmlns="http://www.w3.org/2000/svg" viewBox="0 0 96 96"><defs><style>.cls-1{fill:#ab4191;}.cls-1,.cls-2,.cls-3,.cls-4{fill-rule:evenodd;}.cls-2{fill:#f05951;}.cls-3{fill:#fa8d3d;}.cls-4{fill:#0f6860;}</style></defs><title>ChartsGallery_Icons</title><g id="ChartNames"><path class="cls-1" d="M0,17.24,3.73,4.7l7.56,19.2,4.09-.78,7.87,11.75,3.46,1.57,3.78-3.13,4.41,2,3.46-2.75,4.72,2.35L45.91,38s4-.26,4.09-.39,7.45,4.57,7.56,4.7a35.11,35.11,0,0,0,3.77-1.57h4.41L72,43.49,82.11,28.21,88.4,10.32,91.86,0,96,12.15V96H0Z"/><path class="cls-2" d="M0,53.29V96H96V16.85l-3.79,6.66L88.38,41.93l-3.16,6.66-5.68,3.13-2.85,3.53s-3.42,6.14-3.47,6.27-7.58,4.7-7.58,4.7L60,66.61l-2.21.79-7.9-4.71-3.79,1.18-7.58-3.53-4.1,1.57-3.79-1.18-4.11,3.53L23,63.48l-7.89-11-7.9.78L3.43,48.2Z"/><polygon class="cls-3" points="0.14 78.65 4.85 76.97 7.99 78.09 15.54 76.41 19.62 80.33 26.53 83.69 36.27 83.69 45.38 85.37 50.09 78.65 58.26 84.25 68.31 85.93 87.79 90.4 95.96 83.12 95.96 96 0.14 96 0.14 78.65"/><polygon class="cls-4" points="0.14 96 95.96 96 95.96 74.45 92.19 79.15 80.56 83.07 69.25 91.3 58.57 91.69 54.17 92.08 49.78 90.12 45.38 91.3 38.47 91.3 28.73 91.69 23.7 91.3 18.99 92.86 13.96 92.08 0.14 93.65 0.14 96"/></g></svg>