<svg xmlns="http://www.w3.org/2000/svg" viewBox="0 0 96 96"><defs><style>.cls-1{fill:#ab4191;}.cls-1,.cls-2,.cls-3,.cls-4{fill-rule:evenodd;}.cls-2{fill:#f05951;}.cls-3{fill:#fa8d3d;}.cls-4{fill:#0f6860;}</style></defs><title>ChartsGallery_Icons</title><g id="ChartNames"><polygon class="cls-1" points="96 69.18 96 13.76 80.22 37.03 64.11 42.35 48.34 63.44 32.56 72.38 16.45 70.78 0 86.13 0 96 96 96 96 69.18"/><polygon class="cls-2" points="96 84.43 96 38.72 80.22 48.72 64.11 72.86 48.34 72.62 32.56 81.54 16.78 79.11 0 90.25 0 96 96 96 96 84.43"/><path class="cls-3" d="M96,91V62.08L80.22,66.71l-16.11,15-15.77.9L32.56,88s-16.12-.84-16.11-.76S0,92.65,0,92.65V96H96Z"/><polygon class="cls-4" points="96 93.77 96 77.49 80.22 81.31 64.11 91.54 48.34 93.13 32.56 94.09 0 95.37 0 96 96 96 96 93.77"/></g></svg>