<svg id="Layer_1" data-name="Layer 1" xmlns="http://www.w3.org/2000/svg" viewBox="0 0 96 96"><defs><style>.cls-1{fill:#ab4191;}.cls-1,.cls-2,.cls-3,.cls-4{fill-rule:evenodd;}.cls-2{fill:#f05951;}.cls-3{fill:#fa8d3d;}.cls-4,.cls-5{fill:#0f6860;}</style></defs><title>ChartsGallery_Icons</title><path class="cls-1" d="M96,7.84H45.71v11.1H96Zm0,13.38H47.67V32.33H96Zm0,13.39H42.45V46H96Zm0,13.72H48.33v11.1H96Zm0,13.38H43.43V72.82H96ZM96,75.1H42.12V86.2H96Z"/><path class="cls-2" d="M75.76,21.22H29.71V32.33H75.76ZM66,61.71H27.1V72.82H66Zm4.24-27.1h-48V46h48ZM56.82,48.33H30v11.1H56.82ZM73.47,75.1H25.8V86.2H73.47ZM60.73,7.84h-33v11.1h33Z"/><path class="cls-3" d="M47.67,21.22H8.16V32.33H47.67ZM39.51,61.71H5.88V72.82H39.51Zm3.59-27.1H1.63V46H43.1ZM31.35,48.33H8.16v11.1H31.35ZM45.71,75.1H4.57V86.2H45.71ZM34.61,7.84H6.2v11.1H34.61Z"/><path class="cls-4" d="M14,34.61H0V46H14Zm4.25,13.72H0v11.1H18.29ZM15,75.1H0V86.2H15ZM22.2,21.22H0V32.33H22.2ZM11.43,61.71H0V72.82H11.43Z"/><rect class="cls-5" y="7.84" width="10.78" height="11.1"/></svg>