<svg xmlns="http://www.w3.org/2000/svg" viewBox="0 0 96 96"><defs><style>.cls-1,.cls-2,.cls-3,.cls-4{fill:none;stroke-miterlimit:10;stroke-width:2px;}.cls-1{stroke:#ab4191;}.cls-2{stroke:#f05951;}.cls-3{stroke:#fa8d3d;}.cls-4{stroke:#0f6860;}</style></defs><title>ChartsGallery_Icons</title><g id="ChartNames"><polyline class="cls-1" points="0 31.14 4.12 20.49 11.66 36.91 16.09 36.66 24.41 46.48 27.96 47.14 32.04 44.59 36.46 46.81 40.19 44.59 45.04 45.82 47.99 49.2 51.98 48.87 59.96 52.84 63.95 51.52 68.28 51.52 74.78 53.74 85.36 41.04 96 17.86 96 18.27"/><polyline class="cls-2" points="0 61.42 3.9 56.96 7.98 61.25 15.61 60.59 24.28 69.75 27.57 71.15 31.99 67.52 35.81 69.17 40.06 67.19 48.04 70.08 51.76 69.17 59.07 73.36 68.06 72.06 75.87 68.01 79.25 63.06 82.37 59.93 88.01 57.37 91.99 52.01 96 36.5 96 35.45"/><polyline class="cls-3" points="0 79.47 5.11 77.91 8.5 78.81 16.13 77.41 20.72 80.71 27.4 84.17 37.8 83.52 46.91 85.58 52.02 79.31 60.35 84.59 90.95 89.87 96 85.5"/><polyline class="cls-4" points="0 92.26 14.7 90.69 19.9 92.1 24.93 90.03 30.13 91.1 47.13 90.78 51.72 89.12 56.75 90.69 71.06 90.11 83.63 83.1 96 79.33"/></g></svg>