<svg id="Layer_1" data-name="Layer 1" xmlns="http://www.w3.org/2000/svg" viewBox="0 0 96 96"><defs><style>.cls-1{fill:#f05951;}.cls-1,.cls-2{stroke:#fff;stroke-linecap:round;stroke-linejoin:round;stroke-width:0.5px;}.cls-2{fill:#ab4191;}</style></defs><title>ChartsGallery_Icons</title><circle class="cls-1" cx="6.06" cy="85.05" r="2.33"/><circle class="cls-1" cx="16.57" cy="83.89" r="2.33"/><circle class="cls-1" cx="13.07" cy="78.83" r="2.33"/><circle class="cls-1" cx="39.52" cy="59.38" r="2.33"/><circle class="cls-1" cx="35.63" cy="53.94" r="2.33"/><circle class="cls-1" cx="7.62" cy="70.27" r="2.33"/><circle class="cls-1" cx="20.85" cy="71.44" r="2.33"/><circle class="cls-2" cx="8.79" cy="84.28" r="3.11"/><circle class="cls-1" cx="18.9" cy="67.16" r="3.11"/><circle class="cls-1" cx="36.4" cy="59.77" r="3.11"/><circle class="cls-1" cx="63.24" cy="21.26" r="3.11"/><circle class="cls-1" cx="25.12" cy="70.27" r="3.11"/><circle class="cls-2" cx="9.18" cy="71.83" r="3.11"/><circle class="cls-2" cx="13.07" cy="47.32" r="3.11"/><circle class="cls-1" cx="8.01" cy="60.94" r="4.28"/><circle class="cls-2" cx="22.4" cy="74.94" r="4.28"/><circle class="cls-1" cx="29.79" cy="54.33" r="4.28"/><circle class="cls-1" cx="73.75" cy="30.99" r="4.28"/><circle class="cls-1" cx="62.47" cy="34.88" r="4.28"/><circle class="cls-1" cx="16.57" cy="48.88" r="4.28"/><circle class="cls-1" cx="44.18" cy="28.26" r="4.28"/><circle class="cls-1" cx="16.57" cy="61.33" r="4.28"/><circle class="cls-2" cx="29.79" cy="49.66" r="5.06"/><circle class="cls-1" cx="47.68" cy="53.94" r="5.83"/><circle class="cls-1" cx="62.08" cy="26.32" r="5.06"/><circle class="cls-2" cx="86.58" cy="39.93" r="5.06"/><circle class="cls-2" cx="70.63" cy="33.32" r="5.06"/><circle class="cls-2" cx="64.8" cy="33.32" r="6.22"/><circle class="cls-1" cx="25.9" cy="32.15" r="6.22"/><circle class="cls-2" cx="39.52" cy="74.16" r="6.61"/><circle class="cls-2" cx="56.23" cy="81.54" r="6.22"/><circle class="cls-1" cx="51.19" cy="74.16" r="8.17"/><circle class="cls-2" cx="42.24" cy="38.77" r="8.17"/><circle class="cls-1" cx="50.8" cy="60.94" r="8.17"/><circle class="cls-1" cx="41.85" cy="34.88" r="9.34"/><circle class="cls-1" cx="52.35" cy="31.76" r="11.28"/><circle class="cls-2" cx="58.97" cy="53.55" r="12.84"/><circle class="cls-1" cx="37.57" cy="81.55" r="9.72"/><circle class="cls-1" cx="58.58" cy="50.44" r="6.22"/><circle class="cls-1" cx="51.57" cy="53.55" r="7"/><circle class="cls-1" cx="53.52" cy="34.49" r="7"/><circle class="cls-1" cx="57.41" cy="11.93" r="7"/><circle class="cls-1" cx="86.19" cy="57.83" r="5.45"/><circle class="cls-1" cx="20.85" cy="66.38" r="5.45"/><circle class="cls-2" cx="38.35" cy="58.6" r="5.06"/><circle class="cls-2" cx="15.79" cy="64.05" r="5.06"/><circle class="cls-1" cx="28.24" cy="74.55" r="5.06"/><circle class="cls-2" cx="57.02" cy="22.04" r="4.28"/></svg>