<svg xmlns="http://www.w3.org/2000/svg" viewBox="0 0 96 96"><defs><style>.cls-1{fill:#ab4191;}.cls-1,.cls-2,.cls-3,.cls-4{fill-rule:evenodd;}.cls-2{fill:#f05951;}.cls-3{fill:#fa8d3d;}.cls-4{fill:#0f6860;}</style></defs><title>ChartsGallery_Icons</title><g id="ChartNames"><path class="cls-1" d="M0,44.4V78.55H13.81V44.4ZM16.44,9.87V78.55H30.25V9.87ZM32.88,25.8V78.55h13.8V25.8Zm16.44,19V82.34h13.8V44.77ZM65.75,0V78.55H79.56V0ZM82.19,37.94V86.13H96V37.94Z"/><path class="cls-2" d="M16.44,36.05v42.5H30.25V36.05Zm49.31-.38V78.55H79.56V35.67ZM32.88,52V78.55h13.8V52ZM49.32,57.3v25h13.8v-25Zm32.87-1.14v30H96v-30ZM0,57.68V78.55H13.81V57.68Z"/><path class="cls-3" d="M32.88,63.37V78.55h13.8V63.37Zm16.44,2.27v16.7h13.8V65.64Zm32.87,3V86.13H96V68.68ZM16.44,53.5v25H30.25v-25Zm49.31,3v22H79.56v-22ZM0,67.54v14H13.81v-14Z"/><path class="cls-4" d="M16.44,71.72V96H30.25V71.72Zm49.31,1.51V96H79.56V73.23ZM32.88,77V96h13.8V77Zm16.44,3.79V96h13.8V80.82Zm32.87,3V96H96V83.86ZM0,81.2V96H13.81V81.2Z"/></g></svg>