<svg xmlns="http://www.w3.org/2000/svg" viewBox="0 0 96 96"><defs><style>.cls-1{fill:#ab4191;}.cls-1,.cls-3,.cls-4{fill-rule:evenodd;}.cls-2{fill:#fff;}.cls-3{fill:#f05951;}.cls-4{fill:#fa8d3d;}</style></defs><title>ChartsGallery_Icons</title><g id="ChartNames"><path class="cls-1" d="M6.42,7.64A2.37,2.37,0,1,0,8.79,5.28,2.37,2.37,0,0,0,6.42,7.64Zm1,0A1.42,1.42,0,1,1,8.79,9.06,1.41,1.41,0,0,1,7.37,7.64Z"/><circle class="cls-2" cx="8.79" cy="7.64" r="1.42"/><path class="cls-1" d="M12.09,10a2.37,2.37,0,1,0,2.37-2.37A2.37,2.37,0,0,0,12.09,10ZM13,10a1.42,1.42,0,1,1,1.42,1.41A1.41,1.41,0,0,1,13,10Z"/><circle class="cls-2" cx="14.46" cy="10.01" r="1.42"/><path class="cls-1" d="M22,8.59a2.37,2.37,0,1,0,2.37-2.36A2.37,2.37,0,0,0,22,8.59Zm.95,0A1.42,1.42,0,1,1,24.38,10,1.41,1.41,0,0,1,23,8.59Z"/><circle class="cls-2" cx="24.38" cy="8.59" r="1.42"/><path class="cls-1" d="M14.46,14.73a2.36,2.36,0,1,0,2.36-2.36A2.36,2.36,0,0,0,14.46,14.73Zm.94,0a1.42,1.42,0,1,1,1.42,1.42A1.42,1.42,0,0,1,15.4,14.73Z"/><circle class="cls-2" cx="16.82" cy="14.73" r="1.42"/><path class="cls-1" d="M11.62,31.27A2.37,2.37,0,1,0,14,28.9,2.36,2.36,0,0,0,11.62,31.27Zm1,0A1.42,1.42,0,1,1,14,32.68,1.41,1.41,0,0,1,12.57,31.27Z"/><circle class="cls-2" cx="13.98" cy="31.27" r="1.42"/><path class="cls-1" d="M3.12,28.9a2.36,2.36,0,1,0,2.36-2.36A2.36,2.36,0,0,0,3.12,28.9Zm.94,0a1.42,1.42,0,1,1,1.42,1.42A1.41,1.41,0,0,1,4.06,28.9Z"/><circle class="cls-2" cx="5.48" cy="28.9" r="1.42"/><path class="cls-1" d="M2.64,34.57A2.37,2.37,0,1,0,5,32.21,2.37,2.37,0,0,0,2.64,34.57Zm.95,0A1.42,1.42,0,1,1,5,36,1.41,1.41,0,0,1,3.59,34.57Z"/><circle class="cls-2" cx="5.01" cy="34.57" r="1.42"/><path class="cls-1" d="M.75,37.88a2.37,2.37,0,1,0,2.37-2.36A2.36,2.36,0,0,0,.75,37.88Zm1,0A1.42,1.42,0,1,1,3.12,39.3,1.42,1.42,0,0,1,1.7,37.88Z"/><circle class="cls-2" cx="3.12" cy="37.88" r="1.42"/><path class="cls-1" d="M1.23,44.5a2.36,2.36,0,1,0,2.36-2.37A2.36,2.36,0,0,0,1.23,44.5Zm.94,0a1.42,1.42,0,1,1,1.42,1.41A1.41,1.41,0,0,1,2.17,44.5Z"/><circle class="cls-2" cx="3.59" cy="44.5" r="1.42"/><path class="cls-1" d="M2.64,66.23A2.37,2.37,0,1,0,5,63.87,2.37,2.37,0,0,0,2.64,66.23Zm.95,0A1.42,1.42,0,1,1,5,67.65,1.41,1.41,0,0,1,3.59,66.23Z"/><circle class="cls-2" cx="5.01" cy="66.23" r="1.42"/><path class="cls-1" d="M26.27,75.21a2.36,2.36,0,1,0,2.36-2.37A2.36,2.36,0,0,0,26.27,75.21Zm.94,0a1.42,1.42,0,1,1,1.42,1.41A1.41,1.41,0,0,1,27.21,75.21Z"/><circle class="cls-2" cx="28.63" cy="75.21" r="1.42"/><path class="cls-1" d="M9.73,52.06a2.37,2.37,0,1,0,2.36-2.37A2.36,2.36,0,0,0,9.73,52.06Zm.95,0a1.42,1.42,0,1,1,1.41,1.41A1.41,1.41,0,0,1,10.68,52.06Z"/><circle class="cls-2" cx="12.09" cy="52.06" r="1.42"/><path class="cls-1" d="M14.46,48.75a2.36,2.36,0,1,0,2.36-2.36A2.36,2.36,0,0,0,14.46,48.75Zm.94,0a1.42,1.42,0,1,1,1.42,1.42A1.41,1.41,0,0,1,15.4,48.75Z"/><circle class="cls-2" cx="16.82" cy="48.75" r="1.42"/><path class="cls-1" d="M14.46,41.66a2.36,2.36,0,1,0,2.36-2.36A2.36,2.36,0,0,0,14.46,41.66Zm.94,0a1.42,1.42,0,1,1,1.42,1.42A1.42,1.42,0,0,1,15.4,41.66Z"/><circle class="cls-2" cx="16.82" cy="41.66" r="1.42"/><path class="cls-1" d="M22.49,44.5a2.36,2.36,0,1,0,2.36-2.37A2.36,2.36,0,0,0,22.49,44.5Zm.94,0a1.42,1.42,0,1,1,1.42,1.41A1.42,1.42,0,0,1,23.43,44.5Z"/><circle class="cls-2" cx="24.85" cy="44.5" r="1.42"/><path class="cls-1" d="M30.52,44a2.36,2.36,0,1,0,2.36-2.36A2.37,2.37,0,0,0,30.52,44Zm.94,0a1.42,1.42,0,1,1,1.42,1.42A1.42,1.42,0,0,1,31.46,44Z"/><circle class="cls-2" cx="32.88" cy="44.02" r="1.42"/><path class="cls-3" d="M19.18,87.88a2.36,2.36,0,1,0,2.36-2.36A2.37,2.37,0,0,0,19.18,87.88Zm.94,0a1.42,1.42,0,1,1,1.42,1.42A1.42,1.42,0,0,1,20.12,87.88Z"/><circle class="cls-2" cx="21.54" cy="87.88" r="1.42"/><path class="cls-3" d="M30.52,67.65a2.36,2.36,0,1,0,2.36-2.37A2.36,2.36,0,0,0,30.52,67.65Zm.94,0a1.42,1.42,0,1,1,1.42,1.41A1.42,1.42,0,0,1,31.46,67.65Z"/><circle class="cls-2" cx="32.88" cy="67.65" r="1.42"/><path class="cls-3" d="M41.86,51.58a2.36,2.36,0,1,0,2.36-2.36A2.36,2.36,0,0,0,41.86,51.58Zm.94,0A1.42,1.42,0,1,1,44.22,53,1.42,1.42,0,0,1,42.8,51.58Z"/><circle class="cls-2" cx="44.22" cy="51.58" r="1.42"/><path class="cls-3" d="M41.86,53.94a2.36,2.36,0,1,0,2.36-2.36A2.37,2.37,0,0,0,41.86,53.94Zm.94,0a1.42,1.42,0,1,1,1.42,1.42A1.42,1.42,0,0,1,42.8,53.94Z"/><circle class="cls-2" cx="44.22" cy="53.94" r="1.42"/><path class="cls-3" d="M41.86,63.39A2.36,2.36,0,1,0,44.22,61,2.37,2.37,0,0,0,41.86,63.39Zm.94,0a1.42,1.42,0,1,1,1.42,1.42A1.42,1.42,0,0,1,42.8,63.39Z"/><circle class="cls-2" cx="44.22" cy="63.39" r="1.42"/><path class="cls-3" d="M41.86,71.43a2.36,2.36,0,1,0,2.36-2.37A2.36,2.36,0,0,0,41.86,71.43Zm.94,0a1.42,1.42,0,1,1,1.42,1.41A1.42,1.42,0,0,1,42.8,71.43Z"/><circle class="cls-2" cx="44.22" cy="71.43" r="1.42"/><path class="cls-3" d="M53.2,83.24a2.36,2.36,0,1,0,2.36-2.36A2.36,2.36,0,0,0,53.2,83.24Zm.94,0a1.42,1.42,0,1,1,1.42,1.41A1.42,1.42,0,0,1,54.14,83.24Z"/><circle class="cls-2" cx="55.56" cy="83.24" r="1.42"/><path class="cls-3" d="M64.06,75.21a2.37,2.37,0,1,0,2.37-2.37A2.37,2.37,0,0,0,64.06,75.21Zm1,0a1.42,1.42,0,1,1,1.42,1.41A1.41,1.41,0,0,1,65,75.21Z"/><circle class="cls-2" cx="66.43" cy="75.21" r="1.42"/><path class="cls-3" d="M64.06,63.39A2.37,2.37,0,1,0,66.43,61,2.37,2.37,0,0,0,64.06,63.39Zm1,0a1.42,1.42,0,1,1,1.42,1.42A1.41,1.41,0,0,1,65,63.39Z"/><circle class="cls-2" cx="66.43" cy="63.39" r="1.42"/><path class="cls-3" d="M75.4,71.43a2.37,2.37,0,1,0,2.36-2.37A2.36,2.36,0,0,0,75.4,71.43Zm.95,0a1.42,1.42,0,1,1,1.41,1.41A1.41,1.41,0,0,1,76.35,71.43Z"/><circle class="cls-2" cx="77.76" cy="71.43" r="1.42"/><path class="cls-3" d="M75.4,55.83a2.37,2.37,0,1,0,2.36-2.36A2.37,2.37,0,0,0,75.4,55.83Zm.95,0a1.42,1.42,0,1,1,1.41,1.42A1.41,1.41,0,0,1,76.35,55.83Z"/><circle class="cls-2" cx="77.76" cy="55.83" r="1.42"/><path class="cls-3" d="M75.4,24.81a2.37,2.37,0,1,0,2.36-2.36A2.36,2.36,0,0,0,75.4,24.81Zm.95,0a1.42,1.42,0,1,1,1.41,1.42A1.41,1.41,0,0,1,76.35,24.81Z"/><circle class="cls-2" cx="77.76" cy="24.81" r="1.42"/><path class="cls-3" d="M75.4,22a2.37,2.37,0,1,0,2.36-2.36A2.37,2.37,0,0,0,75.4,22Zm.95,0a1.42,1.42,0,1,1,1.41,1.42A1.41,1.41,0,0,1,76.35,22Z"/><circle class="cls-2" cx="77.76" cy="21.97" r="1.42"/><path class="cls-3" d="M86.74,84.1a2.37,2.37,0,1,0,2.36-2.36A2.37,2.37,0,0,0,86.74,84.1Zm1,0a1.42,1.42,0,1,1,1.41,1.42A1.41,1.41,0,0,1,87.69,84.1Z"/><circle class="cls-2" cx="89.1" cy="84.1" r="1.42"/><path class="cls-3" d="M86.74,71a2.37,2.37,0,1,0,2.36-2.36A2.37,2.37,0,0,0,86.74,71Zm1,0a1.42,1.42,0,1,1,1.41,1.42A1.41,1.41,0,0,1,87.69,71Z"/><circle class="cls-2" cx="89.1" cy="70.95" r="1.42"/><path class="cls-3" d="M41.86,88.36A2.36,2.36,0,1,0,44.22,86,2.36,2.36,0,0,0,41.86,88.36Zm.94,0a1.42,1.42,0,1,1,1.42,1.41A1.42,1.42,0,0,1,42.8,88.36Z"/><circle class="cls-2" cx="44.22" cy="88.36" r="1.42"/><path class="cls-3" d="M30.52,71.43a2.36,2.36,0,1,0,2.36-2.37A2.36,2.36,0,0,0,30.52,71.43Zm.94,0a1.42,1.42,0,1,1,1.42,1.41A1.42,1.42,0,0,1,31.46,71.43Z"/><circle class="cls-2" cx="32.88" cy="71.43" r="1.42"/><path class="cls-4" d="M19.65,64.34A2.37,2.37,0,1,0,22,62,2.36,2.36,0,0,0,19.65,64.34Zm1,0A1.42,1.42,0,1,1,22,65.76,1.41,1.41,0,0,1,20.6,64.34Z"/><circle class="cls-2" cx="22.01" cy="64.34" r="1.42"/><path class="cls-4" d="M30.52,50.64a2.36,2.36,0,1,0,2.36-2.36A2.36,2.36,0,0,0,30.52,50.64Zm.94,0a1.42,1.42,0,1,1,1.42,1.42A1.42,1.42,0,0,1,31.46,50.64Z"/><circle class="cls-2" cx="32.88" cy="50.64" r="1.42"/><path class="cls-4" d="M30.52,62.92a2.36,2.36,0,1,0,2.36-2.36A2.36,2.36,0,0,0,30.52,62.92Zm.94,0a1.42,1.42,0,1,1,1.42,1.42A1.43,1.43,0,0,1,31.46,62.92Z"/><circle class="cls-2" cx="32.88" cy="62.92" r="1.42"/><path class="cls-4" d="M30.52,79a2.36,2.36,0,1,0,2.36-2.37A2.36,2.36,0,0,0,30.52,79Zm.94,0a1.42,1.42,0,1,1,1.42,1.41A1.42,1.42,0,0,1,31.46,79Z"/><circle class="cls-2" cx="32.88" cy="78.99" r="1.42"/><path class="cls-4" d="M41.86,68.12a2.36,2.36,0,1,0,2.36-2.36A2.36,2.36,0,0,0,41.86,68.12Zm.94,0a1.42,1.42,0,1,1,1.42,1.42A1.42,1.42,0,0,1,42.8,68.12Z"/><circle class="cls-2" cx="44.22" cy="68.12" r="1.42"/><path class="cls-4" d="M53.2,56.78a2.36,2.36,0,1,0,2.36-2.36A2.36,2.36,0,0,0,53.2,56.78Zm.94,0a1.42,1.42,0,1,1,1.42,1.42A1.43,1.43,0,0,1,54.14,56.78Z"/><circle class="cls-2" cx="55.56" cy="56.78" r="1.42"/><path class="cls-4" d="M53.2,76.15a2.36,2.36,0,1,0,2.36-2.36A2.36,2.36,0,0,0,53.2,76.15Zm.94,0a1.42,1.42,0,1,1,1.42,1.42A1.43,1.43,0,0,1,54.14,76.15Z"/><circle class="cls-2" cx="55.56" cy="76.15" r="1.42"/><path class="cls-4" d="M41.86,85.52a2.36,2.36,0,1,0,2.36-2.36A2.36,2.36,0,0,0,41.86,85.52Zm.94,0a1.42,1.42,0,1,1,1.42,1.42A1.43,1.43,0,0,1,42.8,85.52Z"/><circle class="cls-2" cx="44.22" cy="85.52" r="1.42"/><path class="cls-4" d="M64.06,83.24a2.37,2.37,0,1,0,2.37-2.36A2.37,2.37,0,0,0,64.06,83.24Zm1,0a1.42,1.42,0,1,1,1.42,1.41A1.41,1.41,0,0,1,65,83.24Z"/><circle class="cls-2" cx="66.43" cy="83.24" r="1.42"/><path class="cls-4" d="M75.4,75.68a2.37,2.37,0,1,0,2.36-2.36A2.36,2.36,0,0,0,75.4,75.68Zm.95,0a1.42,1.42,0,1,1,1.41,1.42A1.41,1.41,0,0,1,76.35,75.68Z"/><circle class="cls-2" cx="77.76" cy="75.68" r="1.42"/><path class="cls-4" d="M77.76,75.21a2.37,2.37,0,1,0,2.37-2.37A2.37,2.37,0,0,0,77.76,75.21Zm.95,0a1.42,1.42,0,1,1,1.42,1.41A1.41,1.41,0,0,1,78.71,75.21Z"/><circle class="cls-2" cx="80.13" cy="75.21" r="1.42"/><path class="cls-4" d="M86.27,54.89a2.36,2.36,0,1,0,2.36-2.36A2.36,2.36,0,0,0,86.27,54.89Zm.94,0a1.42,1.42,0,1,1,1.42,1.42A1.43,1.43,0,0,1,87.21,54.89Z"/><circle class="cls-2" cx="88.63" cy="54.89" r="1.42"/><path class="cls-4" d="M90.52,71a2.37,2.37,0,1,0,2.36-2.36A2.37,2.37,0,0,0,90.52,71Zm1,0a1.42,1.42,0,1,1,1.41,1.42A1.41,1.41,0,0,1,91.47,71Z"/><circle class="cls-2" cx="92.88" cy="70.95" r="1.42"/><path class="cls-4" d="M86.74,88.36A2.37,2.37,0,1,0,89.1,86,2.36,2.36,0,0,0,86.74,88.36Zm1,0a1.42,1.42,0,1,1,1.41,1.41A1.41,1.41,0,0,1,87.69,88.36Z"/><circle class="cls-2" cx="89.1" cy="88.36" r="1.42"/><path class="cls-4" d="M30.52,83.71a2.36,2.36,0,1,0,2.36-2.36A2.36,2.36,0,0,0,30.52,83.71Zm.94,0a1.42,1.42,0,1,1,1.42,1.42A1.43,1.43,0,0,1,31.46,83.71Z"/><circle class="cls-2" cx="32.88" cy="83.71" r="1.42"/></g></svg>