<svg xmlns="http://www.w3.org/2000/svg" viewBox="0 0 96 96"><defs><style>.cls-1,.cls-2,.cls-3,.cls-4{fill:none;stroke-miterlimit:10;stroke-width:2px;}.cls-1{stroke:#0f6860;}.cls-1,.cls-2,.cls-3,.cls-4,.cls-5,.cls-7,.cls-8,.cls-9{fill-rule:evenodd;}.cls-2{stroke:#fa8d3d;}.cls-3{stroke:#f05951;}.cls-4{stroke:#ab4191;}.cls-5{fill:#ab4191;}.cls-6{fill:#fff;}.cls-7{fill:#f05951;}.cls-8{fill:#0f6860;}.cls-9{fill:#fa8d3d;}</style></defs><title>ChartsGallery_Icons</title><g id="ChartNames"><polyline class="cls-1" points="26.86 87.32 37.71 81.09 60.66 85.34 75.57 71.13 82.69 60.02 88.09 48.86"/><polyline class="cls-2" points="10.6 85.36 16.86 76.38 32.22 58.89 55.26 41.45 60.02 31.09 69.79 23.41 88.32 6.3"/><polyline class="cls-3" points="60.19 7.22 47.42 10.06 35.31 14.73 18.95 32.1 17.53 50.04 10.44 58.56"/><polyline class="cls-4" points="23.58 4.76 10.97 12.44 8.47 29.72"/><path class="cls-5" d="M8.69,12.61a2.51,2.51,0,1,0,2.5-2.51A2.5,2.5,0,0,0,8.69,12.61Zm1,0a1.5,1.5,0,1,1,1.5,1.5A1.5,1.5,0,0,1,9.69,12.61Z"/><circle class="cls-6" cx="11.19" cy="12.61" r="1.5"/><path class="cls-5" d="M21,4.59a2.51,2.51,0,1,0,2.51-2.5A2.51,2.51,0,0,0,21,4.59Zm1,0A1.51,1.51,0,1,1,23.55,6.1,1.5,1.5,0,0,1,22,4.59Z"/><circle class="cls-6" cx="23.55" cy="4.59" r="1.5"/><path class="cls-5" d="M6,29.64a2.5,2.5,0,1,0,2.5-2.51A2.5,2.5,0,0,0,6,29.64Zm1,0a1.5,1.5,0,1,1,1.5,1.5A1.5,1.5,0,0,1,7,29.64Z"/><circle class="cls-6" cx="8.52" cy="29.64" r="1.5"/><path class="cls-7" d="M57.43,7.26a2.51,2.51,0,1,0,2.51-2.5A2.51,2.51,0,0,0,57.43,7.26Zm1,0a1.51,1.51,0,1,1,1.51,1.51A1.51,1.51,0,0,1,58.43,7.26Z"/><circle class="cls-6" cx="59.94" cy="7.26" r="1.5"/><path class="cls-7" d="M44.74,10.24a2.51,2.51,0,1,0,2.51-2.51A2.51,2.51,0,0,0,44.74,10.24Zm1,0a1.5,1.5,0,1,1,1.5,1.5A1.5,1.5,0,0,1,45.75,10.24Z"/><circle class="cls-6" cx="47.25" cy="10.24" r="1.5"/><path class="cls-7" d="M33.06,14.94a2.51,2.51,0,1,0,2.5-2.5A2.5,2.5,0,0,0,33.06,14.94Zm1,0a1.5,1.5,0,1,1,1.5,1.51A1.5,1.5,0,0,1,34.06,14.94Z"/><circle class="cls-6" cx="35.56" cy="14.94" r="1.5"/><path class="cls-7" d="M16.36,32.08a2.51,2.51,0,1,0,2.51-2.5A2.51,2.51,0,0,0,16.36,32.08Zm1,0a1.51,1.51,0,1,1,1.51,1.5A1.5,1.5,0,0,1,17.36,32.08Z"/><circle class="cls-6" cx="18.87" cy="32.08" r="1.5"/><path class="cls-7" d="M14.69,50.34a2.51,2.51,0,1,0,2.51-2.51A2.5,2.5,0,0,0,14.69,50.34Zm1,0a1.51,1.51,0,1,1,3,0,1.51,1.51,0,0,1-3,0Z"/><circle class="cls-6" cx="17.2" cy="50.34" r="1.5"/><path class="cls-7" d="M8,58.24a2.51,2.51,0,1,0,2.5-2.51A2.5,2.5,0,0,0,8,58.24Zm1,0a1.5,1.5,0,1,1,1.5,1.5A1.5,1.5,0,0,1,9,58.24Z"/><circle class="cls-6" cx="10.48" cy="58.24" r="1.5"/><path class="cls-8" d="M80.54,60a2.5,2.5,0,1,0,2.5-2.5A2.51,2.51,0,0,0,80.54,60Zm1,0a1.5,1.5,0,1,1,1.5,1.5A1.5,1.5,0,0,1,81.54,60Z"/><circle class="cls-6" cx="83.04" cy="60.02" r="1.5"/><path class="cls-8" d="M85.58,49a2.51,2.51,0,1,0,2.51-2.5A2.51,2.51,0,0,0,85.58,49Zm1,0a1.51,1.51,0,1,1,1.51,1.5A1.51,1.51,0,0,1,86.58,49Z"/><circle class="cls-6" cx="88.09" cy="49" r="1.5"/><path class="cls-8" d="M73.27,71.18a2.51,2.51,0,1,0,2.5-2.5A2.51,2.51,0,0,0,73.27,71.18Zm1,0a1.5,1.5,0,1,1,1.5,1.51A1.5,1.5,0,0,1,74.27,71.18Z"/><circle class="cls-6" cx="75.77" cy="71.18" r="1.5"/><path class="cls-8" d="M58.16,85.65a2.5,2.5,0,1,0,2.5-2.51A2.5,2.5,0,0,0,58.16,85.65Zm1,0a1.5,1.5,0,1,1,1.5,1.5A1.51,1.51,0,0,1,59.16,85.65Z"/><circle class="cls-6" cx="60.66" cy="85.65" r="1.5"/><path class="cls-8" d="M35.2,81.53A2.51,2.51,0,1,0,37.71,79,2.52,2.52,0,0,0,35.2,81.53Zm1,0A1.51,1.51,0,1,1,37.71,83,1.51,1.51,0,0,1,36.2,81.53Z"/><circle class="cls-6" cx="37.71" cy="81.53" r="1.5"/><path class="cls-8" d="M24.35,87.32a2.51,2.51,0,1,0,2.51-2.51A2.5,2.5,0,0,0,24.35,87.32Zm1,0a1.51,1.51,0,1,1,1.51,1.5A1.51,1.51,0,0,1,25.35,87.32Z"/><circle class="cls-6" cx="26.86" cy="87.32" r="1.5"/><path class="cls-9" d="M8,85.73a2.51,2.51,0,1,0,2.51-2.5A2.52,2.52,0,0,0,8,85.73Zm1,0a1.5,1.5,0,1,1,1.5,1.5A1.5,1.5,0,0,1,9,85.73Z"/><circle class="cls-6" cx="10.48" cy="85.73" r="1.5"/><path class="cls-9" d="M13.36,77.38a2.51,2.51,0,1,0,2.5-2.5A2.5,2.5,0,0,0,13.36,77.38Zm1,0a1.51,1.51,0,1,1,1.5,1.51A1.5,1.5,0,0,1,14.36,77.38Z"/><circle class="cls-6" cx="15.86" cy="77.38" r="1.5"/><path class="cls-9" d="M19,70.71a2.51,2.51,0,1,0,2.51-2.51A2.5,2.5,0,0,0,19,70.71Zm1,0a1.51,1.51,0,1,1,1.51,1.5A1.51,1.51,0,0,1,20,70.71Z"/><circle class="cls-6" cx="21.54" cy="70.71" r="1.5"/><path class="cls-9" d="M29.44,58.91a2.51,2.51,0,1,0,2.5-2.51A2.5,2.5,0,0,0,29.44,58.91Zm1,0a1.5,1.5,0,1,1,1.5,1.5A1.51,1.51,0,0,1,30.44,58.91Z"/><circle class="cls-6" cx="31.94" cy="58.91" r="1.5"/><path class="cls-9" d="M41.41,49.67a2.5,2.5,0,1,0,2.5-2.5A2.5,2.5,0,0,0,41.41,49.67Zm1,0a1.5,1.5,0,1,1,1.5,1.5A1.5,1.5,0,0,1,42.41,49.67Z"/><circle class="cls-6" cx="43.91" cy="49.67" r="1.5"/><path class="cls-9" d="M52.76,41.66a2.51,2.51,0,1,0,2.5-2.51A2.5,2.5,0,0,0,52.76,41.66Zm1,0a1.51,1.51,0,1,1,1.5,1.5A1.5,1.5,0,0,1,53.76,41.66Z"/><circle class="cls-6" cx="55.26" cy="41.66" r="1.5"/><path class="cls-9" d="M57.77,31.3a2.51,2.51,0,1,0,2.5-2.5A2.5,2.5,0,0,0,57.77,31.3Zm1,0a1.5,1.5,0,1,1,1.5,1.51A1.5,1.5,0,0,1,58.77,31.3Z"/><circle class="cls-6" cx="60.27" cy="31.3" r="1.5"/><path class="cls-9" d="M67.45,23.62a2.51,2.51,0,1,0,2.5-2.5A2.5,2.5,0,0,0,67.45,23.62Zm1,0A1.51,1.51,0,1,1,70,25.13,1.5,1.5,0,0,1,68.45,23.62Z"/><circle class="cls-6" cx="69.95" cy="23.62" r="1.5"/><path class="cls-9" d="M85.82,6.59a2.5,2.5,0,1,0,2.5-2.5A2.5,2.5,0,0,0,85.82,6.59Zm1,0a1.5,1.5,0,1,1,1.5,1.51A1.5,1.5,0,0,1,86.82,6.59Z"/><circle class="cls-6" cx="88.32" cy="6.59" r="1.5"/></g></svg>