<svg xmlns="http://www.w3.org/2000/svg" viewBox="0 0 96 96"><defs><style>.cls-1{fill:#ab4191;}.cls-1,.cls-2,.cls-3,.cls-4{fill-rule:evenodd;}.cls-2{fill:#f05951;}.cls-3{fill:#fa8d3d;}.cls-4{fill:#0f6860;}</style></defs><title>ChartsGallery_Icons</title><g id="ChartNames"><path class="cls-1" d="M53.9,8.85H14.58V19.66H53.9ZM86.33,22.28H21.46V33.09H86.33ZM71.26,35.71H14.91V46.85H71.26ZM53.57,49.47H11.63V60.29H53.57ZM95.84,62.91H21.46V73.72H95.84Zm-36,13.43H14.91V87.15H59.8Z"/><path class="cls-2" d="M41.12,8.85H14.58V19.66H41.12ZM61.76,22.28H21.46V33.09h40.3ZM46.69,35.71H14.91V46.85H46.69ZM41.77,49.47H11.63V60.29H41.77ZM62.09,62.91H21.46V73.72H62.09ZM42.76,76.34H14.91V87.15H42.76Z"/><path class="cls-3" d="M31.62,8.85h-17V19.66h17ZM45.38,22.28H21.46V33.09H45.38Zm-9.5,13.43h-21V46.85h21Zm-2.3,13.76H11.63V60.29H33.58Zm8.85,13.44h-21V73.72h21ZM31,76.34h-16V87.15H31Z"/><path class="cls-4" d="M14.91,8.85H.16V19.66H14.91ZM27.36,22.28H.16V33.09h27.2ZM19.17,35.71H.16V46.85h19ZM15.56,49.47H.16V60.29h15.4ZM27.69,62.91H.16V73.72H27.69ZM16.22,76.34H.16V87.15H16.22Z"/></g></svg>