<?xml version="1.0" encoding="UTF-8"?>
<svg width="117px" height="22px" viewBox="0 0 117 22" version="1.1" xmlns="http://www.w3.org/2000/svg" xmlns:xlink="http://www.w3.org/1999/xlink">
    <title>Group 2</title>
    <g id="Page-1" stroke="none" stroke-width="1" fill="none" fill-rule="evenodd">
        <g id="Desktop-HD" transform="translate(-7.000000, -9.000000)" stroke="#007BFF">
            <g id="Group-2" transform="translate(8.000000, 10.000000)">
                <path d="M48.8187289,15.5919471 L49.4720717,15.3034856 C49.1737416,14.6364183 48.348859,12.7899639 46.9974239,9.7641226 C45.6459888,6.73828125 44.6808911,4.55829327 44.1021308,3.22415865 L44.1021308,3.22415865 L43.5830366,3.22415865 C42.7417458,5.12319712 41.6752159,7.50300481 40.3834468,10.3635817 C39.0916777,13.2241587 38.3473442,14.8707933 38.1504464,15.3034856 L38.1504464,15.3034856 L38.7679896,15.5739183 C38.881355,15.327524 39.1259856,14.7701322 39.5018815,13.9017428 C39.8777774,13.0333534 40.3282557,12.0072115 40.8533166,10.8233173 L40.8533166,10.8233173 L46.7244519,10.8233173 C47.2853124,12.0853365 47.7238576,13.0844351 48.0400875,13.820613 C48.3563173,14.5567909 48.6158644,15.1472356 48.8187289,15.5919471 L48.8187289,15.5919471 Z M46.4559549,10.2554087 L41.1218137,10.2554087 L41.1128638,10.2463942 C41.4589266,9.46514423 41.8825553,8.50360577 42.3837498,7.36177885 C42.8849442,6.21995192 43.3473558,5.17427885 43.7709845,4.22475962 L43.7709845,4.22475962 L43.7888843,4.22475962 C44.1767133,5.08413462 44.6242084,6.08323317 45.1313695,7.22205529 C45.6385306,8.3608774 46.0830423,9.36899038 46.4649048,10.2463942 L46.4649048,10.2463942 L46.4559549,10.2554087 Z M51.8828171,15.3846154 L51.8822578,15.2223558 C51.881139,14.9789663 51.8783422,14.4921875 51.8738672,13.7620192 C51.8679006,12.7884615 51.8649173,11.9471154 51.8649173,11.2379808 L51.8652826,10.8181662 C51.8658915,10.4490041 51.8672613,10.0315505 51.8693923,9.56580529 C51.8712281,9.16454789 51.8724991,8.87423724 51.8732052,8.69487334 L51.8736289,8.58115292 C51.8736819,8.56566661 51.873726,8.55191383 51.8737613,8.5398946 L51.8738672,8.48858173 C52.6912916,7.98978365 53.4773912,7.58413462 54.2321662,7.27163462 C54.9869413,6.95913462 55.5403435,6.75480769 55.892373,6.65865385 L55.892373,6.65865385 L55.7402246,6.06370192 C55.3822286,6.16586538 54.800485,6.38822115 53.9949939,6.73076923 C53.1895027,7.07331731 52.4854438,7.43689904 51.8828171,7.82151442 L51.8828171,7.82151442 L51.8738672,7.8125 L51.8828171,6.28004808 L51.1936747,6.28004808 C51.1936747,7.16947115 51.196658,8.11298077 51.2026246,9.11057692 C51.2085912,10.1081731 51.2115745,10.8864183 51.2115745,11.4453125 C51.2115745,11.5374599 51.2115613,11.6278045 51.2115347,11.7163462 L51.2109381,12.4645433 C51.2097713,13.3195112 51.2070001,13.9563301 51.2026246,14.375 C51.1977429,14.842111 51.1948582,15.1523264 51.1939706,15.3056461 L51.1936747,15.3846154 L51.8828171,15.3846154 L51.8828171,15.3846154 Z M62.9212675,15.4206731 L62.9839168,14.84375 L62.9839168,14.84375 L62.4558727,14.84375 C61.9367784,14.84375 61.4147008,14.7926683 60.8896399,14.6905048 C60.364579,14.5883413 59.8216183,14.3960337 59.2607579,14.1135817 C58.6998974,13.8191106 58.2255526,13.3804087 57.8377235,12.797476 C57.4498945,12.2145433 57.2559799,11.5354567 57.2559799,10.7602163 C57.2559799,10.0390625 57.4752525,9.36298077 57.9137977,8.73197115 C58.3523429,8.10096154 58.9117117,7.64723558 59.5919042,7.37079327 C60.0035997,7.19050481 60.4496031,7.05228365 60.9299145,6.95612981 C61.4102258,6.85997596 61.9576615,6.81189904 62.5722214,6.81189904 L62.5722214,6.81189904 L62.8317685,6.81189904 L62.7959689,6.23497596 L62.7959689,6.23497596 L62.429023,6.23497596 C61.6772312,6.23497596 60.9522892,6.3266226 60.2541969,6.50991587 C59.5561046,6.69320913 58.9534779,6.95913462 58.4463168,7.30769231 C57.8914229,7.69230769 57.4409446,8.18659856 57.0948817,8.7905649 C56.7488189,9.39453125 56.5757874,10.0570913 56.5757874,10.7782452 C56.5757874,11.5835337 56.765227,12.3137019 57.1441062,12.96875 C57.5229853,13.6237981 58.0495379,14.1496394 58.7237638,14.546274 C59.2189916,14.8407452 59.7798521,15.0600962 60.4063452,15.2043269 C61.0328383,15.3485577 61.7070642,15.4206731 62.429023,15.4206731 L62.429023,15.4206731 L62.9212675,15.4206731 Z M68.3928793,15.4116587 C68.5002781,15.4116587 68.6166268,15.4086538 68.7419254,15.4026442 C68.867224,15.3966346 68.9626896,15.3936298 69.0283223,15.3936298 L69.0283223,15.3936298 L69.0820217,14.8347356 C69.0223557,14.8347356 68.9447898,14.836238 68.8493242,14.8392428 C68.7538586,14.8422476 68.6643596,14.84375 68.5808272,14.84375 C67.5486052,14.84375 66.8341048,14.616887 66.4373258,14.1631611 C66.0405468,13.7094351 65.8421574,12.9867788 65.8421574,11.9951923 C65.8421574,11.6646635 65.8406657,11.328125 65.8376824,10.9855769 C65.8358178,10.7714844 65.834536,10.5057467 65.8338367,10.1883639 L65.8332075,9.56129808 C65.8332075,9.02043269 65.8361908,8.4765625 65.8421574,7.9296875 C65.846798,7.50434028 65.849634,7.18987417 65.8506653,6.98628917 L65.8511073,6.83894231 L69.1536209,6.83894231 L69.1536209,6.29807692 L65.8511073,6.29807692 L65.8511073,4.18870192 L65.2156643,4.18870192 L65.2156643,6.29807692 L63.6762812,6.29807692 L63.6762812,6.83894231 L65.1888146,6.83894231 C65.1888146,7.69230769 65.1858313,8.61628606 65.1798647,9.6108774 C65.1738981,10.6054688 65.1709148,11.4753606 65.1709148,12.2205529 C65.1709148,13.296274 65.4409034,14.0970553 65.9808808,14.6228966 C66.5208582,15.148738 67.3248577,15.4116587 68.3928793,15.4116587 Z M72.1998093,3.85516827 L72.1998093,2.96274038 L71.3853683,2.96274038 L71.3853683,3.85516827 L72.1998093,3.85516827 Z M72.13716,15.3846154 L72.1370009,15.2863782 C72.1369479,15.266453 72.1368816,15.2447516 72.136802,15.221274 L72.1361656,15.0590946 C72.1348397,14.7532719 72.1321878,14.2698317 72.1282101,13.608774 C72.1222435,12.6171875 72.1192602,11.7007212 72.1192602,10.859375 C72.1192602,10.0661058 72.1207519,9.34044471 72.1237352,8.68239183 C72.1267185,8.02433894 72.1311934,7.22355769 72.13716,6.28004808 L72.13716,6.28004808 L71.4480176,6.28004808 C71.4539842,7.10336538 71.4584592,7.92518029 71.4614425,8.74549279 C71.4644258,9.56580529 71.4659174,10.3004808 71.4659174,10.9495192 L71.4656688,11.5746444 C71.4648401,12.5766643 71.4619397,13.3794071 71.4569675,13.9828726 C71.4524926,14.5259916 71.4496957,14.9245981 71.448577,15.1786922 L71.4480176,15.3846154 L72.13716,15.3846154 L72.13716,15.3846154 Z M81.0544838,15.4206731 L81.1171331,14.84375 L81.1171331,14.84375 L80.5890889,14.84375 C80.0699946,14.84375 79.5479171,14.7926683 79.0228562,14.6905048 C78.4977953,14.5883413 77.9548346,14.3960337 77.3939741,14.1135817 C76.8331136,13.8191106 76.3587688,13.3804087 75.9709398,12.797476 C75.5831107,12.2145433 75.3891962,11.5354567 75.3891962,10.7602163 C75.3891962,10.0390625 75.6084688,9.36298077 76.047014,8.73197115 C76.4855591,8.10096154 77.044928,7.64723558 77.7251205,7.37079327 C78.1368159,7.19050481 78.5828193,7.05228365 79.0631307,6.95612981 C79.5434421,6.85997596 80.0908777,6.81189904 80.7054376,6.81189904 L80.7054376,6.81189904 L80.9649848,6.81189904 L80.9291852,6.23497596 L80.9291852,6.23497596 L80.5622392,6.23497596 C79.8104475,6.23497596 79.0855055,6.3266226 78.3874132,6.50991587 C77.6893209,6.69320913 77.0866942,6.95913462 76.5795331,7.30769231 C76.0246392,7.69230769 75.5741608,8.18659856 75.228098,8.7905649 C74.8820351,9.39453125 74.7090037,10.0570913 74.7090037,10.7782452 C74.7090037,11.5835337 74.8984433,12.3137019 75.2773224,12.96875 C75.6562016,13.6237981 76.1827541,14.1496394 76.85698,14.546274 C77.3522079,14.8407452 77.9130684,15.0600962 78.5395615,15.2043269 C79.1660546,15.3485577 79.8402805,15.4206731 80.5622392,15.4206731 L80.5622392,15.4206731 L81.0544838,15.4206731 Z M86.5081957,15.4116587 C87.2540208,15.4116587 87.9163135,15.3500601 88.4950738,15.226863 C89.0738341,15.1036659 89.6048616,14.906851 90.0881563,14.6364183 C90.6370836,14.3299279 91.0592206,13.9362981 91.3545673,13.4555288 C91.6499141,12.9747596 91.7975874,12.4338942 91.7975874,11.8329327 C91.7975874,11.3882212 91.7334465,11.0051082 91.6051646,10.6835937 C91.4768826,10.3620793 91.2934097,10.0751202 91.0547456,9.82271635 C90.780282,9.52824519 90.4372024,9.2983774 90.025507,9.13311298 C89.6138115,8.96784856 89.2200158,8.8671875 88.84412,8.83112981 L88.84412,8.83112981 L88.84412,8.78605769 C89.3333813,8.58173077 89.7808763,8.2436899 90.1866052,7.7719351 C90.5923341,7.30018029 90.7951985,6.75480769 90.7951985,6.13581731 C90.7951985,5.546875 90.6475251,5.04957933 90.3521784,4.64393029 C90.0568316,4.23828125 89.6555777,3.92728365 89.1484166,3.7109375 C88.8202536,3.57271635 88.4115414,3.46153846 87.9222801,3.37740385 C87.4330189,3.29326923 86.9019914,3.25120192 86.3291977,3.25120192 C85.8220366,3.25120192 85.3059256,3.26322115 84.7808647,3.28725962 C84.2558039,3.31129808 83.9544905,3.32632212 83.8769247,3.33233173 L83.8769247,3.33233173 L83.8774202,3.44412305 C83.8784938,3.65416847 83.8813119,4.15326287 83.8858746,4.94140625 C83.8906479,5.76592548 83.8935119,6.82602163 83.8944665,8.12169471 L83.8950035,9.70210337 C83.8954808,10.4621995 83.8969128,11.2521034 83.8992995,12.0718149 C83.9022828,13.0964543 83.8948245,14.1856971 83.8769247,15.3395433 L83.8769247,15.3395433 L83.9307484,15.3431741 C84.0554669,15.3502688 84.3552472,15.3625801 84.8300892,15.3801082 C85.3998996,15.4011418 85.9592684,15.4116587 86.5081957,15.4116587 Z M86.3739472,14.8527644 C86.2009158,14.8527644 85.8891609,14.8452524 85.4386825,14.8302284 C84.9882041,14.8152043 84.7062822,14.8046875 84.5929168,14.7986779 L84.5929168,14.7986779 L84.5924748,14.6635728 C84.5914436,14.4044174 84.5886076,13.7898972 84.5839669,12.820012 C84.5780003,11.5730168 84.575017,10.4326923 84.575017,9.39903846 L84.5749375,9.20128205 C84.5749109,9.16501068 84.5748778,9.12708333 84.574838,9.0875 L84.574301,8.68653846 C84.5742215,8.63701923 84.5741353,8.58584402 84.5740425,8.53301282 L84.573406,8.19615385 C84.57269,7.83942308 84.5717354,7.42307692 84.5705421,6.94711538 C84.5675588,5.75721154 84.575017,4.72355769 84.5929168,3.84615385 C84.6704826,3.84014423 84.9180966,3.83112981 85.3357586,3.81911058 C85.7534207,3.80709135 86.0935169,3.80108173 86.3560474,3.80108173 C86.7677429,3.80108173 87.2152379,3.84164663 87.6985326,3.92277644 C88.1818273,4.00390625 88.596506,4.140625 88.9425689,4.33293269 C89.2707319,4.51923077 89.5422123,4.75661058 89.7570099,5.04507212 C89.9718076,5.33353365 90.0792064,5.71814904 90.0792064,6.19891827 C90.0792064,6.51141827 90.0090988,6.81640625 89.8688837,7.11388221 C89.7286686,7.41135817 89.4885129,7.70432692 89.1484166,7.99278846 C88.8620198,8.22716346 88.53684,8.40895433 88.1728774,8.53816106 C87.8089147,8.66736779 87.3763362,8.75600962 86.8751417,8.80408654 L86.8751417,8.80408654 L86.9825405,9.32692308 C87.0422065,9.32091346 87.1496053,9.31640625 87.3047369,9.31340144 C87.4598686,9.31039663 87.6567664,9.30889423 87.8954304,9.30889423 C88.4324245,9.30889423 88.9351106,9.39002404 89.4034888,9.55228365 C89.871867,9.71454327 90.234338,9.93689904 90.4909018,10.219351 C90.6937663,10.4417067 90.8429313,10.688101 90.9383969,10.9585337 C91.0338625,11.2289663 91.0815953,11.5354567 91.0815953,11.8780048 C91.0815953,12.4008413 90.9652466,12.8425481 90.7325492,13.203125 C90.4998517,13.5637019 90.1836219,13.8611779 89.7838596,14.0955529 C89.3423312,14.3539663 88.8411367,14.5447716 88.2802762,14.6679687 C87.7194157,14.7911659 87.0839727,14.8527644 86.3739472,14.8527644 Z M95.291271,15.3846154 L95.290913,15.2670673 C95.2908533,15.2507812 95.2907862,15.2328726 95.2907116,15.2133413 L95.2901746,15.0766827 C95.2888172,14.7384014 95.2861994,14.1259014 95.2823211,13.2391827 C95.2774393,12.1230332 95.2745546,10.854011 95.273667,9.43211618 L95.2738131,7.87637999 C95.2748444,7.16071641 95.2776804,6.3296274 95.2823211,5.38311298 C95.2882877,4.16616587 95.291271,3.09495192 95.291271,2.16947115 L95.291271,2.16947115 L94.6021286,2.16947115 C94.6021286,3.52764423 94.6051119,4.75210337 94.6110785,5.84284856 C94.6157191,6.69120593 94.6185551,7.4259556 94.6195864,8.04709758 L94.619469,9.43932166 C94.6183503,10.3807655 94.6155534,11.4836238 94.6110785,12.7478966 C94.6071872,13.8472643 94.6045648,14.603479 94.6032113,15.0165406 L94.6027376,15.1634638 C94.6026699,15.1849008 94.6026079,15.2048126 94.6025515,15.2231993 L94.6021286,15.3846154 L95.291271,15.3846154 L95.291271,15.3846154 Z M101.076129,15.5739183 C101.726489,15.5739183 102.424581,15.3996394 103.170406,15.0510817 C103.916231,14.702524 104.453225,14.4110577 104.781388,14.1766827 L104.781388,14.1766827 L104.790338,14.1856971 L104.790338,15.3846154 L105.461581,15.3846154 L105.461581,15.3846154 L105.461266,14.5878425 C105.460357,13.5067573 105.457479,12.7281776 105.452631,12.2521034 C105.448369,11.8335766 105.445629,11.3667582 105.444412,10.8516484 L105.444318,9.19142628 C105.445484,8.33704594 105.448256,7.7016226 105.452631,7.28515625 C105.457513,6.82050372 105.460397,6.5117411 105.461285,6.3588684 L105.461581,6.28004808 L104.772439,6.28004808 L104.772439,6.28004808 L104.773075,6.43133013 C104.774242,6.64698184 104.777013,7.07431891 104.781388,7.71334135 C104.787355,8.58473558 104.790338,9.3359375 104.790338,9.96694712 L104.790214,10.4022686 C104.7898,11.1171625 104.788349,11.7788462 104.785863,12.3873197 C104.784159,12.8045587 104.782941,13.1143605 104.78221,13.3167251 L104.781594,13.4990602 C104.781548,13.5142836 104.78151,13.5278282 104.78148,13.5396941 L104.781388,13.5907452 C104.483058,13.8251202 103.956506,14.1180889 103.201731,14.4696514 C102.446956,14.8212139 101.813004,14.9969952 101.299877,14.9969952 C100.583885,14.9969952 100.079707,14.7881611 99.7873434,14.3704928 C99.49498,13.9528245 99.3487983,13.3263221 99.3487983,12.4909856 L99.3487983,12.4909856 L99.3483955,12.2016226 C99.347769,11.9323918 99.3464116,11.5600962 99.3443233,11.0847356 C99.34134,10.405649 99.3398484,9.85877404 99.3398484,9.44411058 L99.3399589,9.28207354 C99.3405482,8.83454268 99.3434946,8.26355502 99.3487983,7.56911058 C99.3539125,6.89946772 99.3568349,6.48811568 99.3575655,6.33505445 L99.3577482,6.28004808 L98.6686058,6.28004808 C98.6686058,6.29464286 98.6686058,6.3163204 98.6687884,6.3450807 L98.6693364,6.45260989 C98.670554,6.66723901 98.6732938,7.05893716 98.6775557,7.62770433 C98.6835223,8.42397837 98.6865056,9.09555288 98.6865056,9.64242788 L98.6863951,9.74887598 C98.6858058,10.0495051 98.6828593,10.4842748 98.6775557,11.0531851 C98.6715891,11.6932091 98.6686058,12.2536058 98.6686058,12.734375 C98.6686058,13.7019231 98.8923533,14.4170673 99.3398484,14.8798077 C99.7873434,15.3425481 100.366104,15.5739183 101.076129,15.5739183 Z M113.152768,15.4116587 C113.528664,15.4116587 113.801636,15.405649 113.971684,15.3936298 C114.141732,15.3816106 114.259573,15.375601 114.325205,15.375601 L114.325205,15.375601 L114.432604,14.8076923 C114.301339,14.8137019 114.116374,14.8212139 113.87771,14.8302284 C113.639046,14.8392428 113.415299,14.84375 113.206468,14.84375 C112.615774,14.84375 112.068338,14.7746394 111.564161,14.6364183 C111.059983,14.4981971 110.631879,14.296875 110.27985,14.0324519 C109.635457,13.5516827 109.199895,13.0228365 108.973164,12.4459135 C108.746433,11.8689904 108.633068,11.1598558 108.633068,10.3185096 L108.633068,10.3185096 L115.238095,10.3185096 C115.232129,9.60336538 115.139646,8.97085337 114.960648,8.42097356 C114.78165,7.87109375 114.531053,7.41586538 114.208857,7.05528846 C113.916493,6.73677885 113.571922,6.49489183 113.175143,6.3296274 C112.778364,6.16436298 112.329377,6.08173077 111.828183,6.08173077 C111.279256,6.08173077 110.772094,6.19140625 110.3067,6.41075721 C109.841305,6.63010817 109.435576,6.94711538 109.089513,7.36177885 C108.671851,7.86057692 108.379487,8.3608774 108.212423,8.86268029 C108.045358,9.36448317 107.961825,9.97896635 107.961825,10.7061298 C107.961825,11.3311298 108.078174,11.9320913 108.310872,12.5090144 C108.543569,13.0859375 108.859799,13.5817308 109.259561,13.9963942 C109.713023,14.4591346 110.267917,14.8106971 110.924243,15.0510817 C111.580569,15.2914663 112.323411,15.4116587 113.152768,15.4116587 Z M114.575803,9.8046875 L108.659918,9.8046875 C108.850849,8.75901442 109.226745,7.9672476 109.787605,7.42938702 C110.348466,6.89152644 111.022692,6.62259615 111.810283,6.62259615 C112.585941,6.62259615 113.216909,6.88100962 113.703187,7.39783654 C114.189465,7.91466346 114.480337,8.71694712 114.575803,9.8046875 L114.575803,9.8046875 Z" id="ArcticBlue" stroke-width="0.5" fill="#007BFF" fill-rule="nonzero"></path>
                <g id="Group" stroke-width="0.56">
                    <polygon id="Path" stroke-linecap="round" stroke-linejoin="round" points="1.0809645 6.48648649 9.18819827 9.18918919 2.70241126 10.2702703"></polygon>
                    <polygon id="Path-2" stroke-linecap="round" stroke-linejoin="round" points="9.18819827 9.18918919 8.10723377 14.0540541 2.70241126 10.2702703 1.62144675 11.8918919 1.0809645 6.48648649 2.70241126 3.78378378 5.40482251 1.62162162 9.18819827 0 10.2691628 4.86486486"></polygon>
                    <polyline id="Path-3" stroke-linecap="round" stroke-linejoin="round" points="9.18819827 0 15.6739853 1.62162162 17.8359143 3.78378378 10.2691628 4.86486486 13.5120563 9.72972973 13.5120563 13.5135135 9.18819827 9.18918919"></polyline>
                    <polyline id="Path-4" stroke-linecap="round" stroke-linejoin="round" points="1.0809645 6.48648649 10.2691628 4.86486486 17.295432 7.56756757 17.8359143 3.78378378 21.61929 5.94594595 20.5383255 12.4324324 22.7002545 9.18918919 26.4836303 7.02702703 27.0241126 4.86486486 23.2407368 4.32432432 20.5383255 1.62162162 15.6739853 1.62162162"></polyline>
                    <line x1="17.8359143" y1="3.78378378" x2="20.5383255" y2="1.62162162" id="Path-5" stroke-linecap="round" stroke-linejoin="round"></line>
                    <polyline id="Path-6" stroke-linecap="round" stroke-linejoin="round" points="23.2407368 4.32432432 21.61929 5.94594595 17.295432 7.56756757 13.5120563 9.72972973"></polyline>
                    <polyline id="Path-7" stroke-linecap="round" stroke-linejoin="round" points="17.295432 7.56756757 15.6739853 11.8918919 13.5120563 13.5135135 9.72868052 17.8378378 8.10723377 14.0540541 7.02626926 13.5135135 5.40482251 14.5945946 1.62144675 11.8918919 0 14.0540541 0 16.2162162 2.161929 18.3783784 5.40482251 18.3783784 4.86434026 17.8378378 3.78337576 17.8378378 3.78337576 16.2162162"></polyline>
                    <polyline id="Path-8" stroke-linecap="round" stroke-linejoin="round" points="21.61929 2.7027027 27.0241126 3.78378378 27.0241126 4.86486486 27.5645948 6.48648649 29.7265238 6.48648649 30.8074883 8.10810811 33.5098996 8.10810811 34.5908641 7.56756757 35.1313463 6.48648649 32.9694173 4.86486486 30.8074883 3.78378378 28.6455593 3.78378378 28.1050771 3.24324324 27.5645948 3.24324324"></polyline>
                    <line x1="34.5908641" y1="7.56756757" x2="29.7265238" y2="6.48648649" id="Path-9" stroke-linecap="round" stroke-linejoin="round"></line>
                    <line x1="27.0241126" y1="3.78378378" x2="27.5645948" y2="3.24324324" id="Path-10" stroke-linecap="round" stroke-linejoin="round"></line>
                    <polyline id="Path-11" stroke-linecap="round" stroke-linejoin="round" points="27.5645948 6.48648649 26.4836303 7.02702703 27.5645948 9.72972973 24.3217013 9.72972973 22.7002545 9.18918919 21.61929 5.94594595 26.4836303 7.02702703"></polyline>
                    <line x1="30.8074883" y1="8.10810811" x2="27.5645948" y2="9.72972973" id="Path-12" stroke-linecap="round" stroke-linejoin="round"></line>
                    <line x1="28.6455593" y1="3.78378378" x2="27.0241126" y2="4.86486486" id="Path-13" stroke-linecap="round" stroke-linejoin="round"></line>
                    <polyline id="Path-14" stroke-linecap="round" stroke-linejoin="round" points="24.3217013 9.72972973 20.5383255 12.4324324 19.457361 15.1351351 19.457361 18.3783784 21.61929 18.9189189 21.61929 20 17.8359143 19.4594595 16.2144675 16.7567568 15.6739853 11.8918919"></polyline>
                    <polyline id="Path-15" stroke-linecap="round" stroke-linejoin="round" points="13.5120563 13.5135135 13.5120563 16.7567568 15.6739853 18.9189189 16.7549498 18.9189189 17.295432 19.4594595 10.2691628 19.4594595 9.72868052 17.8378378"></polyline>
                    <polyline id="Path-16" stroke-linecap="round" stroke-linejoin="round" points="5.40482251 14.5945946 3.78337576 16.2162162 0 14.0540541"></polyline>
                    <polyline id="Path-17" stroke-linecap="round" stroke-linejoin="round" points="20.5383255 12.4324324 21.61929 15.6756757 20.5383255 17.8378378 22.1597723 18.3783784 22.7002545 18.9189189 21.61929 18.9189189"></polyline>
                    <polyline id="Path-18" stroke-linecap="round" stroke-linejoin="round" points="17.8359143 19.4594595 19.457361 18.3783784 16.2144675 16.7567568 19.457361 15.1351351 15.6739853 11.8918919 20.5383255 12.4324324"></polyline>
                    <polyline id="Path-19" stroke-linecap="round" stroke-linejoin="round" points="9.72868052 17.8378378 13.5120563 16.7567568 10.2691628 19.4594595"></polyline>
                    <polyline id="Path-20" stroke-linecap="round" stroke-linejoin="round" points="0 16.2162162 3.78337576 16.2162162 2.161929 18.3783784"></polyline>
                    <polyline id="Path-21" points="5.40482251 1.62162162 10.2691628 4.86486486 2.70241126 3.78378378"></polyline>
                </g>
            </g>
        </g>
    </g>
</svg>