<?xml version="1.0" encoding="UTF-8"?>
<svg width="134px" height="24px" viewBox="0 0 134 24" version="1.1" xmlns="http://www.w3.org/2000/svg" xmlns:xlink="http://www.w3.org/1999/xlink">
    <title>logo</title>
    <g id="Page-1" stroke="none" stroke-width="1" fill="none" fill-rule="evenodd">
        <g id="Angular-Material" transform="translate(-8.000000, -20.000000)">
            <g id="logo" transform="translate(8.000000, 20.000000)">
                <path d="M32.5939412,20.746575 C33.2472745,20.746575 33.8446078,20.6579083 34.3859412,20.480575 C34.9272745,20.3032417 35.4289412,20.0489083 35.8909412,19.717575 C36.3529412,19.3862417 36.7822745,18.9849083 37.1789412,18.513575 C37.5756078,18.0422417 37.9512745,17.5079083 38.3059412,16.910575 C38.6512745,16.3319083 38.9849412,15.7439083 39.3069412,15.146575 C39.6289412,14.5492417 39.9602745,14.0079083 40.3009412,13.522575 C40.6416078,13.0372417 41.0009412,12.640575 41.3789412,12.332575 C41.7569412,12.024575 42.1746078,11.870575 42.6319412,11.870575 C42.8746078,11.870575 43.1429412,11.8799083 43.4369412,11.898575 C43.7309412,11.9172417 44.0552745,11.926575 44.4099412,11.926575 C44.7926078,11.926575 45.0726078,11.8752417 45.2499412,11.772575 C45.4272745,11.6699083 45.5159412,11.5439083 45.5159412,11.394575 C45.5159412,11.254575 45.4622745,11.1379083 45.3549412,11.044575 C45.2476078,10.9512417 45.0679412,10.8999083 44.8159412,10.890575 C44.6292745,10.8812417 44.3796078,10.8672417 44.0669412,10.848575 C43.7542745,10.8299083 43.4089412,10.8112417 43.0309412,10.792575 C42.6529412,10.7739083 42.2516078,10.757575 41.8269412,10.743575 C41.4022745,10.729575 40.9846078,10.722575 40.5739412,10.722575 C40.1352745,10.722575 39.6079412,10.7459083 38.9919412,10.792575 C38.3759412,10.8392417 37.7319412,10.918575 37.0599412,11.030575 C36.3879412,11.142575 35.7182745,11.296575 35.0509412,11.492575 C34.3836078,11.688575 33.7862745,11.9359083 33.2589412,12.234575 C32.7316078,12.5332417 32.3046078,12.8902417 31.9779412,13.305575 C31.6512745,13.7209083 31.4879412,14.2039083 31.4879412,14.754575 C31.4879412,15.0999083 31.5532745,15.4009083 31.6839412,15.657575 C31.8146078,15.9142417 31.9849412,16.126575 32.1949412,16.294575 C32.4049412,16.462575 32.6476078,16.588575 32.9229412,16.672575 C33.1982745,16.756575 33.4759412,16.798575 33.7559412,16.798575 C34.2412745,16.798575 34.7056078,16.714575 35.1489412,16.546575 C35.5922745,16.378575 35.9819412,16.154575 36.3179412,15.874575 C36.6539412,15.594575 36.9222745,15.2702417 37.1229412,14.901575 C37.3236078,14.5329083 37.4239412,14.1479083 37.4239412,13.746575 C37.4239412,13.6159083 37.4216078,13.487575 37.4169412,13.361575 C37.4122745,13.235575 37.3959412,13.1072417 37.3679412,12.976575 L37.3679412,12.976575 L37.2139412,12.990575 C37.2419412,13.1959083 37.2559412,13.4012417 37.2559412,13.606575 C37.2559412,14.0359083 37.1509412,14.4139083 36.9409412,14.740575 C36.7309412,15.0672417 36.4602745,15.335575 36.1289412,15.545575 C35.7976078,15.755575 35.4336078,15.9142417 35.0369412,16.021575 C34.6402745,16.1289083 34.2552745,16.182575 33.8819412,16.182575 C33.6299412,16.182575 33.3732745,16.1499083 33.1119412,16.084575 C32.8506078,16.0192417 32.6126078,15.923575 32.3979412,15.797575 C32.1832745,15.671575 32.0059412,15.510575 31.8659412,15.314575 C31.7259412,15.118575 31.6559412,14.894575 31.6559412,14.642575 C31.6559412,14.2599083 31.7632745,13.921575 31.9779412,13.627575 C32.1926078,13.333575 32.4889412,13.0769083 32.8669412,12.857575 C33.2449412,12.6382417 33.6836078,12.451575 34.1829412,12.297575 C34.6822745,12.143575 35.2166078,12.0222417 35.7859412,11.933575 C36.3552745,11.8449083 36.9432745,11.779575 37.5499412,11.737575 C38.1566078,11.695575 38.7492745,11.674575 39.3279412,11.674575 C39.5519412,11.674575 39.7946078,11.6769083 40.0559412,11.681575 C40.3172745,11.6862417 40.5716078,11.6932417 40.8189412,11.702575 C41.0662745,11.7119083 41.2949412,11.723575 41.5049412,11.737575 C41.7149412,11.751575 41.8899412,11.7679083 42.0299412,11.786575 L42.0299412,11.786575 L42.0299412,11.814575 C41.4326078,11.9919083 40.9192745,12.199575 40.4899412,12.437575 C40.0606078,12.675575 39.6756078,12.9579083 39.3349412,13.284575 C38.9942745,13.6112417 38.6769412,13.991575 38.3829412,14.425575 C38.0889412,14.859575 37.7786078,15.3612417 37.4519412,15.930575 C37.1626078,16.434575 36.8616078,16.9619083 36.5489412,17.512575 C36.2362745,18.0632417 35.8909412,18.5649083 35.5129412,19.017575 C35.1349412,19.4702417 34.7126078,19.843575 34.2459412,20.137575 C33.7792745,20.431575 33.2426078,20.578575 32.6359412,20.578575 C32.0106078,20.578575 31.5509412,20.4642417 31.2569412,20.235575 C30.9629412,20.0069083 30.7972745,19.6592417 30.7599412,19.192575 C30.9186078,19.1459083 31.0469412,19.0712417 31.1449412,18.968575 C31.2429412,18.8659083 31.2919412,18.7212417 31.2919412,18.534575 C31.2919412,18.338575 31.2336078,18.184575 31.1169412,18.072575 C31.0002745,17.960575 30.8252745,17.904575 30.5919412,17.904575 C30.3212745,17.904575 30.1042745,17.9979083 29.9409412,18.184575 C29.7776078,18.3712417 29.6959412,18.5952417 29.6959412,18.856575 C29.6959412,19.220575 29.7939412,19.5239083 29.9899412,19.766575 C30.1859412,20.0092417 30.4286078,20.2029083 30.7179412,20.347575 C31.0072745,20.4922417 31.3199412,20.5949083 31.6559412,20.655575 C31.9919412,20.7162417 32.3046078,20.746575 32.5939412,20.746575 Z M44.3168824,20.746575 C44.6902157,20.746575 45.0542157,20.634575 45.4088824,20.410575 C45.763549,20.186575 46.1928824,19.8132417 46.6968824,19.290575 C47.0702157,18.9079083 47.4272157,18.5112417 47.7678824,18.100575 C48.108549,17.6899083 48.4002157,17.3259083 48.6428824,17.008575 L48.6428824,17.008575 L48.5588824,16.924575 C48.4562157,17.064575 48.311549,17.2512417 48.1248824,17.484575 C47.9382157,17.7179083 47.7258824,17.967575 47.4878824,18.233575 C47.2498824,18.499575 47.002549,18.7679083 46.7458824,19.038575 C46.4892157,19.3092417 46.2372157,19.5519083 45.9898824,19.766575 C45.742549,19.9812417 45.511549,20.1562417 45.2968824,20.291575 C45.0822157,20.4269083 44.9048824,20.494575 44.7648824,20.494575 C44.5688824,20.494575 44.4708824,20.382575 44.4708824,20.158575 C44.4708824,19.934575 44.573549,19.6592417 44.7788824,19.332575 C44.9842157,19.0059083 45.2082157,18.6652417 45.4508824,18.310575 C45.693549,17.9559083 45.917549,17.6082417 46.1228824,17.267575 C46.3282157,16.9269083 46.4308824,16.630575 46.4308824,16.378575 C46.4308824,16.070575 46.3468824,15.839575 46.1788824,15.685575 C46.0108824,15.531575 45.777549,15.454575 45.4788824,15.454575 C45.1148824,15.454575 44.7648824,15.552575 44.4288824,15.748575 C44.0928824,15.944575 43.7732157,16.1849083 43.4698824,16.469575 C43.166549,16.7542417 42.886549,17.057575 42.6298824,17.379575 C42.3732157,17.701575 42.1422157,17.9839083 41.9368824,18.226575 L41.9368824,18.226575 L41.9088824,18.198575 L46.5568824,10.862575 L45.0308824,10.932575 L39.1648824,20.606575 L40.6068824,20.564575 C40.7282157,20.3312417 40.8892157,20.0512417 41.0898824,19.724575 C41.290549,19.3979083 41.5192157,19.059575 41.7758824,18.709575 C42.032549,18.359575 42.3032157,18.009575 42.5878824,17.659575 C42.872549,17.309575 43.1572157,16.9969083 43.4418824,16.721575 C43.726549,16.4462417 43.9972157,16.2222417 44.2538824,16.049575 C44.510549,15.8769083 44.741549,15.790575 44.9468824,15.790575 C45.0402157,15.790575 45.1242157,15.825575 45.1988824,15.895575 C45.273549,15.965575 45.3108824,16.0659083 45.3108824,16.196575 C45.3108824,16.4019083 45.2082157,16.644575 45.0028824,16.924575 C44.797549,17.204575 44.573549,17.5032417 44.3308824,17.820575 C44.0882157,18.1379083 43.8642157,18.4622417 43.6588824,18.793575 C43.453549,19.1249083 43.3508824,19.4539083 43.3508824,19.780575 C43.3508824,20.032575 43.4278824,20.256575 43.5818824,20.452575 C43.7358824,20.648575 43.9808824,20.746575 44.3168824,20.746575 Z M48.8718235,20.830575 C49.3944902,20.830575 49.9521569,20.7209083 50.5448235,20.501575 C51.1374902,20.2822417 51.7558235,19.8832417 52.3998235,19.304575 C52.8571569,18.884575 53.2514902,18.4832417 53.5828235,18.100575 C53.9141569,17.7179083 54.2244902,17.330575 54.5138235,16.938575 L54.5138235,16.938575 L54.4158235,16.840575 C54.1638235,17.1672417 53.8698235,17.519575 53.5338235,17.897575 C53.1978235,18.275575 52.8478235,18.6372417 52.4838235,18.982575 C52.0078235,19.430575 51.5341569,19.7712417 51.0628235,20.004575 C50.5914902,20.2379083 50.1598235,20.354575 49.7678235,20.354575 C49.3664902,20.354575 49.0538235,20.228575 48.8298235,19.976575 C48.6058235,19.724575 48.4938235,19.3979083 48.4938235,18.996575 C48.4938235,18.8472417 48.5171569,18.6792417 48.5638235,18.492575 C48.7318235,18.4552417 48.9464902,18.408575 49.2078235,18.352575 C49.4691569,18.296575 49.7491569,18.226575 50.0478235,18.142575 C50.3464902,18.058575 50.6474902,17.960575 50.9508235,17.848575 C51.2541569,17.736575 51.5271569,17.6059083 51.7698235,17.456575 C52.0124902,17.3072417 52.2108235,17.1392417 52.3648235,16.952575 C52.5188235,16.7659083 52.5958235,16.560575 52.5958235,16.336575 C52.5958235,16.056575 52.4838235,15.839575 52.2598235,15.685575 C52.0358235,15.531575 51.7231569,15.454575 51.3218235,15.454575 C50.8831569,15.454575 50.4188235,15.5619083 49.9288235,15.776575 C49.4388235,15.9912417 48.9884902,16.2712417 48.5778235,16.616575 C48.1671569,16.9619083 47.8264902,17.3539083 47.5558235,17.792575 C47.2851569,18.2312417 47.1498235,18.674575 47.1498235,19.122575 C47.1498235,19.626575 47.3038235,20.0372417 47.6118235,20.354575 C47.9198235,20.6719083 48.3398235,20.830575 48.8718235,20.830575 Z M48.5918235,18.352575 C48.6478235,18.1192417 48.7668235,17.8462417 48.9488235,17.533575 C49.1308235,17.2209083 49.3408235,16.9222417 49.5788235,16.637575 C49.8168235,16.3529083 50.0711569,16.112575 50.3418235,15.916575 C50.6124902,15.720575 50.8644902,15.622575 51.0978235,15.622575 C51.2098235,15.622575 51.3008235,15.650575 51.3708235,15.706575 C51.4408235,15.762575 51.4758235,15.8559083 51.4758235,15.986575 C51.4758235,16.210575 51.3964902,16.4462417 51.2378235,16.693575 C51.0791569,16.9409083 50.8668235,17.1742417 50.6008235,17.393575 C50.3348235,17.6129083 50.0291569,17.8089083 49.6838235,17.981575 C49.3384902,18.1542417 48.9744902,18.2779083 48.5918235,18.352575 Z M60.3477059,20.830575 C60.8517059,20.830575 61.3370392,20.7419083 61.8037059,20.564575 C62.2703725,20.3872417 62.7113725,20.1539083 63.1267059,19.864575 C63.5420392,19.5752417 63.9317059,19.2462417 64.2957059,18.877575 C64.6597059,18.5089083 64.9910392,18.1379083 65.2897059,17.764575 C65.6443725,17.8952417 66.0410392,17.960575 66.4797059,17.960575 C66.8623725,17.960575 67.2613725,17.8719083 67.6767059,17.694575 C68.0920392,17.5172417 68.4817059,17.2652417 68.8457059,16.938575 L68.8457059,16.938575 L68.7617059,16.840575 C68.6403725,16.952575 68.4933725,17.064575 68.3207059,17.176575 C68.1480392,17.288575 67.9590392,17.3912417 67.7537059,17.484575 C67.5483725,17.5779083 67.3360392,17.652575 67.1167059,17.708575 C66.8973725,17.764575 66.6757059,17.792575 66.4517059,17.792575 C66.2650392,17.792575 66.0853725,17.7832417 65.9127059,17.764575 C65.7400392,17.7459083 65.5743725,17.6992417 65.4157059,17.624575 C65.6490392,17.3072417 65.8823725,16.9502417 66.1157059,16.553575 C66.3490392,16.1569083 66.5590392,15.7462417 66.7457059,15.321575 C66.9323725,14.8969083 67.0840392,14.4629083 67.2007059,14.019575 C67.3173725,13.5762417 67.3757059,13.1492417 67.3757059,12.738575 C67.3757059,12.0852417 67.2427059,11.548575 66.9767059,11.128575 C66.7107059,10.708575 66.2977059,10.498575 65.7377059,10.498575 C65.5137059,10.498575 65.2780392,10.5359083 65.0307059,10.610575 C64.7833725,10.6852417 64.5103725,10.862575 64.2117059,11.142575 C63.6890392,11.1892417 63.1687059,11.3292417 62.6507059,11.562575 C62.1327059,11.7959083 61.6403725,12.0899083 61.1737059,12.444575 C60.7070392,12.7992417 60.2730392,13.207575 59.8717059,13.669575 C59.4703725,14.131575 59.1227059,14.6169083 58.8287059,15.125575 C58.5347059,15.6342417 58.3060392,16.1592417 58.1427059,16.700575 C57.9793725,17.2419083 57.8977059,17.7692417 57.8977059,18.282575 C57.8977059,18.618575 57.9373725,18.9382417 58.0167059,19.241575 C58.0960392,19.5449083 58.2313725,19.815575 58.4227059,20.053575 C58.6140392,20.291575 58.8660392,20.480575 59.1787059,20.620575 C59.4913725,20.760575 59.8810392,20.830575 60.3477059,20.830575 Z M64.8697059,17.372575 C64.5897059,17.2139083 64.3587059,17.0039083 64.1767059,16.742575 C63.9947059,16.4812417 63.8477059,16.1942417 63.7357059,15.881575 C63.6237059,15.5689083 63.5443725,15.244575 63.4977059,14.908575 C63.4510392,14.572575 63.4277059,14.250575 63.4277059,13.942575 C63.4277059,13.7279083 63.4440392,13.4969083 63.4767059,13.249575 C63.5093725,13.0022417 63.5607059,12.759575 63.6307059,12.521575 C63.7007059,12.283575 63.7870392,12.059575 63.8897059,11.849575 C63.9923725,11.639575 64.1137059,11.4599083 64.2537059,11.310575 C64.4590392,11.3012417 64.6293725,11.3222417 64.7647059,11.373575 C64.9000392,11.4249083 65.0097059,11.4949083 65.0937059,11.583575 C65.1777059,11.6722417 65.2383725,11.779575 65.2757059,11.905575 C65.3130392,12.031575 65.3317059,12.1599083 65.3317059,12.290575 C65.3317059,12.374575 65.3270392,12.4679083 65.3177059,12.570575 C65.3083725,12.6732417 65.2943725,12.752575 65.2757059,12.808575 L65.2757059,12.808575 L65.4297059,12.822575 C65.4483725,12.7479083 65.4647059,12.6709083 65.4787059,12.591575 C65.4927059,12.5122417 65.4997059,12.416575 65.4997059,12.304575 C65.4997059,12.164575 65.4810392,12.024575 65.4437059,11.884575 C65.4063725,11.744575 65.3457059,11.6209083 65.2617059,11.513575 C65.1777059,11.4062417 65.0657059,11.3199083 64.9257059,11.254575 C64.7857059,11.1892417 64.6130392,11.1519083 64.4077059,11.142575 C64.5010392,11.0492417 64.6083725,10.974575 64.7297059,10.918575 C64.8510392,10.862575 64.9957059,10.834575 65.1637059,10.834575 C65.3690392,10.834575 65.5417059,10.8812417 65.6817059,10.974575 C65.8217059,11.0679083 65.9337059,11.1962417 66.0177059,11.359575 C66.1017059,11.5229083 66.1623725,11.7119083 66.1997059,11.926575 C66.2370392,12.1412417 66.2557059,12.3699083 66.2557059,12.612575 C66.2557059,12.9952417 66.2230392,13.3942417 66.1577059,13.809575 C66.0923725,14.2249083 65.9990392,14.6402417 65.8777059,15.055575 C65.7563725,15.4709083 65.6093725,15.8769083 65.4367059,16.273575 C65.2640392,16.6702417 65.0750392,17.036575 64.8697059,17.372575 Z M60.7397059,20.578575 C60.4690392,20.578575 60.2427059,20.5179083 60.0607059,20.396575 C59.8787059,20.2752417 59.7340392,20.1142417 59.6267059,19.913575 C59.5193725,19.7129083 59.4423725,19.4819083 59.3957059,19.220575 C59.3490392,18.9592417 59.3257059,18.688575 59.3257059,18.408575 C59.3257059,17.9699083 59.3770392,17.505575 59.4797059,17.015575 C59.5823725,16.525575 59.7293725,16.0332417 59.9207059,15.538575 C60.1120392,15.0439083 60.3453725,14.5632417 60.6207059,14.096575 C60.8960392,13.6299083 61.2087059,13.207575 61.5587059,12.829575 C61.9087059,12.451575 62.2890392,12.129575 62.6997059,11.863575 C63.1103725,11.597575 63.5490392,11.4179083 64.0157059,11.324575 L64.0157059,11.324575 L64.0437059,11.352575 C63.6797059,11.744575 63.3927059,12.1949083 63.1827059,12.703575 C62.9727059,13.2122417 62.8677059,13.7372417 62.8677059,14.278575 C62.8677059,14.614575 62.9120392,14.943575 63.0007059,15.265575 C63.0893725,15.587575 63.2153725,15.8909083 63.3787059,16.175575 C63.5420392,16.4602417 63.7403725,16.7169083 63.9737059,16.945575 C64.2070392,17.1742417 64.4683725,17.3679083 64.7577059,17.526575 C64.5803725,17.8439083 64.3493725,18.1822417 64.0647059,18.541575 C63.7800392,18.9009083 63.4580392,19.2299083 63.0987059,19.528575 C62.7393725,19.8272417 62.3590392,20.0769083 61.9577059,20.277575 C61.5563725,20.4782417 61.1503725,20.578575 60.7397059,20.578575 Z M69.0746471,20.830575 C69.6626471,20.830575 70.2203137,20.7092417 70.7476471,20.466575 C71.2749804,20.2239083 71.7696471,19.9159083 72.2316471,19.542575 C72.6936471,19.1692417 73.1253137,18.7562417 73.5266471,18.303575 C73.9279804,17.8509083 74.3013137,17.414575 74.6466471,16.994575 L74.6466471,16.994575 L74.5206471,16.938575 C74.2873137,17.218575 74.0026471,17.5522417 73.6666471,17.939575 C73.3306471,18.3269083 72.9596471,18.7002417 72.5536471,19.059575 C72.1476471,19.4189083 71.7183137,19.724575 71.2656471,19.976575 C70.8129804,20.228575 70.3579804,20.354575 69.9006471,20.354575 C69.5179804,20.354575 69.2193137,20.2309083 69.0046471,19.983575 C68.7899804,19.7362417 68.6826471,19.4352417 68.6826471,19.080575 C68.6826471,18.632575 68.7759804,18.2009083 68.9626471,17.785575 C69.1493137,17.3702417 69.3779804,17.001575 69.6486471,16.679575 C69.9193137,16.357575 70.2086471,16.1009083 70.5166471,15.909575 C70.8246471,15.7182417 71.0999804,15.622575 71.3426471,15.622575 C71.4733137,15.622575 71.5759804,15.6692417 71.6506471,15.762575 C71.7253137,15.8559083 71.7626471,15.9819083 71.7626471,16.140575 C71.7626471,16.364575 71.7253137,16.588575 71.6506471,16.812575 C71.5759804,17.036575 71.5059804,17.2559083 71.4406471,17.470575 C71.5339804,17.4892417 71.6413137,17.498575 71.7626471,17.498575 C71.9026471,17.498575 72.0426471,17.4729083 72.1826471,17.421575 C72.3226471,17.3702417 72.4486471,17.295575 72.5606471,17.197575 C72.6726471,17.099575 72.7636471,16.9782417 72.8336471,16.833575 C72.9036471,16.6889083 72.9386471,16.5279083 72.9386471,16.350575 C72.9386471,16.098575 72.8126471,15.8862417 72.5606471,15.713575 C72.3086471,15.5409083 71.9679804,15.454575 71.5386471,15.454575 C71.0719804,15.454575 70.5913137,15.5572417 70.0966471,15.762575 C69.6019804,15.9679083 69.1493137,16.238575 68.7386471,16.574575 C68.3279804,16.910575 67.9919804,17.2932417 67.7306471,17.722575 C67.4693137,18.1519083 67.3386471,18.590575 67.3386471,19.038575 C67.3386471,19.626575 67.4879804,20.0722417 67.7866471,20.375575 C68.0853137,20.6789083 68.5146471,20.830575 69.0746471,20.830575 Z M74.8055882,20.830575 C75.3282549,20.830575 75.8859216,20.7209083 76.4785882,20.501575 C77.0712549,20.2822417 77.6895882,19.8832417 78.3335882,19.304575 C78.7909216,18.884575 79.1852549,18.4832417 79.5165882,18.100575 C79.8479216,17.7179083 80.1582549,17.330575 80.4475882,16.938575 L80.4475882,16.938575 L80.3495882,16.840575 C80.0975882,17.1672417 79.8035882,17.519575 79.4675882,17.897575 C79.1315882,18.275575 78.7815882,18.6372417 78.4175882,18.982575 C77.9415882,19.430575 77.4679216,19.7712417 76.9965882,20.004575 C76.5252549,20.2379083 76.0935882,20.354575 75.7015882,20.354575 C75.3002549,20.354575 74.9875882,20.228575 74.7635882,19.976575 C74.5395882,19.724575 74.4275882,19.3979083 74.4275882,18.996575 C74.4275882,18.8472417 74.4509216,18.6792417 74.4975882,18.492575 C74.6655882,18.4552417 74.8802549,18.408575 75.1415882,18.352575 C75.4029216,18.296575 75.6829216,18.226575 75.9815882,18.142575 C76.2802549,18.058575 76.5812549,17.960575 76.8845882,17.848575 C77.1879216,17.736575 77.4609216,17.6059083 77.7035882,17.456575 C77.9462549,17.3072417 78.1445882,17.1392417 78.2985882,16.952575 C78.4525882,16.7659083 78.5295882,16.560575 78.5295882,16.336575 C78.5295882,16.056575 78.4175882,15.839575 78.1935882,15.685575 C77.9695882,15.531575 77.6569216,15.454575 77.2555882,15.454575 C76.8169216,15.454575 76.3525882,15.5619083 75.8625882,15.776575 C75.3725882,15.9912417 74.9222549,16.2712417 74.5115882,16.616575 C74.1009216,16.9619083 73.7602549,17.3539083 73.4895882,17.792575 C73.2189216,18.2312417 73.0835882,18.674575 73.0835882,19.122575 C73.0835882,19.626575 73.2375882,20.0372417 73.5455882,20.354575 C73.8535882,20.6719083 74.2735882,20.830575 74.8055882,20.830575 Z M74.5255882,18.352575 C74.5815882,18.1192417 74.7005882,17.8462417 74.8825882,17.533575 C75.0645882,17.2209083 75.2745882,16.9222417 75.5125882,16.637575 C75.7505882,16.3529083 76.0049216,16.112575 76.2755882,15.916575 C76.5462549,15.720575 76.7982549,15.622575 77.0315882,15.622575 C77.1435882,15.622575 77.2345882,15.650575 77.3045882,15.706575 C77.3745882,15.762575 77.4095882,15.8559083 77.4095882,15.986575 C77.4095882,16.210575 77.3302549,16.4462417 77.1715882,16.693575 C77.0129216,16.9409083 76.8005882,17.1742417 76.5345882,17.393575 C76.2685882,17.6129083 75.9629216,17.8089083 75.6175882,17.981575 C75.2722549,18.1542417 74.9082549,18.2779083 74.5255882,18.352575 Z M83.1825294,20.830575 C83.6118627,20.830575 84.0435294,20.6882417 84.4775294,20.403575 C84.9115294,20.1189083 85.3525294,19.752575 85.8005294,19.304575 C86.2485294,18.856575 86.6311961,18.4342417 86.9485294,18.037575 C87.2658627,17.6409083 87.5458627,17.2792417 87.7885294,16.952575 L87.7885294,16.952575 L87.6905294,16.896575 C87.6065294,17.008575 87.4945294,17.1509083 87.3545294,17.323575 C87.2145294,17.4962417 87.0605294,17.6829083 86.8925294,17.883575 C86.7245294,18.0842417 86.5495294,18.2872417 86.3675294,18.492575 C86.1855294,18.6979083 86.0058627,18.8892417 85.8285294,19.066575 C85.4085294,19.4959083 85.0071961,19.8412417 84.6245294,20.102575 C84.2418627,20.3639083 83.9385294,20.494575 83.7145294,20.494575 C83.4811961,20.494575 83.3645294,20.3779083 83.3645294,20.144575 C83.3645294,19.976575 83.4135294,19.773575 83.5115294,19.535575 C83.6095294,19.297575 83.7378627,19.0409083 83.8965294,18.765575 C84.0551961,18.4902417 84.2301961,18.205575 84.4215294,17.911575 C84.6128627,17.617575 84.8018627,17.3329083 84.9885294,17.057575 C85.1751961,16.7822417 85.3478627,16.525575 85.5065294,16.287575 C85.6651961,16.049575 85.7865294,15.846575 85.8705294,15.678575 L85.8705294,15.678575 L84.4145294,15.762575 L84.0645294,16.322575 C83.9431961,16.0239083 83.7891961,15.804575 83.6025294,15.664575 C83.4158627,15.524575 83.1591961,15.454575 82.8325294,15.454575 C82.4031961,15.454575 81.9528627,15.5689083 81.4815294,15.797575 C81.0101961,16.0262417 80.5831961,16.3249083 80.2005294,16.693575 C79.8178627,17.0622417 79.5005294,17.4752417 79.2485294,17.932575 C78.9965294,18.3899083 78.8705294,18.8472417 78.8705294,19.304575 C78.8705294,19.500575 78.8938627,19.689575 78.9405294,19.871575 C78.9871961,20.053575 79.0595294,20.2169083 79.1575294,20.361575 C79.2555294,20.5062417 79.3838627,20.620575 79.5425294,20.704575 C79.7011961,20.788575 79.8925294,20.830575 80.1165294,20.830575 C80.5365294,20.830575 80.9285294,20.718575 81.2925294,20.494575 C81.6565294,20.270575 81.9831961,19.9952417 82.2725294,19.668575 L82.2725294,19.668575 L82.3005294,19.668575 C82.2818627,19.7059083 82.2678627,19.7572417 82.2585294,19.822575 C82.2491961,19.8879083 82.2445294,19.9579083 82.2445294,20.032575 C82.2445294,20.256575 82.3261961,20.445575 82.4895294,20.599575 C82.6528627,20.753575 82.8838627,20.830575 83.1825294,20.830575 Z M80.9145294,20.354575 C80.6251961,20.354575 80.4361961,20.2542417 80.3475294,20.053575 C80.2588627,19.8529083 80.2145294,19.6172417 80.2145294,19.346575 C80.2145294,19.1599083 80.2518627,18.9382417 80.3265294,18.681575 C80.4011961,18.4249083 80.5038627,18.156575 80.6345294,17.876575 C80.7651961,17.596575 80.9215294,17.323575 81.1035294,17.057575 C81.2855294,16.791575 81.4768627,16.5512417 81.6775294,16.336575 C81.8781961,16.1219083 82.0881961,15.9492417 82.3075294,15.818575 C82.5268627,15.6879083 82.7438627,15.622575 82.9585294,15.622575 C83.2291961,15.622575 83.4111961,15.692575 83.5045294,15.832575 C83.5978627,15.972575 83.6445294,16.168575 83.6445294,16.420575 C83.6445294,16.5979083 83.6048627,16.8149083 83.5255294,17.071575 C83.4461961,17.3282417 83.3388627,17.6012417 83.2035294,17.890575 C83.0681961,18.1799083 82.9095294,18.4669083 82.7275294,18.751575 C82.5455294,19.0362417 82.3541961,19.2952417 82.1535294,19.528575 C81.9528627,19.7619083 81.7451961,19.955575 81.5305294,20.109575 C81.3158627,20.263575 81.1105294,20.3452417 80.9145294,20.354575 Z M90.3134706,20.746575 C90.6774706,20.746575 91.0298039,20.6392417 91.3704706,20.424575 C91.7111373,20.2099083 92.1241373,19.8459083 92.6094706,19.332575 C93.0108039,18.912575 93.3888039,18.4879083 93.7434706,18.058575 C93.9208039,17.8439083 94.0841373,17.6467417 94.2334706,17.467075 L94.5134706,17.131075 L94.5134706,17.131075 L94.6394706,16.980575 L94.4994706,16.910575 C94.3314706,17.1159083 94.0794706,17.421575 93.7434706,17.827575 C93.4074706,18.233575 93.0388039,18.6512417 92.6374706,19.080575 C92.1241373,19.6219083 91.7158039,19.9929083 91.4124706,20.193575 C91.1091373,20.3942417 90.8921373,20.494575 90.7614706,20.494575 C90.6308039,20.494575 90.5374706,20.459575 90.4814706,20.389575 C90.4254706,20.319575 90.3974706,20.228575 90.3974706,20.116575 C90.3974706,19.8552417 90.4978039,19.5729083 90.6984706,19.269575 C90.8991373,18.9662417 91.1208039,18.6489083 91.3634706,18.317575 C91.6061373,17.9862417 91.8278039,17.6549083 92.0284706,17.323575 C92.2291373,16.9922417 92.3294706,16.6679083 92.3294706,16.350575 C92.3294706,16.098575 92.2501373,15.8862417 92.0914706,15.713575 C91.9328039,15.5409083 91.6994706,15.454575 91.3914706,15.454575 C91.0274706,15.454575 90.6634706,15.566575 90.2994706,15.790575 C89.9354706,16.014575 89.5948039,16.2759083 89.2774706,16.574575 C88.9601373,16.8732417 88.6778039,17.176575 88.4304706,17.484575 C88.1831373,17.792575 87.9941373,18.030575 87.8634706,18.198575 L87.8634706,18.198575 L87.8354706,18.170575 L89.6554706,15.622575 L88.0594706,15.678575 C87.5741373,16.5279083 87.0818039,17.3562417 86.5824706,18.163575 C86.0831373,18.9709083 85.5861373,19.7852417 85.0914706,20.606575 L85.0914706,20.606575 L86.5054706,20.564575 C86.6268039,20.3312417 86.7901373,20.0512417 86.9954706,19.724575 C87.2008039,19.3979083 87.4318039,19.059575 87.6884706,18.709575 C87.9451373,18.359575 88.2181373,18.009575 88.5074706,17.659575 C88.7968039,17.309575 89.0814706,16.9969083 89.3614706,16.721575 C89.6414706,16.4462417 89.9074706,16.2222417 90.1594706,16.049575 C90.4114706,15.8769083 90.6308039,15.790575 90.8174706,15.790575 C90.9481373,15.790575 91.0461373,15.8232417 91.1114706,15.888575 C91.1768039,15.9539083 91.2094706,16.0379083 91.2094706,16.140575 C91.2094706,16.3552417 91.1091373,16.6072417 90.9084706,16.896575 C90.7078039,17.1859083 90.4861373,17.491575 90.2434706,17.813575 C90.0008039,18.135575 89.7791373,18.464575 89.5784706,18.800575 C89.3778039,19.136575 89.2774706,19.4632417 89.2774706,19.780575 C89.2774706,20.032575 89.3614706,20.256575 89.5294706,20.452575 C89.6974706,20.648575 89.9588039,20.746575 90.3134706,20.746575 Z M103.609353,20.830575 C104.38402,20.830575 105.074686,20.739575 105.681353,20.557575 C106.28802,20.375575 106.843353,20.116575 107.347353,19.780575 C107.851353,19.444575 108.313353,19.0409083 108.733353,18.569575 C109.153353,18.0982417 109.554686,17.5779083 109.937353,17.008575 L109.937353,17.008575 L109.839353,16.952575 C108.943353,18.2032417 107.89102,19.1202417 106.682353,19.703575 C105.473686,20.2869083 104.141353,20.578575 102.685353,20.578575 C102.53602,20.578575 102.365686,20.571575 102.174353,20.557575 C101.98302,20.543575 101.789353,20.522575 101.593353,20.494575 C101.397353,20.466575 101.203686,20.4362417 101.012353,20.403575 C100.82102,20.3709083 100.655353,20.340575 100.515353,20.312575 L100.515353,20.312575 L100.515353,20.284575 C101.271353,20.1072417 101.929353,19.8039083 102.489353,19.374575 C103.049353,18.9452417 103.555686,18.4459083 104.008353,17.876575 C104.46102,17.3072417 104.876353,16.6959083 105.254353,16.042575 C105.632353,15.3892417 106.010353,14.7452417 106.388353,14.110575 C106.766353,13.4759083 107.167686,12.8809083 107.592353,12.325575 C108.01702,11.7702417 108.50002,11.3059083 109.041353,10.932575 C109.31202,11.0912417 109.50102,11.303575 109.608353,11.569575 C109.715686,11.835575 109.769353,12.1459083 109.769353,12.500575 C109.769353,12.7899083 109.713353,13.1049083 109.601353,13.445575 C109.489353,13.7862417 109.337686,14.103575 109.146353,14.397575 C108.95502,14.691575 108.740353,14.9389083 108.502353,15.139575 C108.264353,15.3402417 108.019353,15.440575 107.767353,15.440575 C107.64602,15.440575 107.538686,15.4032417 107.445353,15.328575 C107.35202,15.2539083 107.305353,15.1372417 107.305353,14.978575 C107.305353,14.8199083 107.354353,14.6752417 107.452353,14.544575 C107.550353,14.4139083 107.68802,14.3019083 107.865353,14.208575 C107.790686,14.1619083 107.706686,14.124575 107.613353,14.096575 C107.52002,14.068575 107.403353,14.054575 107.263353,14.054575 C107.020686,14.054575 106.831686,14.1222417 106.696353,14.257575 C106.56102,14.3929083 106.493353,14.5539083 106.493353,14.740575 C106.493353,14.9832417 106.61002,15.188575 106.843353,15.356575 C107.076686,15.524575 107.370686,15.608575 107.725353,15.608575 C108.08002,15.608575 108.448686,15.5479083 108.831353,15.426575 C109.21402,15.3052417 109.561686,15.132575 109.874353,14.908575 C110.18702,14.684575 110.443686,14.411575 110.644353,14.089575 C110.84502,13.767575 110.945353,13.4059083 110.945353,13.004575 C110.945353,12.4539083 110.793686,11.9919083 110.490353,11.618575 C110.18702,11.2452417 109.792686,10.9559083 109.307353,10.750575 C109.559353,10.6199083 109.820686,10.5079083 110.091353,10.414575 C110.36202,10.3212417 110.637353,10.2512417 110.917353,10.204575 L110.917353,10.204575 L110.903353,10.092575 C110.604686,10.120575 110.273353,10.1882417 109.909353,10.295575 C109.545353,10.4029083 109.218686,10.512575 108.929353,10.624575 C108.602686,10.5499083 108.285353,10.491575 107.977353,10.449575 C107.669353,10.407575 107.31002,10.386575 106.899353,10.386575 C106.367353,10.386575 105.793353,10.456575 105.177353,10.596575 C104.561353,10.736575 103.95002,10.9302417 103.343353,11.177575 C102.736686,11.4249083 102.153353,11.7189083 101.593353,12.059575 C101.033353,12.4002417 100.538686,12.7782417 100.109353,13.193575 C99.6800196,13.6089083 99.3370196,14.0499083 99.0803529,14.516575 C98.8236863,14.9832417 98.6953529,15.4639083 98.6953529,15.958575 C98.6953529,16.210575 98.7326863,16.4509083 98.8073529,16.679575 C98.8820196,16.9082417 98.9940196,17.113575 99.1433529,17.295575 C99.2926863,17.477575 99.4723529,17.6222417 99.6823529,17.729575 C99.8923529,17.8369083 100.12802,17.890575 100.389353,17.890575 C100.88402,17.890575 101.31802,17.7902417 101.691353,17.589575 C102.064686,17.3889083 102.377353,17.1369083 102.629353,16.833575 C102.881353,16.5302417 103.072686,16.196575 103.203353,15.832575 C103.33402,15.468575 103.399353,15.1279083 103.399353,14.810575 C103.399353,14.6799083 103.39702,14.572575 103.392353,14.488575 C103.387686,14.404575 103.380686,14.3159083 103.371353,14.222575 L103.371353,14.222575 L103.203353,14.222575 C103.22202,14.3252417 103.231353,14.4372417 103.231353,14.558575 L103.231353,14.558575 L103.231353,14.852575 C103.231353,15.0859083 103.18002,15.356575 103.077353,15.664575 C102.974686,15.972575 102.825353,16.266575 102.629353,16.546575 C102.433353,16.826575 102.195353,17.064575 101.915353,17.260575 C101.635353,17.456575 101.31802,17.554575 100.963353,17.554575 C100.748686,17.554575 100.566686,17.5079083 100.417353,17.414575 C100.26802,17.3212417 100.14902,17.197575 100.060353,17.043575 C99.9716863,16.889575 99.9086863,16.7192417 99.8713529,16.532575 C99.8340196,16.3459083 99.8153529,16.1592417 99.8153529,15.972575 C99.8153529,15.412575 99.9273529,14.8899083 100.151353,14.404575 C100.375353,13.9192417 100.676353,13.4759083 101.054353,13.074575 C101.432353,12.6732417 101.86402,12.3162417 102.349353,12.003575 C102.834686,11.6909083 103.338686,11.4272417 103.861353,11.212575 C104.38402,10.9979083 104.904353,10.834575 105.422353,10.722575 C105.940353,10.610575 106.423353,10.554575 106.871353,10.554575 C107.263353,10.554575 107.601686,10.5709083 107.886353,10.603575 C108.17102,10.6362417 108.420686,10.680575 108.635353,10.736575 L108.635353,10.736575 L108.635353,10.764575 C107.81402,11.1659083 107.104686,11.667575 106.507353,12.269575 C105.91002,12.871575 105.380353,13.5132417 104.918353,14.194575 C104.456353,14.8759083 104.043353,15.5619083 103.679353,16.252575 C103.315353,16.9432417 102.951353,17.5732417 102.587353,18.142575 C102.223353,18.7119083 101.838353,19.1902417 101.432353,19.577575 C101.026353,19.9649083 100.552686,20.1959083 100.011353,20.270575 C99.8900196,20.270575 99.7196863,20.2449083 99.5003529,20.193575 C99.2810196,20.1422417 99.0313529,20.088575 98.7513529,20.032575 C98.4713529,19.976575 98.1750196,19.9229083 97.8623529,19.871575 C97.5496863,19.8202417 97.2393529,19.794575 96.9313529,19.794575 C96.4646863,19.794575 96.2313529,19.906575 96.2313529,20.130575 C96.2313529,20.2239083 96.2826863,20.3102417 96.3853529,20.389575 C96.4880196,20.4689083 96.6233529,20.5342417 96.7913529,20.585575 C96.9593529,20.6369083 97.1460196,20.676575 97.3513529,20.704575 C97.5566863,20.732575 97.7573529,20.746575 97.9533529,20.746575 C98.1213529,20.746575 98.3080196,20.7372417 98.5133529,20.718575 C98.7186863,20.6999083 98.9263529,20.6742417 99.1363529,20.641575 C99.3463529,20.6089083 99.5516863,20.5692417 99.7523529,20.522575 C99.9530196,20.4759083 100.12802,20.4292417 100.277353,20.382575 C100.510686,20.4479083 100.769686,20.5062417 101.054353,20.557575 C101.33902,20.6089083 101.630686,20.655575 101.929353,20.697575 C102.22802,20.739575 102.52202,20.7722417 102.811353,20.795575 C103.100686,20.8189083 103.366686,20.830575 103.609353,20.830575 Z M110.180294,20.830575 C110.702961,20.830575 111.260627,20.7209083 111.853294,20.501575 C112.445961,20.2822417 113.064294,19.8832417 113.708294,19.304575 C114.165627,18.884575 114.559961,18.4832417 114.891294,18.100575 C115.222627,17.7179083 115.532961,17.330575 115.822294,16.938575 L115.822294,16.938575 L115.724294,16.840575 C115.472294,17.1672417 115.178294,17.519575 114.842294,17.897575 C114.506294,18.275575 114.156294,18.6372417 113.792294,18.982575 C113.316294,19.430575 112.842627,19.7712417 112.371294,20.004575 C111.899961,20.2379083 111.468294,20.354575 111.076294,20.354575 C110.674961,20.354575 110.362294,20.228575 110.138294,19.976575 C109.914294,19.724575 109.802294,19.3979083 109.802294,18.996575 C109.802294,18.8472417 109.825627,18.6792417 109.872294,18.492575 C110.040294,18.4552417 110.254961,18.408575 110.516294,18.352575 C110.777627,18.296575 111.057627,18.226575 111.356294,18.142575 C111.654961,18.058575 111.955961,17.960575 112.259294,17.848575 C112.562627,17.736575 112.835627,17.6059083 113.078294,17.456575 C113.320961,17.3072417 113.519294,17.1392417 113.673294,16.952575 C113.827294,16.7659083 113.904294,16.560575 113.904294,16.336575 C113.904294,16.056575 113.792294,15.839575 113.568294,15.685575 C113.344294,15.531575 113.031627,15.454575 112.630294,15.454575 C112.191627,15.454575 111.727294,15.5619083 111.237294,15.776575 C110.747294,15.9912417 110.296961,16.2712417 109.886294,16.616575 C109.475627,16.9619083 109.134961,17.3539083 108.864294,17.792575 C108.593627,18.2312417 108.458294,18.674575 108.458294,19.122575 C108.458294,19.626575 108.612294,20.0372417 108.920294,20.354575 C109.228294,20.6719083 109.648294,20.830575 110.180294,20.830575 Z M109.900294,18.352575 C109.956294,18.1192417 110.075294,17.8462417 110.257294,17.533575 C110.439294,17.2209083 110.649294,16.9222417 110.887294,16.637575 C111.125294,16.3529083 111.379627,16.112575 111.650294,15.916575 C111.920961,15.720575 112.172961,15.622575 112.406294,15.622575 C112.518294,15.622575 112.609294,15.650575 112.679294,15.706575 C112.749294,15.762575 112.784294,15.8559083 112.784294,15.986575 C112.784294,16.210575 112.704961,16.4462417 112.546294,16.693575 C112.387627,16.9409083 112.175294,17.1742417 111.909294,17.393575 C111.643294,17.6129083 111.337627,17.8089083 110.992294,17.981575 C110.646961,18.1542417 110.282961,18.2779083 109.900294,18.352575 Z M118.557235,20.830575 C118.986569,20.830575 119.418235,20.6882417 119.852235,20.403575 C120.286235,20.1189083 120.727235,19.752575 121.175235,19.304575 C121.623235,18.856575 122.005902,18.4342417 122.323235,18.037575 C122.640569,17.6409083 122.920569,17.2792417 123.163235,16.952575 L123.163235,16.952575 L123.065235,16.896575 C122.981235,17.008575 122.869235,17.1509083 122.729235,17.323575 C122.589235,17.4962417 122.435235,17.6829083 122.267235,17.883575 C122.099235,18.0842417 121.924235,18.2872417 121.742235,18.492575 C121.560235,18.6979083 121.380569,18.8892417 121.203235,19.066575 C120.783235,19.4959083 120.381902,19.8412417 119.999235,20.102575 C119.616569,20.3639083 119.313235,20.494575 119.089235,20.494575 C118.855902,20.494575 118.739235,20.3779083 118.739235,20.144575 C118.739235,19.976575 118.788235,19.773575 118.886235,19.535575 C118.984235,19.297575 119.112569,19.0409083 119.271235,18.765575 C119.429902,18.4902417 119.604902,18.205575 119.796235,17.911575 C119.987569,17.617575 120.176569,17.3329083 120.363235,17.057575 C120.549902,16.7822417 120.722569,16.525575 120.881235,16.287575 C121.039902,16.049575 121.161235,15.846575 121.245235,15.678575 L121.245235,15.678575 L119.789235,15.762575 L119.439235,16.322575 C119.317902,16.0239083 119.163902,15.804575 118.977235,15.664575 C118.790569,15.524575 118.533902,15.454575 118.207235,15.454575 C117.777902,15.454575 117.327569,15.5689083 116.856235,15.797575 C116.384902,16.0262417 115.957902,16.3249083 115.575235,16.693575 C115.192569,17.0622417 114.875235,17.4752417 114.623235,17.932575 C114.371235,18.3899083 114.245235,18.8472417 114.245235,19.304575 C114.245235,19.500575 114.268569,19.689575 114.315235,19.871575 C114.361902,20.053575 114.434235,20.2169083 114.532235,20.361575 C114.630235,20.5062417 114.758569,20.620575 114.917235,20.704575 C115.075902,20.788575 115.267235,20.830575 115.491235,20.830575 C115.911235,20.830575 116.303235,20.718575 116.667235,20.494575 C117.031235,20.270575 117.357902,19.9952417 117.647235,19.668575 L117.647235,19.668575 L117.675235,19.668575 C117.656569,19.7059083 117.642569,19.7572417 117.633235,19.822575 C117.623902,19.8879083 117.619235,19.9579083 117.619235,20.032575 C117.619235,20.256575 117.700902,20.445575 117.864235,20.599575 C118.027569,20.753575 118.258569,20.830575 118.557235,20.830575 Z M116.289235,20.354575 C115.999902,20.354575 115.810902,20.2542417 115.722235,20.053575 C115.633569,19.8529083 115.589235,19.6172417 115.589235,19.346575 C115.589235,19.1599083 115.626569,18.9382417 115.701235,18.681575 C115.775902,18.4249083 115.878569,18.156575 116.009235,17.876575 C116.139902,17.596575 116.296235,17.323575 116.478235,17.057575 C116.660235,16.791575 116.851569,16.5512417 117.052235,16.336575 C117.252902,16.1219083 117.462902,15.9492417 117.682235,15.818575 C117.901569,15.6879083 118.118569,15.622575 118.333235,15.622575 C118.603902,15.622575 118.785902,15.692575 118.879235,15.832575 C118.972569,15.972575 119.019235,16.168575 119.019235,16.420575 C119.019235,16.5979083 118.979569,16.8149083 118.900235,17.071575 C118.820902,17.3282417 118.713569,17.6012417 118.578235,17.890575 C118.442902,18.1799083 118.284235,18.4669083 118.102235,18.751575 C117.920235,19.0362417 117.728902,19.2952417 117.528235,19.528575 C117.327569,19.7619083 117.119902,19.955575 116.905235,20.109575 C116.690569,20.263575 116.485235,20.3452417 116.289235,20.354575 Z M120.494176,20.606575 L121.908176,20.564575 C122.11351,20.1819083 122.34451,19.787575 122.601176,19.381575 C122.857843,18.975575 123.137843,18.5812417 123.441176,18.198575 C123.74451,17.8159083 124.07351,17.4519083 124.428176,17.106575 C124.782843,16.7612417 125.156176,16.4579083 125.548176,16.196575 L125.548176,16.196575 L125.576176,16.224575 C125.436176,16.4392417 125.366176,16.6679083 125.366176,16.910575 C125.366176,17.2932417 125.47351,17.582575 125.688176,17.778575 C125.902843,17.974575 126.196843,18.072575 126.570176,18.072575 C126.990176,18.072575 127.37751,17.9699083 127.732176,17.764575 C128.086843,17.5592417 128.394843,17.2932417 128.656176,16.966575 L128.656176,16.966575 L128.600176,16.896575 C128.516176,16.980575 128.422843,17.071575 128.320176,17.169575 C128.21751,17.267575 128.110176,17.358575 127.998176,17.442575 C127.886176,17.526575 127.767176,17.596575 127.641176,17.652575 C127.515176,17.708575 127.386843,17.736575 127.256176,17.736575 C126.854843,17.736575 126.654176,17.5359083 126.654176,17.134575 C126.654176,16.8172417 126.728843,16.5209083 126.878176,16.245575 C127.02751,15.9702417 127.190843,15.706575 127.368176,15.454575 C127.106843,15.4639083 126.889843,15.4732417 126.717176,15.482575 C126.54451,15.4919083 126.39751,15.5129083 126.276176,15.545575 C126.154843,15.5782417 126.049843,15.6249083 125.961176,15.685575 C125.87251,15.7462417 125.776843,15.8279083 125.674176,15.930575 C125.608843,15.9959083 125.506176,16.0729083 125.366176,16.161575 C125.226176,16.2502417 125.05351,16.378575 124.848176,16.546575 C124.642843,16.714575 124.40251,16.931575 124.127176,17.197575 C123.851843,17.463575 123.536843,17.8159083 123.182176,18.254575 L123.182176,18.254575 L123.154176,18.226575 L125.002176,15.622575 L123.406176,15.678575 C122.920843,16.518575 122.433176,17.344575 121.943176,18.156575 C121.453176,18.968575 120.970176,19.7852417 120.494176,20.606575 L120.494176,20.606575 Z M127.891118,20.746575 C128.339118,20.746575 128.770784,20.6112417 129.186118,20.340575 C129.601451,20.0699083 130.079784,19.6592417 130.621118,19.108575 C130.779784,18.9499083 130.940784,18.7749083 131.104118,18.583575 C131.267451,18.3922417 131.428451,18.2009083 131.587118,18.009575 C131.745784,17.8182417 131.897451,17.6292417 132.042118,17.442575 C132.186784,17.2559083 132.315118,17.0879083 132.427118,16.938575 L132.427118,16.938575 L132.301118,16.896575 C131.974451,17.3259083 131.638451,17.7412417 131.293118,18.142575 C130.947784,18.5439083 130.597784,18.9219083 130.243118,19.276575 C129.860451,19.6592417 129.501118,19.9579083 129.165118,20.172575 C128.829118,20.3872417 128.563118,20.494575 128.367118,20.494575 C128.161784,20.494575 128.059118,20.368575 128.059118,20.116575 C128.059118,19.8739083 128.166451,19.5589083 128.381118,19.171575 C128.595784,18.7842417 128.885118,18.296575 129.249118,17.708575 L129.249118,17.708575 L133.575118,10.820575 L132.021118,10.904575 L128.115118,17.316575 C127.713784,17.988575 127.417451,18.5229083 127.226118,18.919575 C127.034784,19.3162417 126.939118,19.6452417 126.939118,19.906575 C126.939118,20.466575 127.256451,20.746575 127.891118,20.746575 Z" id="TheOceanPearl" fill="#FFFFFF" fill-rule="nonzero"></path>
                <path d="M13.5186344,0.4 C15.9700015,0.4 18.6271705,0.745551672 19.230652,1.46607828 C19.4016255,1.67021209 19.4983004,1.88120837 19.530317,2.099232 C19.5671207,2.34985524 19.520914,2.60627472 19.4254445,2.86576175 C19.1204243,3.69480931 18.3394342,4.54219045 17.6220502,5.33789068 C16.5263546,6.56293807 16.1243537,8.57784043 16.214562,11.7500424 L16.214562,11.7500424 L17.0143156,11.7304405 C16.9680249,9.4815099 17.2835675,7.7057218 17.9860605,6.42730698 C18.6514517,5.21641099 19.6701793,4.4722696 21.0424382,4.20996825 C23.0423856,3.82768699 24.6639137,4.42123006 25.6472992,5.31166015 C26.2329707,5.84197058 26.5945354,6.47456876 26.6359481,7.05066213 C26.6531332,7.28972351 26.612505,7.51678417 26.4996993,7.71257219 C26.394128,7.89580393 26.2264505,8.04873163 25.9980432,8.16399435 C24.1616648,8.94779583 22.2248548,10.9672464 20.0931151,14.3259417 L20.0931151,14.3259417 L20.7591454,14.7687902 C23.1514621,11.3314943 24.9274685,9.4449795 26.1415916,9.33715118 C26.3471674,9.31889365 26.5282514,9.36962956 26.6831017,9.49485067 C26.8748711,9.64992676 27.0259072,9.89968932 27.1530667,10.2306718 C27.4565391,11.0205776 27.6,12.2339474 27.6,13.8680598 L27.6,13.8680598 L27.6,18.2827832 C25.5120332,23.2848979 19.9411448,23.8155494 18.2291844,23.833131 L18.0522573,23.8331422 C17.8659958,23.8310945 17.751882,23.8227025 17.7268309,23.8170861 C19.0689429,22.9151316 19.9373027,21.4420194 19.9373027,19.7820998 C19.9373027,18.4097332 19.3439544,17.1658393 18.3803031,16.2659877 C17.4269101,15.3757153 16.1103596,14.8230187 14.6549812,14.8230187 C13.1996029,14.8230187 11.8830524,15.3757153 10.9296594,16.2659877 C9.96600805,17.1658393 9.37265977,18.4097332 9.37265977,19.7820998 C9.37265977,21.0722882 9.89715326,22.2493231 10.7605776,23.133136 C10.497701,23.1846826 10.2751731,23.1992535 10.0279674,23.2043928 C9.38565289,23.2177463 8.58464818,23.1719848 7.72035766,23.0100608 C6.53820977,22.7885865 5.23600854,22.3499645 4.06264856,21.5417104 C2.39040269,20.3898051 0.990101838,18.4832899 0.560928636,15.4048599 C0.347785343,13.8759976 0.339148536,12.741637 0.561238114,12.0057624 C0.648530104,11.7165279 0.768430738,11.4961447 0.943231014,11.3617773 C1.09957485,11.2415972 1.29667721,11.2028227 1.52742725,11.2237377 C2.86531831,11.3450034 5.06300397,13.1438662 8.1556461,16.482792 L8.1556461,16.482792 L8.75261129,15.9504344 C6.25137774,13.0367683 4.03124857,11.166857 2.10564297,10.3198411 C1.85850582,10.2111329 1.66925499,10.0692935 1.53692285,9.89644473 C1.40171072,9.71983419 1.32813309,9.51259953 1.30383758,9.28679207 C1.24154031,8.70778829 1.48372728,8.0245212 1.90267613,7.3511369 C2.79005257,5.92484022 4.49699011,4.5385487 6.29007911,4.21055252 C7.13027675,4.05686153 7.86742042,4.11544151 8.4988132,4.40340333 C9.12824146,4.69046919 9.64677359,5.20338194 10.0652445,5.92945804 C10.9727715,7.50408023 11.408205,10.036371 11.4067829,13.5136624 L11.4067829,13.5136624 L12.2064993,13.5288859 C12.340608,9.96940199 11.8680001,7.24023898 10.8180861,5.33232091 C10.4183396,4.60589612 9.92449669,4.06136735 9.48870246,3.58454884 C9.09743485,3.15644854 8.74558991,2.79901152 8.62646549,2.375678 C8.54661941,2.09192828 8.59644978,1.78213374 8.80187596,1.39779447 C8.97725057,1.06967977 9.5166552,0.876710967 10.1838245,0.717570269 C11.0984007,0.499415282 12.2923679,0.4 13.5186344,0.4 Z" id="Oval" stroke="#FFFFFF" stroke-width="0.8"></path>
                <path d="M12.1985438,18.4129315 C12.1985438,16.4124486 13.7992114,17.4849447 13.4631999,17.2830801 C13.1271884,17.0812155 11.4777894,18.5577605 12.5591842,18.5577605 C13.640579,18.5577605 14.0960185,17.7811739 13.0650793,17.4286603 C11.9134462,17.0348773 15.4721822,16.6773312 16.872544,18.0367516 C17.6986824,18.8387367 18.2132315,20.6935619 17.1383528,21.5192725" id="Path-2" stroke="#FFFFFF" fill="#D8D8D8"></path>
            </g>
        </g>
    </g>
</svg>
