<svg width="512" height="512" viewBox="0 0 512 512" xmlns="http://www.w3.org/2000/svg">
<path d="M350.202 314.1C347.368 314.1 344.558 312.87 342.632 310.498C339.24 306.32 339.876 300.183 344.054 296.791C362.39 281.901 372.906 259.83 372.906 236.239C372.906 193.254 337.936 158.284 294.951 158.284C255.191 158.284 221.886 188.032 217.481 227.48C216.884 232.829 212.066 236.678 206.716 236.084C201.368 235.486 197.516 230.666 198.113 225.318C203.621 175.992 245.252 138.795 294.951 138.795C348.682 138.795 392.395 182.508 392.395 236.239C392.395 265.727 379.254 293.312 356.339 311.919C354.533 313.386 352.36 314.1 350.202 314.1Z"/>
<path d="M294.856 123.109C289.475 123.109 285.112 118.746 285.112 113.364V60.7444C285.112 55.3626 289.475 51 294.856 51C300.238 51 304.601 55.3626 304.601 60.7444V113.364C304.601 118.746 300.238 123.109 294.856 123.109Z"/>
<path d="M172.076 245.889H119.456C114.075 245.889 109.712 241.526 109.712 236.144C109.712 230.762 114.075 226.4 119.456 226.4H172.076C177.458 226.4 181.821 230.762 181.821 236.144C181.821 241.526 177.458 245.889 172.076 245.889Z"/>
<path d="M470.255 245.889H417.636C412.254 245.889 407.891 241.526 407.891 236.144C407.891 230.762 412.254 226.4 417.636 226.4H470.255C475.637 226.4 480 230.762 480 236.144C480 241.526 475.637 245.889 470.255 245.889Z"/>
<path d="M381.135 159.609C378.641 159.609 376.148 158.658 374.245 156.756C370.439 152.95 370.439 146.78 374.245 142.974L411.992 105.227C415.798 101.422 421.967 101.422 425.773 105.227C429.579 109.033 429.579 115.203 425.773 119.008L388.026 156.756C386.123 158.658 383.629 159.609 381.135 159.609Z"/>
<path d="M208.577 159.609C206.083 159.609 203.589 158.658 201.686 156.756L163.939 119.008C160.134 115.203 160.134 109.033 163.939 105.227C167.744 101.422 173.914 101.422 177.72 105.227L215.467 142.974C219.272 146.78 219.272 152.95 215.467 156.756C213.564 158.658 211.07 159.609 208.577 159.609Z"/>
<path d="M418.883 369.915C416.388 369.915 413.895 368.964 411.992 367.061L374.245 329.314C370.439 325.508 370.439 319.338 374.245 315.533C378.051 311.727 384.219 311.727 388.026 315.533L425.773 353.28C429.579 357.085 429.579 363.256 425.773 367.061C423.87 368.964 421.377 369.915 418.883 369.915Z"/>
<path d="M99.935 460.266C62.4466 460.019 32 429.417 32 392.049C32 359.576 54.3993 332.433 84.8916 325.531C84.3958 322.803 84.147 320.019 84.147 317.19C84.147 291.609 104.959 270.797 130.541 270.797C139.038 270.797 147.182 273.064 154.288 277.314C173.758 251.566 203.801 236.487 236.59 236.487C287.834 236.487 331.028 274.235 338.693 323.977C374.161 326.366 402.288 355.985 402.288 392.049C402.288 429.294 371.987 459.894 334.741 460.261L99.935 460.266ZM130.541 290.286C115.705 290.286 103.636 302.355 103.636 317.19C103.636 321.423 104.596 325.48 106.491 329.248C107.979 332.208 107.861 335.72 106.179 338.574C104.497 341.428 101.479 343.231 98.1693 343.362C71.9935 344.395 51.4889 365.781 51.4889 392.049C51.4889 418.741 73.2506 440.601 99.9993 440.777L334.645 440.772C361.154 440.511 382.799 418.653 382.799 392.049C382.799 365.174 360.935 343.31 334.061 343.31C333.06 343.31 331.971 343.353 330.636 343.446C328.057 343.623 325.497 342.768 323.545 341.059C321.593 339.352 320.402 336.937 320.236 334.349C317.417 290.401 280.675 255.976 236.59 255.976C207.025 255.976 180.209 271.088 164.857 296.402C163.303 298.964 160.656 300.669 157.68 301.024C154.704 301.376 151.73 300.345 149.616 298.22C144.528 293.103 137.753 290.286 130.541 290.286Z"/>
</svg>
