<svg width="512" height="512" viewBox="0 0 512 512" xmlns="http://www.w3.org/2000/svg">
<path d="M256.115 374.01C191.108 374.01 138.22 321.122 138.22 256.115C138.22 191.108 191.108 138.22 256.115 138.22C321.122 138.22 374.01 191.108 374.01 256.115C374.01 321.122 321.122 374.01 256.115 374.01ZM256.115 161.799C204.109 161.799 161.799 204.109 161.799 256.115C161.799 308.121 204.109 350.431 256.115 350.431C308.121 350.431 350.431 308.121 350.431 256.115C350.431 204.109 308.121 161.799 256.115 161.799Z"/>
<path d="M256 119.242C249.489 119.242 244.21 113.964 244.21 107.453V43.7895C244.21 37.2782 249.489 32 256 32C262.511 32 267.789 37.2782 267.789 43.7895V107.453C267.789 113.964 262.511 119.242 256 119.242Z"/>
<path d="M256 480C249.489 480 244.21 474.722 244.21 468.211V404.547C244.21 398.036 249.489 392.758 256 392.758C262.511 392.758 267.789 398.036 267.789 404.547V468.211C267.789 474.722 262.511 480 256 480Z"/>
<path d="M107.453 267.789H43.7895C37.2782 267.789 32 262.511 32 256C32 249.489 37.2782 244.211 43.7895 244.211H107.453C113.964 244.211 119.242 249.489 119.242 256C119.242 262.511 113.964 267.789 107.453 267.789Z"/>
<path d="M468.21 267.789H404.547C398.036 267.789 392.758 262.511 392.758 256C392.758 249.489 398.036 244.211 404.547 244.211H468.21C474.722 244.211 480 249.489 480 256C480 262.511 474.722 267.789 468.21 267.789Z"/>
<path d="M360.387 163.403C357.369 163.403 354.352 162.252 352.05 159.95C347.446 155.346 347.446 147.881 352.05 143.277L397.719 97.6077C402.323 93.0036 409.788 93.0036 414.392 97.6077C418.996 102.212 418.996 109.677 414.392 114.281L368.723 159.95C366.421 162.252 363.404 163.403 360.387 163.403Z"/>
<path d="M105.944 417.845C102.927 417.845 99.9095 416.694 97.6074 414.392C93.0039 409.788 93.0039 402.323 97.6074 397.719L143.277 352.05C147.881 347.446 155.346 347.446 159.95 352.05C164.554 356.654 164.554 364.119 159.95 368.723L114.281 414.392C111.979 416.694 108.961 417.845 105.944 417.845Z"/>
<path d="M151.613 163.403C148.596 163.403 145.579 162.252 143.277 159.95L97.6074 114.281C93.0039 109.677 93.0039 102.212 97.6074 97.6077C102.212 93.0036 109.677 93.0036 114.281 97.6077L159.95 143.277C164.554 147.881 164.554 155.346 159.95 159.95C157.648 162.252 154.63 163.403 151.613 163.403Z"/>
<path d="M406.056 417.845C403.039 417.845 400.021 416.694 397.719 414.392L352.05 368.723C347.446 364.119 347.446 356.654 352.05 352.05C356.654 347.446 364.119 347.446 368.723 352.05L414.392 397.719C418.996 402.323 418.996 409.788 414.392 414.392C412.09 416.694 409.073 417.845 406.056 417.845Z"/>
</svg>
