<svg width="512" height="512" viewBox="0 0 512 512" xmlns="http://www.w3.org/2000/svg">
<path d="M398.157 328.631L385.679 328.626C379.168 328.624 373.892 323.344 373.894 316.832C373.896 310.322 379.175 305.047 385.684 305.047H385.688L398.105 305.052C430.266 304.704 456.421 278.297 456.421 246.16C456.421 213.661 429.968 187.221 397.454 187.221C396.064 187.221 394.579 187.311 393.309 187.399C390.181 187.619 387.092 186.578 384.73 184.512C382.369 182.446 380.928 179.524 380.727 176.393C377.317 123.226 332.864 81.5789 279.527 81.5789C243.759 81.5789 211.316 99.8647 192.74 130.493C190.86 133.593 187.657 135.656 184.056 136.086C180.457 136.51 176.857 135.264 174.3 132.693C168.145 126.503 159.949 123.095 151.222 123.095C133.273 123.095 118.67 137.698 118.67 155.647C118.67 160.768 119.832 165.676 122.124 170.235C123.925 173.816 123.782 178.066 121.747 181.519C119.711 184.971 116.061 187.153 112.056 187.311C80.3869 188.562 55.5789 214.386 55.5789 246.103C55.5789 278.548 81.8727 304.945 114.192 304.945H126.316C132.827 304.945 138.105 310.223 138.105 316.734C138.105 323.245 132.827 328.524 126.316 328.524H114.192C68.8715 328.524 32 291.55 32 246.103C32 206.871 59.0997 174.076 95.9919 165.736C95.3926 162.436 95.091 159.069 95.091 155.647C95.091 124.696 120.271 99.5159 151.222 99.5159C161.503 99.5159 171.355 102.258 179.952 107.4C203.51 76.2461 239.859 58 279.527 58C341.521 58 393.778 103.659 403.055 163.83C445.971 166.716 480 202.539 480 246.16C480 291.191 443.339 328.187 398.277 328.629C398.238 328.631 398.197 328.631 398.157 328.631Z"/>
<path d="M145.218 439.445C142.203 439.445 139.189 438.296 136.888 435.998C132.28 431.397 132.275 423.932 136.876 419.324L187.521 368.608H157.008C152.184 368.608 147.847 365.67 146.058 361.189C144.27 356.709 145.391 351.591 148.889 348.27L223.163 277.734C227.884 273.251 235.346 273.441 239.83 278.165C244.314 282.885 244.121 290.348 239.4 294.831L186.542 345.029H215.955C220.722 345.029 225.02 347.899 226.845 352.303C228.671 356.707 227.666 361.776 224.297 365.149L153.561 435.986C151.258 438.291 148.238 439.445 145.218 439.445Z"/>
<path d="M265.382 398.01C262.363 398.01 259.344 396.858 257.042 394.553C252.44 389.946 252.444 382.482 257.05 377.88L307.637 327.345H277.172C272.353 327.345 268.019 324.412 266.228 319.939C264.436 315.466 265.546 310.352 269.032 307.026L343.306 236.147C348.017 231.652 355.479 231.825 359.974 236.536C364.47 241.247 364.295 248.709 359.585 253.204L306.602 303.766H336.119C340.888 303.766 345.188 306.639 347.012 311.047C348.837 315.453 347.826 320.525 344.451 323.895L273.714 394.561C271.413 396.86 268.398 398.01 265.382 398.01Z"/>
<path d="M205.256 454.6C202.236 454.6 199.218 453.447 196.915 451.142C192.313 446.536 192.317 439.071 196.924 434.47L226.447 404.977C231.053 400.375 238.518 400.378 243.12 404.985C247.721 409.591 247.717 417.056 243.111 421.657L213.588 451.15C211.286 453.449 208.271 454.6 205.256 454.6Z"/>
<path d="M97.9714 415.694C94.952 415.694 91.9333 414.542 89.6306 412.237C85.0288 407.63 85.0329 400.166 89.6393 395.565L108.257 376.965C112.864 372.365 120.328 372.368 124.93 376.973C129.532 381.58 129.528 389.044 124.921 393.645L106.303 412.245C104.002 414.544 100.987 415.694 97.9714 415.694Z"/>
<path d="M309.003 432.2C305.984 432.2 302.965 431.047 300.662 428.742C296.061 424.136 296.065 416.672 300.671 412.07L361.967 350.836C366.573 346.234 374.038 346.238 378.64 350.844C383.242 355.45 383.238 362.914 378.631 367.516L317.335 428.75C315.034 431.049 312.018 432.2 309.003 432.2Z"/>
</svg>
