<?xml version="1.0" encoding="utf-8"?>
<!-- Generator: Adobe Illustrator 22.1.0, SVG Export Plug-In . SVG Version: 6.00 Build 0)  -->
<svg version="1.1" id="Layer_1" xmlns="http://www.w3.org/2000/svg" xmlns:xlink="http://www.w3.org/1999/xlink" x="0px" y="0px"
	 viewBox="0 0 292 143" style="enable-background:new 0 0 292 143;" xml:space="preserve">
<style type="text/css">
	.st0{fill:#0099FF;}
	.st1{fill:#FFFFFF;}
	.st2{fill:#DCF1FF;}
</style>
<path class="st0" d="M75.2,44H32.8c-0.3,0-0.6,0.3-0.6,0.6c0,0.3,0.3,0.6,0.6,0.6h42.4c0.3,0,0.6-0.3,0.6-0.6
	C75.8,44.2,75.5,44,75.2,44z M34.3,51.8H19.1c-0.3,0-0.6,0.3-0.6,0.6c0,0.3,0.3,0.6,0.6,0.6h15.2c0.3,0,0.6-0.3,0.6-0.6
	C34.9,52,34.6,51.8,34.3,51.8z M15.8,103.2H0.6c-0.3,0-0.6,0.3-0.6,0.6c0,0.3,0.3,0.6,0.6,0.6h15.2c0.3,0,0.6-0.3,0.6-0.6
	C16.4,103.5,16.1,103.2,15.8,103.2z M37.3,136.1H22.1c-0.3,0-0.6,0.3-0.6,0.6c0,0.3,0.3,0.6,0.6,0.6h15.2c0.3,0,0.6-0.3,0.6-0.6
	C37.9,136.4,37.6,136.1,37.3,136.1z M54,66.1H27.7c-0.3,0-0.6,0.3-0.6,0.6s0.3,0.6,0.6,0.6H54c0.3,0,0.6-0.3,0.6-0.6
	S54.3,66.1,54,66.1z M76.1,119.4H49.8c-0.3,0-0.6,0.3-0.6,0.6c0,0.3,0.3,0.6,0.6,0.6h26.2c0.3,0,0.6-0.3,0.6-0.6
	C76.7,119.6,76.4,119.4,76.1,119.4z M17.6,66.1h-5.4c-0.3,0-0.6,0.3-0.6,0.6s0.3,0.6,0.6,0.6h5.4c0.3,0,0.6-0.3,0.6-0.6
	S17.9,66.1,17.6,66.1z M100.5,134.9h-5.4c-0.3,0-0.6,0.3-0.6,0.6c0,0.3,0.3,0.6,0.6,0.6h5.4c0.3,0,0.6-0.3,0.6-0.6
	C101.1,135.2,100.9,134.9,100.5,134.9z M24.2,92.4h-5.4c-0.3,0-0.6,0.3-0.6,0.6c0,0.3,0.3,0.6,0.6,0.6h5.4c0.3,0,0.6-0.3,0.6-0.6
	C24.8,92.7,24.5,92.4,24.2,92.4z M26.6,44h-5.4c-0.3,0-0.6,0.3-0.6,0.6c0,0.3,0.3,0.6,0.6,0.6h5.4c0.3,0,0.6-0.3,0.6-0.6
	C27.2,44.2,26.9,44,26.6,44z"/>
<path class="st0" d="M114.8,24.5c-2,0-3.6,1.6-3.6,3.6v110.1c0,2,1.6,3.6,3.6,3.6h172.4c2,0,3.6-1.6,3.6-3.6V28.1
	c0-2-1.6-3.6-3.6-3.6H114.8z M114.8,23.3h172.4c2.6,0,4.8,2.1,4.8,4.8v110.1c0,2.6-2.1,4.8-4.8,4.8H114.8c-2.6,0-4.8-2.1-4.8-4.8
	V28.1C110.1,25.5,112.2,23.3,114.8,23.3z"/>
<path class="st0" d="M140.2,142.1V24.2h-0.6v117.9H140.2z"/>
<path class="st0" d="M200.4,142.1V24.2h-0.6v117.9H200.4z"/>
<path class="st0" d="M224.3,142.1V24.2h-0.6v117.9H224.3z"/>
<path class="st0" d="M248.8,142.1V24.2h-0.6v117.9H248.8z"/>
<path class="st0" d="M185.5,41.6h105.6V41H185.5V41.6z"/>
<path class="st0" d="M185.5,58.9h105.6v-0.6H185.5V58.9z"/>
<path class="st0" d="M185.5,75.7h105.6v-0.6H185.5V75.7z"/>
<path class="st0" d="M185.5,92.4h105.6v-0.6H185.5V92.4z"/>
<path class="st0" d="M185.5,109.2h105.6v-0.6H185.5V109.2z"/>
<path class="st0" d="M185.5,125.9h105.6v-0.6H185.5V125.9z"/>
<path class="st0" d="M280.7,35.1v-5.8c0-0.3-0.3-0.6-0.6-0.6c-0.3,0-0.6,0.3-0.6,0.6v5.9l-2.6-2.2c-0.3-0.2-0.6-0.2-0.8,0.1
	c-0.2,0.3-0.2,0.6,0.1,0.8l3.6,3c0.2,0.2,0.6,0.2,0.8,0l3.2-3c0.2-0.2,0.3-0.6,0-0.8c-0.2-0.2-0.6-0.3-0.8,0L280.7,35.1z"/>
<path class="st1" d="M80.2,32.3c-2,0-3.6,1.6-3.6,3.6v88c0,2,1.6,3.6,3.6,3.6h101.4c2,0,3.6-1.6,3.6-3.6v-88c0-2-1.6-3.6-3.6-3.6
	H80.2z"/>
<path class="st2" d="M80.2,31.7c-2.3,0-4.2,1.9-4.2,4.2v58.6c0,2.3,1.9,4.2,4.2,4.2h101.4c2.3,0,4.2-1.9,4.2-4.2V35.9
	c0-2.3-1.9-4.2-4.2-4.2H80.2z"/>
<path class="st0" d="M80.2,32.3c-2,0-3.6,1.6-3.6,3.6v88c0,2,1.6,3.6,3.6,3.6h101.4c2,0,3.6-1.6,3.6-3.6v-88c0-2-1.6-3.6-3.6-3.6
	H80.2z M80.2,31.1h101.4c2.6,0,4.8,2.1,4.8,4.8v88c0,2.6-2.1,4.8-4.8,4.8H80.2c-2.6,0-4.8-2.1-4.8-4.8v-88
	C75.5,33.3,77.6,31.1,80.2,31.1z"/>
<path class="st0" d="M80.2,31.7c-2.3,0-4.2,1.9-4.2,4.2v58.6c0,2.3,1.9,4.2,4.2,4.2h101.4c2.3,0,4.2-1.9,4.2-4.2V35.9
	c0-2.3-1.9-4.2-4.2-4.2H80.2z M80.2,31.1h101.4c2.6,0,4.8,2.1,4.8,4.8v58.6c0,2.6-2.1,4.8-4.8,4.8H80.2c-2.6,0-4.8-2.1-4.8-4.8V35.9
	C75.5,33.3,77.6,31.1,80.2,31.1z"/>
<path class="st0" d="M76,98.5L185,33.6l-0.3-0.5L75.6,98L76,98.5z"/>
<path class="st0" d="M75.9,33.9l108.5,64.3l0.3-0.5L76.3,33.4L75.9,33.9z"/>
<path class="st1" d="M28.9,87.4c-2,0-3.6,1.6-3.6,3.6v17.9c0,2,1.6,3.6,3.6,3.6h71.6c2,0,3.6-1.6,3.6-3.6V90.9c0-2-1.6-3.6-3.6-3.6
	H28.9z"/>
<path class="st0" d="M28.9,87.4c-2,0-3.6,1.6-3.6,3.6v17.9c0,2,1.6,3.6,3.6,3.6h71.6c2,0,3.6-1.6,3.6-3.6V90.9c0-2-1.6-3.6-3.6-3.6
	H28.9z M28.9,86.2h71.6c2.6,0,4.8,2.1,4.8,4.8v17.9c0,2.6-2.1,4.8-4.8,4.8H28.9c-2.6,0-4.8-2.1-4.8-4.8V90.9
	C24.2,88.3,26.3,86.2,28.9,86.2z"/>
<path class="st0" d="M60.8,103.5c-0.5,0-0.9-0.1-1.3-0.2c-0.4-0.2-0.7-0.4-1-0.7c-0.3-0.3-0.5-0.7-0.7-1.1c-0.2-0.4-0.2-1-0.2-1.5
	c0-0.6,0.1-1.1,0.2-1.5c0.2-0.4,0.4-0.8,0.7-1.1s0.6-0.5,1-0.7s0.8-0.2,1.3-0.2c0.5,0,0.9,0.1,1.3,0.2c0.4,0.2,0.7,0.4,1,0.7
	c0.3,0.3,0.5,0.7,0.7,1.1c0.2,0.4,0.2,1,0.2,1.5s-0.1,1.1-0.2,1.5c-0.2,0.4-0.4,0.8-0.6,1.1c-0.3,0.3-0.6,0.5-1,0.7
	S61.2,103.5,60.8,103.5z M60.8,102.7c0.4,0,0.7-0.1,1-0.2c0.3-0.1,0.5-0.3,0.7-0.6c0.2-0.2,0.3-0.5,0.4-0.9c0.1-0.3,0.1-0.7,0.1-1.2
	c0-0.4,0-0.8-0.1-1.2c-0.1-0.3-0.2-0.6-0.4-0.9c-0.2-0.2-0.4-0.4-0.7-0.6c-0.3-0.1-0.6-0.2-1-0.2c-0.4,0-0.7,0.1-1,0.2
	c-0.3,0.1-0.5,0.3-0.7,0.6c-0.2,0.2-0.3,0.5-0.4,0.9c-0.1,0.3-0.1,0.7-0.1,1.2c0,0.4,0,0.8,0.1,1.2c0.1,0.3,0.2,0.6,0.4,0.9
	c0.2,0.2,0.4,0.4,0.7,0.6C60.1,102.7,60.4,102.7,60.8,102.7z M65.3,96.5h0.9v3.3l3.3-3.3h1L68,99.1l2.7,4.3h-1l-2.4-3.7l-1.1,1.1
	v2.6h-0.9V96.5z"/>
<path class="st1" d="M227.6,47.9c12.8,0,23.3-10.4,23.3-23.3S240.4,1.2,227.6,1.2c-12.8,0-23.3,10.4-23.3,23.3
	S214.7,47.9,227.6,47.9z"/>
<path class="st0" d="M227.6,49.1c-13.5,0-24.5-11-24.5-24.5S214.1,0,227.6,0S252,11,252,24.5S241.1,49.1,227.6,49.1z M227.6,47.9
	c12.8,0,23.3-10.4,23.3-23.3S240.4,1.2,227.6,1.2c-12.8,0-23.3,10.4-23.3,23.3S214.7,47.9,227.6,47.9z"/>
<path class="st2" d="M227.6,45.5c11.5,0,20.9-9.4,20.9-20.9c0-11.6-9.3-20.9-20.9-20.9c-11.5,0-20.9,9.4-20.9,20.9
	C206.7,36.1,216,45.5,227.6,45.5z"/>
<path class="st0" d="M227.6,45.8c-11.7,0-21.2-9.5-21.2-21.2c0-11.7,9.5-21.2,21.2-21.2c11.7,0,21.2,9.5,21.2,21.2
	C248.8,36.3,239.3,45.8,227.6,45.8z M227.6,45.2c11.4,0,20.6-9.2,20.6-20.6c0-11.4-9.2-20.6-20.6-20.6S207,13.1,207,24.5
	C207,35.9,216.2,45.2,227.6,45.2z"/>
<path class="st1" d="M245.8,12c2.8,0,5.1-2.3,5.1-5.1c0-2.8-2.3-5.1-5.1-5.1s-5.1,2.3-5.1,5.1C240.7,9.7,243,12,245.8,12z"/>
<path class="st0" d="M245.8,13.2c-3.5,0-6.3-2.8-6.3-6.3s2.8-6.3,6.3-6.3s6.3,2.8,6.3,6.3S249.2,13.2,245.8,13.2z M245.8,12
	c2.8,0,5.1-2.3,5.1-5.1c0-2.8-2.3-5.1-5.1-5.1s-5.1,2.3-5.1,5.1C240.7,9.7,243,12,245.8,12z"/>
<path class="st0" d="M243.7,9c0.2-0.2,0.4-0.4,0.6-0.5c0.2-0.2,0.5-0.4,0.7-0.6c0.2-0.2,0.5-0.4,0.6-0.6c0.2-0.2,0.3-0.3,0.5-0.5
	c0.1-0.2,0.2-0.3,0.3-0.5c0.1-0.2,0.1-0.3,0.1-0.5c0-0.3-0.1-0.6-0.3-0.7c-0.2-0.2-0.4-0.3-0.7-0.3c-0.2,0-0.3,0-0.5,0.1
	c-0.1,0-0.2,0.1-0.3,0.2c-0.1,0.1-0.2,0.2-0.2,0.3c-0.1,0.1-0.1,0.3-0.2,0.4l-0.6-0.1c0-0.2,0.1-0.4,0.2-0.5
	c0.1-0.2,0.2-0.3,0.3-0.5s0.3-0.2,0.5-0.3c0.2-0.1,0.5-0.1,0.8-0.1c0.3,0,0.5,0,0.7,0.1c0.2,0.1,0.4,0.2,0.5,0.3
	c0.1,0.1,0.2,0.3,0.3,0.5c0.1,0.2,0.1,0.4,0.1,0.6c0,0.2,0,0.4-0.1,0.6c-0.1,0.2-0.2,0.4-0.3,0.6s-0.3,0.4-0.5,0.6
	c-0.2,0.2-0.4,0.4-0.7,0.7c-0.1,0.1-0.3,0.3-0.5,0.4c-0.2,0.1-0.3,0.3-0.5,0.4h2.6l-0.1,0.6h-3.4V9z"/>
<g>
	<path class="st0" d="M169.7,119.5l-3.9-3.9c-1.1-1.1-1.1-2.8,0-3.9c1-1,2.9-1,3.9,0l0,0l0,0c1-1,2.9-1,3.9,0c1.1,1.1,1.1,2.8,0,3.9
		L169.7,119.5z M167.7,112c-0.4,0-0.8,0.2-1.2,0.5c-0.6,0.6-0.6,1.7,0,2.3l3.1,3.1l3.1-3.1c0.6-0.6,0.6-1.7,0-2.3
		c-0.6-0.6-1.7-0.6-2.3,0l-0.8,0.8l-0.8-0.8C168.5,112.2,168.1,112,167.7,112z"/>
</g>
</svg>
