<?xml version="1.0" encoding="utf-8"?>
<!-- Generator: Adobe Illustrator 22.1.0, SVG Export Plug-In . SVG Version: 6.00 Build 0)  -->
<svg version="1.1" id="Layer_1" xmlns="http://www.w3.org/2000/svg" xmlns:xlink="http://www.w3.org/1999/xlink" x="0px" y="0px"
	 viewBox="0 0 303 129" style="enable-background:new 0 0 303 129;" xml:space="preserve">
<style type="text/css">
	.st0{fill:#FFFFFF;}
	.st1{fill:#0099FF;}
	.st2{fill:#DCF1FF;}
	.st3{fill:#FFFFFF;fill-opacity:5.000000e-02;}
</style>
<path class="st0" d="M46.6,1h151.7c3.1,0,5.7,2.6,5.7,5.7V115h-163V6.7C40.9,3.6,43.5,1,46.6,1z"/>
<g>
	<path class="st1" d="M204.3,115.3H40.7V6.7c0-3.3,2.7-6,6-6h151.7c3.3,0,6,2.7,6,6V115.3z M42.7,113.3h159.6V6.7c0-2.2-1.8-4-4-4
		H46.6c-2.2,0-4,1.8-4,4V113.3z"/>
</g>
<path class="st0" d="M40.2,128.6h165.2c3.1,0,5.7-2.6,5.7-5.7v-4.3H34.5v4.3C34.5,126.1,37.1,128.6,40.2,128.6z"/>
<path class="st1" d="M209.7,120H36v2.9c0,2.4,1.9,4.3,4.3,4.3h165.2c2.4,0,4.3-1.9,4.3-4.3V120z M205.4,128.6H40.2
	c-3.1,0-5.7-2.6-5.7-5.7v-4.3h176.6v4.3C211.1,126.1,208.6,128.6,205.4,128.6z"/>
<path class="st0" d="M194.7,8.2H50.2c-1.6,0-2.8,1.3-2.8,2.9v96.8c0,1.6,1.3,2.9,2.8,2.9h144.5c1.6,0,2.8-1.3,2.8-2.9V11
	C197.6,9.5,196.3,8.2,194.7,8.2z"/>
<path class="st1" d="M50.2,8.9c-1.2,0-2.1,1-2.1,2.2v96.8c0,1.2,1,2.2,2.1,2.2h144.5c1.2,0,2.1-1,2.1-2.2V11c0-1.2-1-2.2-2.1-2.2
	H50.2z M50.2,8.2h144.5c1.6,0,2.8,1.3,2.8,2.9v96.8c0,1.6-1.3,2.9-2.8,2.9H50.2c-1.6,0-2.8-1.3-2.8-2.9V11
	C47.3,9.5,48.6,8.2,50.2,8.2z"/>
<path class="st2" d="M186.9,16.1H60.2c-1.6,0-2.8,1.3-2.8,2.9v2.2c0,1.6,1.3,2.9,2.8,2.9h126.7c1.6,0,2.8-1.3,2.8-2.9v-2.2
	C189.7,17.3,188.5,16.1,186.9,16.1z"/>
<path class="st2" d="M82.2,74.9H60.2c-1.6,0-2.8,1.3-2.8,2.9v17.2c0,1.6,1.3,2.9,2.8,2.9h22.1c1.6,0,2.8-1.3,2.8-2.9V77.7
	C85.1,76.1,83.8,74.9,82.2,74.9z"/>
<path class="st2" d="M188.7,74.9H92.6c-1.4,0-2.5,1.1-2.5,2.5c0,1.4,1.1,2.5,2.5,2.5h96.1c1.4,0,2.5-1.1,2.5-2.5
	C191.2,76,190.1,74.9,188.7,74.9z"/>
<path class="st2" d="M188.7,82H92.6c-1.4,0-2.5,1.1-2.5,2.5c0,1.4,1.1,2.5,2.5,2.5h96.1c1.4,0,2.5-1.1,2.5-2.5
	C191.2,83.2,190.1,82,188.7,82z"/>
<path class="st2" d="M164.5,89.2H92.6c-1.4,0-2.5,1.1-2.5,2.5c0,1.4,1.1,2.5,2.5,2.5h71.9c1.4,0,2.5-1.1,2.5-2.5
	C167,90.3,165.8,89.2,164.5,89.2z"/>
<path class="st2" d="M186.9,29.7H60.2c-1.6,0-2.8,1.3-2.8,2.9v33.7c0,1.6,1.3,2.9,2.8,2.9h126.7c1.6,0,2.8-1.3,2.8-2.9V32.6
	C189.7,31,188.5,29.7,186.9,29.7z"/>
<path class="st1" d="M283.8,127.6H0.7c-0.4,0-0.7,0.3-0.7,0.7c0,0.4,0.3,0.7,0.7,0.7h283.1c0.4,0,0.7-0.3,0.7-0.7
	C284.5,127.9,284.2,127.6,283.8,127.6z M290.2,129h12.1c0.4,0,0.7-0.3,0.7-0.7c0-0.4-0.3-0.7-0.7-0.7h-12.1c-0.4,0-0.7,0.3-0.7,0.7
	C289.5,128.7,289.8,129,290.2,129z"/>
<path class="st3" d="M262.4,38.6h-39.2c-1.6,0-2.8,1.3-2.8,2.9v84.6c0,1.6,1.3,2.9,2.8,2.9h39.2c1.6,0,2.8-1.3,2.8-2.9V41.5
	C265.2,39.9,263.9,38.6,262.4,38.6z"/>
<path class="st1" d="M223.2,40.1c-0.8,0-1.4,0.6-1.4,1.4v84.6c0,0.8,0.6,1.4,1.4,1.4h39.2c0.8,0,1.4-0.6,1.4-1.4V41.5
	c0-0.8-0.6-1.4-1.4-1.4H223.2z M223.2,38.6h39.2c1.6,0,2.8,1.3,2.8,2.9v84.6c0,1.6-1.3,2.9-2.8,2.9h-39.2c-1.6,0-2.8-1.3-2.8-2.9
	V41.5C220.4,39.9,221.6,38.6,223.2,38.6z"/>
<path class="st0" d="M260.2,41.2h-34.9c-1.6,0-2.8,1.3-2.8,2.9v78.2c0,1.6,1.3,2.9,2.8,2.9h34.9c1.6,0,2.8-1.3,2.8-2.9V44
	C263.1,42.4,261.8,41.2,260.2,41.2z"/>
<path class="st1" d="M225.3,41.9c-1.2,0-2.1,1-2.1,2.2v78.2c0,1.2,1,2.2,2.1,2.2h34.9c1.2,0,2.1-1,2.1-2.2V44c0-1.2-1-2.2-2.1-2.2
	H225.3z M225.3,41.2h34.9c1.6,0,2.8,1.3,2.8,2.9v78.2c0,1.6-1.3,2.9-2.8,2.9h-34.9c-1.6,0-2.8-1.3-2.8-2.9V44
	C222.5,42.4,223.8,41.2,225.3,41.2z"/>
<path class="st2" d="M258.1,44h-30.6c-1.6,0-2.8,1.3-2.8,2.9v4.3c0,1.6,1.3,2.9,2.8,2.9h30.6c1.6,0,2.8-1.3,2.8-2.9v-4.3
	C260.9,45.3,259.7,44,258.1,44z"/>
<path class="st2" d="M234.6,96.4h-7.1c-1.6,0-2.8,1.3-2.8,2.9v13.6c0,1.6,1.3,2.9,2.8,2.9h7.1c1.6,0,2.8-1.3,2.8-2.9V99.2
	C237.4,97.7,236.2,96.4,234.6,96.4z"/>
<path class="st2" d="M258.5,96.4h-16.4c-1.4,0-2.5,1.1-2.5,2.5c0,1.4,1.1,2.5,2.5,2.5h16.4c1.4,0,2.5-1.1,2.5-2.5
	C260.9,97.5,259.8,96.4,258.5,96.4z"/>
<path class="st2" d="M258.5,103.5h-16.4c-1.4,0-2.5,1.1-2.5,2.5c0,1.4,1.1,2.5,2.5,2.5h16.4c1.4,0,2.5-1.1,2.5-2.5
	C260.9,104.7,259.8,103.5,258.5,103.5z"/>
<path class="st2" d="M253.5,110.7h-11.4c-1.4,0-2.5,1.1-2.5,2.5c0,1.4,1.1,2.5,2.5,2.5h11.4c1.4,0,2.5-1.1,2.5-2.5
	C256,111.8,254.8,110.7,253.5,110.7z"/>
<path class="st2" d="M258.1,58.4h-30.6c-1.6,0-2.8,1.3-2.8,2.9v28.7c0,1.6,1.3,2.9,2.8,2.9h30.6c1.6,0,2.8-1.3,2.8-2.9V61.2
	C260.9,59.7,259.7,58.4,258.1,58.4z"/>
</svg>
