<?xml version="1.0" encoding="UTF-8"?>
<svg width="495px" height="329px" viewBox="0 0 495 329" version="1.1" xmlns="http://www.w3.org/2000/svg" xmlns:xlink="http://www.w3.org/1999/xlink">
    <!-- Generator: Sketch 59.1 (86144) - https://sketch.com -->
    <title>Illustrations/Onboarding 2</title>
    <desc>Created with Sketch.</desc>
    <defs>
        <path d="M275.836152,43.434999 C322.488635,41.9642153 371.614749,49.1542552 414.794958,67.7848692 C431.583101,75.0285046 450.296623,84.2407433 458.86995,101.890148 C468.418949,121.550413 462.165463,144.588225 462.033642,165.447174 C461.728059,214.097442 490.603744,265.943855 451.261309,306.672298 C435.371943,323.121988 414.007031,337.969998 392.726006,345.60014 C368.66876,354.226951 343.284321,351.502857 318.506057,348.619008 C268.850663,342.837911 226.707042,351.936775 178.522646,363.366011 C137.348705,373.133788 89.5617669,379.27047 52.5871083,352.939628 C36.2313768,341.291887 23.9301251,323.250824 20.5786881,302.854651 C17.1613409,282.060635 25.6617675,266.698315 33.3203402,248.311972 C50.3331771,207.468093 11.8875213,172.649582 32.5763532,131.978857 C52.7718568,92.2790349 97.3122146,81.1363281 136.168312,71.526246 C182.150706,60.1526665 228.219982,44.9356724 275.836152,43.434999 Z M8.31438612,190.661477 C14.717668,185.727601 19.2484992,190.215192 20.6535862,198.311202 C20.4109166,196.806406 24.3515514,210.4681 23.683461,218.91145 C23.0663012,226.708561 19.0777317,248.831127 6.40398715,244.715613 C-1.7419221,242.070882 0.0336604221,229.162616 0.461078488,222.747649 C0.988360588,214.862929 1.48069028,195.927233 8.31438612,190.661477 Z M482.061075,184.422242 C489.112474,183.601819 488.870803,207.241549 481.66062,208.290783 C471.871948,209.715186 476.6075,192.549172 479.276866,186.627902 C479.800153,185.468384 480.828753,184.566537 482.061075,184.422242 Z M473.069217,124.808606 C474.924691,115.120192 489.591722,110.0111 493.226773,125.163161 C495.610527,135.097908 493.753056,169.99372 479.711174,171.839672 C467.516777,173.443414 471.859864,131.12875 473.069217,124.808606 Z M11.6093999,138.959462 C22.0182282,137.624729 8.73930759,162.887784 4.78169592,165.415017 C-0.0736934145,168.513248 -0.91155266,140.565266 11.6093999,138.959462 Z" id="path-1"></path>
    </defs>
    <g id="Page-1" stroke="none" stroke-width="1" fill="none" fill-rule="evenodd">
        <g id="Slide-1" transform="translate(-40.000000, -111.000000)">
            <g id="Carousel" transform="translate(40.000000, 40.000000)">
                <g id="Illustrations/Onboarding-2" transform="translate(0.000000, 28.000000)">
                    <g id="Onboarding-v.2">
                        <g id="_Overrides/Illustrations/Background/5-blobs">
                            <g id="Background">
                                <use fill="#0099FF" xlink:href="#path-1"></use>
                                <use fill-opacity="0.13" fill="#FFFFFF" style="mix-blend-mode: saturation;" xlink:href="#path-1"></use>
                                <use fill-opacity="0.18" fill="#FFFFFF" style="mix-blend-mode: lighten;" xlink:href="#path-1"></use>
                            </g>
                        </g>
                        <g id="Plane" transform="translate(15.680000, 110.898387)">
                            <g id="Plain" transform="translate(0.000000, 2.807847)">
                                <path d="M150.37032,187.770411 L126.012709,211.624992 L120.29106,211.624992 L120.298095,211.609418 L113.92192,211.609418 C109.29436,211.609418 105.5439,217.775578 105.5439,225.383318 C105.5439,232.990078 109.29436,239.157218 113.92192,239.157218 L129.0688,239.156924 C133.695335,239.156837 137.446722,232.99071 137.446722,225.383024 C137.446722,217.775284 133.695282,211.609124 129.068702,211.609124 C129.050244,211.609124 129.0318,211.609222 129.01337,211.609418 L126.028597,211.609418 L150.37032,187.748493 L130.394075,189.257809 L131.243708,189.193614 C69.5409216,191.690579 7.59829614,174.738208 0.705753577,157.506852 C-7.81436642,136.206552 62.9014536,71.4550121 99.9640736,54.8410721 C130.966374,40.9427121 270.176354,48.8062321 314.867294,51.7481921 C321.650854,52.1950721 328.092394,49.2374321 332.189774,44.0591121 L281.031814,41.8923321 C280.292894,41.8619521 280.077294,40.8692121 280.735854,40.5340521 L286.132714,37.7920121 C289.517634,36.0721121 293.268094,35.1910921 297.065594,35.2253921 L337.044694,35.5840721 L344.701434,21.1868921 C347.662014,15.5264121 350.577514,9.28479205 354.144714,3.82521205 C360.242274,-4.58710795 360.647994,3.00299205 360.211894,6.42613205 C359.259334,13.8770721 357.749154,24.2768321 355.540234,35.7496921 L408.600374,36.2269521 C408.997274,36.2308721 409.149174,36.7473321 408.815974,36.9639121 L408.315194,37.2922121 C398.973834,43.3946721 387.957654,46.4218921 376.810154,45.9495321 L353.653734,44.9685521 C349.393674,64.5979521 343.138334,85.8071121 334.264434,100.200372 C333.676434,101.153912 332.419094,102.530812 330.564934,104.256592 L399.506954,104.256592 C423.243534,104.256592 446.620454,110.060152 467.602254,121.160612 L476.224294,125.722512 C478.367554,126.855392 477.561014,130.101152 475.137474,130.101152 L361.458591,130.101152 C363.220283,133.684 364.209706,137.715095 364.209706,141.977282 C364.209706,156.861356 352.14378,168.927282 337.259706,168.927282 C322.400165,168.927282 310.34949,156.9011 310.309804,142.05086 C310.309751,142.027911 310.309711,142.004959 310.309706,141.981999 C310.30971,142.004959 310.309743,142.027913 310.309804,142.05086 C310.310306,137.71265 311.299663,133.682913 313.06082,130.101152 L295.106574,130.101152 C279.913069,139.78629 261.405716,150.383511 241.526717,159.827807 L312.324978,231.631014 L253.371118,245.263794 L204.18928,175.309233 C194.160309,178.814249 184.087059,181.760953 174.186334,183.918832 C166.430906,185.609099 158.441855,186.878075 150.347961,187.770411 L126.012709,211.624992 L120.29106,211.624992 L130.394075,189.257809 L150.37032,187.770411 Z" id="Plane" fill="#FFFFFF"></path>
                                <path d="M150.37032,187.770411 L126.012709,211.624992 L120.29106,211.624992 L120.298095,211.609418 L113.92192,211.609418 C109.29436,211.609418 105.5439,217.775578 105.5439,225.383318 C105.5439,232.990078 109.29436,239.157218 113.92192,239.157218 L129.0688,239.156924 C133.695335,239.156837 137.446722,232.99071 137.446722,225.383024 C137.446722,217.775284 133.695282,211.609124 129.068702,211.609124 C129.050244,211.609124 129.0318,211.609222 129.01337,211.609418 L126.028597,211.609418 L150.37032,187.748493 L130.394075,189.257809 L131.243708,189.193614 C69.5409216,191.690579 7.59829614,174.738208 0.705753577,157.506852 C-7.81436642,136.206552 62.9014536,71.4550121 99.9640736,54.8410721 C130.966374,40.9427121 270.176354,48.8062321 314.867294,51.7481921 C321.650854,52.1950721 328.092394,49.2374321 332.189774,44.0591121 L281.031814,41.8923321 C280.292894,41.8619521 280.077294,40.8692121 280.735854,40.5340521 L286.132714,37.7920121 C289.517634,36.0721121 293.268094,35.1910921 297.065594,35.2253921 L337.044694,35.5840721 L344.701434,21.1868921 C347.662014,15.5264121 350.577514,9.28479205 354.144714,3.82521205 C360.242274,-4.58710795 360.647994,3.00299205 360.211894,6.42613205 C359.259334,13.8770721 357.749154,24.2768321 355.540234,35.7496921 L408.600374,36.2269521 C408.997274,36.2308721 409.149174,36.7473321 408.815974,36.9639121 L408.315194,37.2922121 C398.973834,43.3946721 387.957654,46.4218921 376.810154,45.9495321 L353.653734,44.9685521 C349.393674,64.5979521 343.138334,85.8071121 334.264434,100.200372 C333.676434,101.153912 332.419094,102.530812 330.564934,104.256592 L399.506954,104.256592 C423.243534,104.256592 446.620454,110.060152 467.602254,121.160612 L476.224294,125.722512 C478.367554,126.855392 477.561014,130.101152 475.137474,130.101152 L361.458591,130.101152 C363.220283,133.684 364.209706,137.715095 364.209706,141.977282 C364.209706,156.861356 352.14378,168.927282 337.259706,168.927282 C322.400165,168.927282 310.34949,156.9011 310.309804,142.05086 C310.309751,142.027911 310.309711,142.004959 310.309706,141.981999 C310.30971,142.004959 310.309743,142.027913 310.309804,142.05086 C310.310306,137.71265 311.299663,133.682913 313.06082,130.101152 L295.106574,130.101152 C279.913069,139.78629 261.405716,150.383511 241.526717,159.827807 L312.324978,231.631014 L253.371118,245.263794 L204.18928,175.309233 C194.160309,178.814249 184.087059,181.760953 174.186334,183.918832 C166.430906,185.609099 158.441855,186.878075 150.347961,187.770411 L126.012709,211.624992 L120.29106,211.624992 L130.394075,189.257809 L150.37032,187.770411 Z" id="Plane" fill-opacity="0.08" fill="#000000"></path>
                                <path d="M129.01337,211.609418 C129.0318,211.609124 129.050244,211.609124 129.068702,211.609124 C133.695282,211.609124 137.446722,217.775284 137.446722,225.383024 C137.446722,232.99071 133.695335,239.156837 129.0688,239.156924 L113.92192,239.157218 C109.29436,239.157218 105.5439,232.990078 105.5439,225.383318 C105.5439,217.775578 109.29436,211.609418 113.92192,211.609418 L129.01337,211.609418 L129.01337,211.609418 Z M140.564494,120.345938 C106.413968,117.648422 82.9683661,116.299663 70.2276883,116.299663 C55.8071217,116.299663 38.5108568,117.648422 18.3388936,120.345938 C18.3388936,120.345938 35.5810136,102.021898 41.6246736,96.4584381 C48.0083936,90.5803981 68.0503736,74.5779781 68.0503736,74.5779781 C86.0780564,74.4919341 101.244863,75.5660141 113.550794,77.8002181 C132.009689,81.1515241 146.255354,94.4337581 146.255354,112.903818 L146.255354,114.655078 C146.255354,117.797938 143.708334,120.345938 140.564494,120.345938 Z M183.886178,146.430794 C183.886178,146.430794 186.157818,130.101054 186.157818,112.776614 C186.157818,99.1232541 185.169978,89.4888741 184.496718,84.5114541 C184.217418,82.4456141 185.827558,80.6139941 187.912018,80.6139941 L219.274958,80.6139941 C220.990938,80.6139941 222.443298,81.8713341 222.685358,83.5696741 C223.349798,88.2158541 224.498358,97.8267141 224.498358,108.729214 C224.498358,123.947634 222.226718,140.253854 222.226718,140.253854 L312.324978,231.631014 L253.371118,245.263794 L183.886178,146.430794 Z M126.012709,211.624992 L120.29106,211.624992 L130.394075,189.257809 L150.37032,187.748493 L126.012709,211.624992 Z M313.777981,130.101152 L350.94143,130.101152 C353.136846,133.529036 354.409706,137.604513 354.409706,141.977282 C354.409706,154.155161 344.537584,164.027282 332.359706,164.027282 C320.181827,164.027282 310.309706,154.155161 310.309706,141.977282 C310.309706,137.604513 311.582565,133.529036 313.777981,130.101152 L313.777981,130.101152 Z" id="Plane-Details-Overlay" fill="#1377D5"></path>
                                <path d="M137.446722,225.383024 C137.446722,232.990764 133.695282,239.156924 129.068702,239.156924 C124.441142,239.156924 120.690682,232.990764 120.690682,225.383024 C120.690682,217.775284 124.441142,211.609124 129.068702,211.609124 C133.695282,211.609124 137.446722,217.775284 137.446722,225.383024 Z M183.886178,146.430794 C183.886178,146.430794 186.157818,130.101054 186.157818,112.776614 C186.157818,99.1232541 185.169978,89.4888741 184.496718,84.5114541 C184.217418,82.4456141 185.827558,80.6139941 187.912018,80.6139941 L219.274958,80.6139941 C220.990938,80.6139941 222.443298,81.8713341 222.685358,83.5696741 C223.349798,88.2158541 224.498358,97.8267141 224.498358,108.729214 C224.498358,123.947634 222.226718,140.253854 222.226718,140.253854 L312.324978,231.631014 L253.371118,245.263794 L183.886178,146.430794 Z M126.012709,211.624992 L120.29106,211.624992 L130.394075,189.257809 L150.37032,187.748493 L126.012709,211.624992 L126.012709,211.624992 Z M313.777981,130.101152 L350.94143,130.101152 C353.136846,133.529036 354.409706,137.604513 354.409706,141.977282 C354.409706,154.155161 344.537584,164.027282 332.359706,164.027282 C320.181827,164.027282 310.309706,154.155161 310.309706,141.977282 C310.309706,137.604513 311.582565,133.529036 313.777981,130.101152 L313.777981,130.101152 Z" id="Plane-Details-Overlay-2" fill-opacity="0.38" fill="#000000"></path>
                                <g id="Stairs" transform="translate(184.240000, 140.140000)">
                                    <polygon id="Stair-base" fill="#FFFFFF" points="-2.84217094e-14 6.177136 38.34054 0.000196 56.65772 0.000196 56.65772 18.105696 74.54958 18.105696 74.54958 36.210216 94.57196 36.210216 94.57196 55.379996 112.46382 55.379996 112.46382 72.846536 128.4388 72.846536 128.4388 91.377356 69.48494 105.010136 68.15508 84.229236 54.047 83.051276 54.79474 64.965376 41.43734 65.115316 41.7382 45.795596 27.91432 45.795596 27.67716 27.051136 14.54614 26.616996 14.03164 8.307656"></polygon>
                                    <path d="M128.438702,72.847026 L128.438702,91.377846 L69.484842,105.009646 L68.154982,84.228746 L128.438702,72.847026 Z M112.464016,55.379996 L112.464016,72.846536 L54.047196,83.051276 L52.848656,64.965376 L112.464016,55.379996 Z M94.571764,36.210902 L94.571764,55.379702 L41.437144,65.115022 L41.738004,45.795302 L94.571764,36.210902 Z M74.787426,18.105402 L74.787426,36.210902 L27.914026,45.795302 L26.820346,27.259582 L74.787426,18.105402 Z M56.658014,7.81597009e-14 L56.658014,18.1055 L14.546434,26.61778 L14.031934,8.30746 L56.658014,7.81597009e-14 Z" fill-opacity="0.04" fill="#000000"></path>
                                </g>
                            </g>
                        </g>
                        <g id="Person-6" transform="translate(280.280000, 253.124787)">
                            <g id="Pants-&amp;-Legs" transform="translate(0.000000, 41.160000)">
                                <path d="M42.8652,71.862028 L47.32322,71.862028 C48.05528,71.862028 48.72364,71.446508 49.04704,70.790888 L53.24242,62.282528 C53.4884,61.784688 53.4982,61.203548 53.26888,60.697868 L50.14954,53.821208 L47.99158,55.073648 L47.19386,68.175268 C47.13604,69.115088 46.5108,69.923588 45.61508,70.215628 L42.75152,71.149568 C42.35658,71.277948 42.44968,71.862028 42.8652,71.862028" id="Fill-42" fill="#000000"></path>
                                <path d="M12.152196,28.285446 L11.556356,35.438466 C11.493636,36.189146 10.827236,36.743826 10.076556,36.669346 L0.170716,35.685426 C-0.006664,35.666806 -0.020384,35.411026 0.155036,35.381626 C2.833376,34.941606 7.930356,34.613306 8.601656,33.382426 C9.453276,31.820306 9.817836,27.768986 9.817836,27.768986 L12.152196,28.285446 Z" id="Fill-44" fill="#000000"></path>
                                <path d="M6.733482,29.646372 L15.244782,31.941532 L19.565602,15.779372 C19.565602,15.779372 33.997082,10.831352 35.418082,9.128112 C36.837122,7.422912 35.418082,0.891212 35.418082,0.891212 L27.558482,0.455112 L9.712682,9.715132 L6.733482,29.646372 Z" id="Fill-46" fill="#212121"></path>
                                <polygon id="Fill-48" fill="#424242" points="43.122646 58.83773 53.204886 54.29347 36.185226 0.45521 23.951886 3.03163"></polygon>
                            </g>
                            <path d="M20.473572,7.296786 C20.473572,9.708566 18.876172,11.663666 16.905392,11.663666 C14.935592,11.663666 13.338192,9.708566 13.338192,7.296786 C13.338192,4.885006 14.935592,2.930886 16.905392,2.930886 C18.876172,2.930886 20.473572,4.885006 20.473572,7.296786" id="Face" fill="#FF8D6E"></path>
                            <g id="Hat-&amp;-Sweater" transform="translate(7.840000, 0.000000)">
                                <path d="M14.018116,12.30243 C14.018116,12.30243 18.384016,15.07191 21.081956,19.90037 C23.780876,24.72687 30.737896,46.73767 30.737896,46.73767 L15.970276,44.46603 C15.970276,44.46603 14.266056,39.21225 12.703936,34.52491 C12.4007445,33.614955 12.0921194,32.4695777 11.791607,31.2145434 L3.72155,31.436734 L4.89265,27.283494 L10.39339,26.120234 C10.39339,26.120234 10.3124086,25.1744872 10.1832013,23.3129888 C9.72987406,20.7854613 9.437596,18.91253 9.437596,18.91253 C9.437596,18.91253 9.143596,13.33143 10.893876,12.72873 C12.952856,12.01921 14.018116,12.30243 14.018116,12.30243 Z M2.40933,1.04958 C4.82307,1.68756 6.20781,2.29124 6.20781,2.29124 C6.20781,2.29124 9.89947,0.09016 12.10055,1.7591 C14.30163,3.42804 13.34319,7.08442 13.34319,7.08442 L0.20825,1.3328 C0.20825,1.3328 -0.00441,0.40964 2.40933,1.04958 Z" fill="#733802"></path>
                                <path d="M4.89265,27.283494 L3.72155,31.436734 L13.83025,31.158414 C14.77987,31.131954 15.53251,30.353834 15.52075,29.404214 C15.47273,25.466574 15.30907,15.992914 14.83279,14.787514 C14.22911,13.260674 9.50747,12.019014 9.82695,17.627554 C10.14643,23.236094 10.39339,26.120234 10.39339,26.120234 L4.89265,27.283494 Z" id="Sleeve-Overlay" fill-opacity="0.35" fill="#FFFFFF"></path>
                            </g>
                            <g id="Backpack" transform="translate(9.800000, 5.880000)">
                                <path d="M38.384836,26.790162 C36.822716,35.379862 26.385716,35.734622 26.385716,35.734622 C26.385716,35.734622 26.630716,36.414742 25.951576,34.406722 L0.369656,25.237842 L1.038996,22.174362 L7.614796,10.124282 C8.753556,8.035902 11.864076,7.084322 13.975976,8.178002 C11.9916099,6.36661414 11.76,6.18142057 11.76,6.18142057 C11.76,6.18142057 12.18924,4.79178057 14.48342,2.75534057 C17.67234,-0.0778394349 20.57412,-0.441419435 25.35554,0.393540565 C30.69752,1.32650057 34.9699015,11.9107717 34.9699015,11.9107717 M1.76155,25.556734 L7.70344167,25.3904573 L24.338496,29.667442 C22.456896,24.218642 19.734456,16.693222 18.203696,14.090342 C17.690176,13.215202 17.114916,12.389062 16.527896,11.622702 L10.895836,10.120362 L3.46987484,21.2839022 L1.76155,25.556734 Z" fill="#212121"></path>
                                <path d="M24.92826,12.6180606 C32.1832,13.9244006 34.9699015,11.9107717 34.9699015,11.9107717 C34.9699015,11.9107717 30.69752,1.32650057 25.35554,0.393540565 C20.57412,-0.441419435 17.67234,-0.0778394349 14.48342,2.75534057 C12.18924,4.79178057 11.76,6.18142057 11.76,6.18142057 C11.76,6.18142057 17.67234,11.3127006 24.92826,12.6180606 Z" id="Overlay" fill-opacity="0.3" fill="#FFFFFF"></path>
                            </g>
                            <path d="M12.8741889,28.1672188 C10.8331111,27.3518791 10.6040233,27.44 9.8582433,27.44 C9.1134433,27.44 8.4029433,29.67636 9.1134433,30.20948 C9.8229633,30.74162 11.9049074,30.6284175 11.9049074,30.6284175 L12.8741889,28.1672188 Z" id="Hand" fill="#FF8D6E"></path>
                        </g>
                    </g>
                </g>
            </g>
        </g>
    </g>
</svg>