<?xml version="1.0" encoding="UTF-8"?>
<svg width="361px" height="250px" viewBox="0 0 361 414" version="1.1" xmlns="http://www.w3.org/2000/svg" xmlns:xlink="http://www.w3.org/1999/xlink">
    <!-- Generator: Sketch 59.1 (86144) - https://sketch.com -->
    <title>Illustrations/Onboarding 1</title>
    <desc>Created with Sketch.</desc>
    <defs>
        <polygon id="path-1" points="0.787 18.422 164.787 18.422 164.787 0 0.787 0"></polygon>
        <path d="M49.6887559,229.128984 C50.2507559,229.878984 73.1257559,227.441984 73.1257559,227.441984 C73.1257559,227.441984 66.5637559,132.003984 63.1887559,116.441984 C59.8137559,100.879984 54.3137559,88.1919838 54.3137559,88.1919838 L32.7517559,88.1919838 C32.7517559,88.1919838 25.6077559,101.651984 23.8137559,116.066984 C19.9337559,147.247984 19.4707559,202.358984 18.1887559,208.128984 L16.3137559,216.565984 C16.3137559,216.565984 23.6267559,227.441984 30.9387559,229.128984 C38.2507559,230.815984 38.8137559,230.065984 38.8137559,230.065984 L43.5017559,130.878984 L49.6887559,229.128984 Z" id="path-3"></path>
    </defs>
    <g id="Page-1" stroke="none" stroke-width="1" fill="none" fill-rule="evenodd">
        <g id="Slide-2" transform="translate(-102.000000, -68.000000)">
            <g id="Carousel" transform="translate(40.000000, 40.000000)">
                <g id="Illustrations/Onboarding-1" transform="translate(0.000000, 28.000000)">
                    <g id="Onboarding-v.1">
                        <g id="Page-and-Person" transform="translate(97.000000, 0.000000)">
                            <g id="Page">
                                <path d="M0,40 L279,40 L279,380 C279,388.836556 271.836556,396 263,396 L16,396 C7.163444,396 1.082166e-15,388.836556 0,380 L0,40 L0,40 Z" id="Rectangle" fill="#F5F5F5"></path>
                                <path d="M0,0 L279,0 L279,24 C279,32.836556 271.836556,40 263,40 L16,40 C7.163444,40 1.082166e-15,32.836556 0,24 L0,0 L0,0 Z" id="Rectangle" fill="#EBEBEB" transform="translate(139.500000, 20.000000) scale(1, -1) translate(-139.500000, -20.000000) "></path>
                                <path d="M25.4857,21.2347 C25.4857,23.6417 23.5347,25.5937 21.1267,25.5937 C18.7187,25.5937 16.7667,23.6417 16.7667,21.2347 C16.7667,18.8277 18.7187,16.8757 21.1267,16.8757 C23.5347,16.8757 25.4857,18.8277 25.4857,21.2347" id="Fill-22" fill="#FF134A"></path>
                                <path d="M41.4857,21.2347 C41.4857,23.6417 39.5347,25.5937 37.1267,25.5937 C34.7187,25.5937 32.7667,23.6417 32.7667,21.2347 C32.7667,18.8277 34.7187,16.8757 37.1267,16.8757 C39.5347,16.8757 41.4857,18.8277 41.4857,21.2347" id="Fill-24" fill="#FBB13C"></path>
                                <path d="M57.4857,21.2347 C57.4857,23.6417 55.5347,25.5937 53.1267,25.5937 C50.7187,25.5937 48.7667,23.6417 48.7667,21.2347 C48.7667,18.8277 50.7187,16.8757 53.1267,16.8757 C55.5347,16.8757 57.4857,18.8277 57.4857,21.2347" id="Fill-26" fill="#4EB862"></path>
                                <polygon id="Fill-28" fill="#E0E0E0" points="53.126 148.813 223.204 148.813 223.204 68.25 53.126 68.25"></polygon>
                                <path d="M139.204,238.25 L139.204,242.813 L53.126,242.813 L53.126,238.25 L139.204,238.25 Z M223.204,228.25 L223.204,233.813 L53.126,233.813 L53.126,228.25 L223.204,228.25 Z M139.204,208.25 L139.204,212.813 L53.126,212.813 L53.126,208.25 L139.204,208.25 Z M223.204,198.25 L223.204,203.813 L53.126,203.813 L53.126,198.25 L223.204,198.25 Z M223.204,188.25 L223.204,193.813 L53.126,193.813 L53.126,188.25 L223.204,188.25 Z M223.204,178.25 L223.204,183.813 L53.126,183.813 L53.126,178.25 L223.204,178.25 Z M223.204,168.25 L223.204,173.813 L53.126,173.813 L53.126,168.25 L223.204,168.25 Z" id="Text" fill="#E0E0E0"></path>
                                <g id="Group" transform="translate(55.272000, 311.705000)">
                                    <mask id="mask-2" fill="white">
                                        <use xlink:href="#path-1"></use>
                                    </mask>
                                    <g id="Fill-31"></g>
                                    <polygon id="Fill-30" fill="#FF134A" mask="url(#mask-2)" points="1 18.422 76.272 18.422 76.272 0 1 0"></polygon>
                                    <polygon id="Fill-31" fill="#4EB862" mask="url(#mask-2)" points="89.515 18.422 164.787 18.422 164.787 0 89.515 0"></polygon>
                                </g>
                            </g>
                            <g id="Person-2" transform="translate(222.288056, 149.561237)">
                                <path d="M71.7914444,226.938163 L72.1024444,227.834163 L74.9794444,236.126163 L79.2914444,234.438163 L77.9784444,229.001163 C77.9784444,229.001163 81.6984444,234.436163 93.3534444,229.376163 C97.1194444,227.741163 100.618444,226.574163 102.592444,225.330163 C103.174444,224.962163 102.877444,224.063163 102.191444,224.104163 C96.1714444,224.463163 81.4344444,224.674163 80.0814444,221.217163 C78.3944444,216.905163 78.5414444,214.375163 78.5414444,214.375163 L68.6034444,217.750163 L71.7914444,226.938163 Z" id="Shoe" fill="#84635B"></path>
                                <polygon id="Man's-Pants" fill="#034A58" points="65.9789444 226.000663 85.2909444 217.562663 58.6810444 104.146547 56.5899298 111.063798 56.5899298 195.754802"></polygon>
                                <path d="M18.1664444,34.0015631 L0.916444444,10.5645631 C0.916444444,10.5645631 -1.14555556,9.06456306 0.916444444,12.8145631 C2.97844444,16.5645631 6.54144444,22.1345631 6.54144444,22.1345631 C6.54144444,22.1345631 1.47944444,25.7515631 3.54144444,29.1265631 C5.60344444,32.5015631 13.2914444,38.5015631 13.2914444,38.5015631 L18.1664444,34.0015631 Z" id="Fist" fill="#FF8D6E"></path>
                                <path d="M56.7119444,74.9510199 C49.5294596,76.7684496 40.4725293,76.9114109 34.8529444,73.5637631 C26.0409444,68.3137631 5.04194444,44.5017631 5.04194444,44.5017631 L16.2909444,30.4387631 C16.2909444,30.4387631 30.7279444,48.4387631 39.7279444,54.6267631 C45.3782096,58.5110065 51.4730668,54.0528418 56.7119444,50.4421347 L56.7119444,33.3410304 C57.6489444,33.5280304 76.1242444,44.3664631 78.7782444,47.7184631 C84.7035778,55.1991297 80.1535772,73.8403313 65.1282428,103.642068 L60.7085689,112.251163 L56.7119444,111.126323 L56.7119444,74.9510199 L56.7119444,74.9510199 Z" id="Sweater" fill="#FBB13C"></path>
                                <path d="M69.6752444,30.4390631 L68.2672444,41.8850631 C68.2672444,41.8850631 67.5442444,43.6570631 66.3552444,43.9600631 C60.2912444,45.5060631 57.9312444,42.1170631 57.9312444,42.1170631 L57.9312444,35.3210631 L68.2672444,35.0110631" id="Neck" fill="#E5745A"></path>
                                <path d="M74.2611448,16.8580631 C74.2611448,14.3360631 73.5481444,11.8380631 72.1291444,9.75306306 C70.0101444,6.63606306 65.8631444,3.52906306 58.0411444,5.99406306 C44.3541444,10.3060631 52.1991444,35.2780631 53.5011444,36.6290631 C55.4161444,38.6170631 58.7931444,39.2670631 65.1751444,36.9290631 C72.2771444,34.3280631 74.2621444,23.5420631 74.2611448,16.8580631" id="Head" fill="#FF8D6E"></path>
                                <path d="M72.8373444,27.7125631 C72.8373444,27.7125631 74.0963444,19.7515631 71.8463444,17.5015631 C69.5963444,15.2515631 68.8463444,21.6825631 68.8463444,21.6825631 C68.8463444,21.6825631 49.1203444,21.0935631 46.6833444,11.3435631 C44.2453444,1.59356306 53.2833444,-0.873436937 58.1583444,0.251563063 C63.0333444,1.37656306 72.7983444,1.68556306 74.7553444,7.00156306 C77.9563444,15.6945631 72.8373444,27.7125631 72.8373444,27.7125631" id="Hair" fill="#000000"></path>
                                <path d="M54.4935444,24.7457631 C54.4935444,24.7457631 48.4105444,32.0427631 52.0215444,33.2387631 C55.6335444,34.4347631 54.4935444,24.7457631 54.4935444,24.7457631" id="Nose" fill="#E5745A"></path>
                                <g id="Eyes" transform="translate(50.881444, 22.809463)" fill="#000000">
                                    <path d="M7.7996,1.9685 C7.7996,2.8385 7.5306,3.5435 7.1996,3.5435 C6.8676,3.5435 6.5996,2.8385 6.5996,1.9685 C6.5996,1.0995 6.8676,0.3945 7.1996,0.3945 C7.5306,0.3945 7.7996,1.0995 7.7996,1.9685" id="Fill-37"></path>
                                    <path d="M1.2,1.575 C1.2,2.445 0.93,3.15 0.599,3.15 C0.268,3.15 -1.44972923e-12,2.445 -1.44972923e-12,1.575 C-1.44972923e-12,0.705 0.268,2.22044605e-16 0.599,2.22044605e-16 C0.93,2.22044605e-16 1.2,0.705 1.2,1.575" id="Fill-38"></path>
                                </g>
                            </g>
                        </g>
                        <g id="Person-4" transform="translate(62.953244, 173.620416)">
                            <path d="M54.7512559,226.384784 L54.7512559,239.509784 L58.3142559,239.509784 L58.3142559,235.009784 C58.3142559,235.009784 61.7292559,239.322784 64.5412559,239.509784 C66.7612559,239.657784 72.1592559,239.577784 74.3402559,239.536784 C74.5612559,239.532784 74.6262559,239.234784 74.4242559,239.144784 C71.8932559,238.007784 64.4972559,234.516784 62.9542559,231.855784 C61.3122559,229.022784 61.3132559,224.697784 61.3132559,224.697784 L54.7512559,226.384784 Z" id="Fill-39" fill="#000000"></path>
                            <path d="M26.4797559,237.378984 C27.0417559,237.191984 30.0007559,237.378984 30.0007559,237.378984 L30.0007559,224.440984 L24.9327559,221.134984 L24.2697559,225.329984 C24.0547559,226.689984 22.4967559,227.358984 21.3627559,226.579984 L15.2727559,222.396984 C14.9377559,222.113984 14.4277559,222.375984 14.4677559,222.812984 C14.6867559,225.146984 15.4517559,230.377984 18.0007559,232.691984 C19.8897559,234.404984 23.9017559,236.462984 23.9017559,236.462984 L26.4327559,233.040984 L26.4797559,237.378984 Z" id="Fill-40" fill="#000000"></path>
                            <g id="Woman's-Pants">
                                <use fill="#E41C77" xlink:href="#path-3"></use>
                                <use fill-opacity="0.25" fill="#FF0000" style="mix-blend-mode: saturation;" xlink:href="#path-3"></use>
                                <use fill-opacity="0.18" fill="#000000" style="mix-blend-mode: darken;" xlink:href="#path-3"></use>
                            </g>
                            <path d="M37.0442559,47.4863838 C37.0442559,47.4863838 41.1692559,38.8613838 40.9822559,31.9233838 C40.7942559,24.9863838 34.2942559,13.5653838 39.3572559,6.12038378 C42.9802559,0.792383779 51.1152559,-0.339616221 56.1372559,4.18938378 C58.1332559,5.98938378 58.3832559,8.01838378 58.9162559,11.6983838 C60.7912559,24.6343838 58.2312559,29.1113838 58.2312559,29.1113838 C58.2312559,29.1113838 55.6062559,30.9863838 52.9822559,30.7993838 L50.3572559,30.6113838 L49.7942559,48.7983838 L37.0442559,47.4863838 Z" id="Fill-42" fill="#FF8D6E"></path>
                            <path d="M53.9944559,1.27638378 C53.9944559,1.27638378 54.7154559,7.50538378 53.8894559,11.2553838 L53.0634559,15.0053838 C53.0634559,15.0053838 46.5014559,7.69238378 45.9384559,13.1303838 C45.3764559,18.5673838 49.3134559,18.7553838 49.3134559,18.7553838 C49.3134559,18.7553838 51.8254559,27.4863838 53.9944559,30.7283838 C56.3854559,34.3023838 58.6884559,38.0673838 58.6884559,38.0673838 C58.6884559,38.0673838 48.0884559,39.7983838 40.1024559,39.0473838 C34.5254559,38.5233838 25.5014559,35.8173838 25.5014559,35.8173838 C25.5014559,35.8173838 33.3764559,18.5053838 34.6884559,12.3173838 C36.0014559,6.13038378 40.2584559,-0.293616221 45.4634559,0.0103837786 C50.6684559,0.314383779 53.9944559,1.27638378 53.9944559,1.27638378" id="Hair" fill="#FBB13C"></path>
                            <path d="M56.8137559,16.4345838 C57.9127559,16.6425838 58.8677559,16.9955838 59.8127559,17.2045838 C60.2937559,17.3215838 60.7027559,17.3715838 61.1847559,17.3345838 C61.7157559,17.2915838 62.2537559,17.2835838 62.8137559,17.3715838 C62.3437559,17.6905838 61.8527559,17.9105838 61.3547559,18.0965838 C60.8087559,18.3195838 60.1357559,18.3035838 59.5937559,18.1785838 C59.0357559,18.0405838 58.5187559,17.8245838 58.0517559,17.5295838 C57.5847559,17.2395838 57.1547559,16.8895838 56.8137559,16.4345838" id="Fill-44" fill="#000000"></path>
                            <path d="M73.1262559,76.5517838 L76.6422559,80.9107838 C76.6422559,80.9107838 57.9682559,97.8157838 58.5202559,99.5127838 C59.0722559,101.208784 61.0322559,109.739784 63.2822559,110.582784 C65.5322559,111.426784 67.9462559,108.051784 68.9192559,106.645784 C69.8922559,105.238784 69.8982559,104.957784 67.5752559,106.363784 C65.2512559,107.770784 63.1422559,104.817784 63.7042559,102.988784 C64.2672559,101.160784 64.4072559,99.1927838 64.4072559,99.1927838 C64.4072559,99.1927838 84.5402559,84.1457838 84.9502559,83.5827838 C85.3602559,83.0207838 79.8762559,72.6137838 79.8762559,72.6137838 L73.1262559,76.5517838 Z" id="Fill-45" fill="#FF8D6E"></path>
                            <path d="M4.67995595,72.8300838 C4.50195595,72.7090838 3.72995595,70.4440838 3.60495595,70.6190838 C2.69895595,71.8840838 1.58895595,70.7600838 0.000955948923,79.7860838 C-0.171044051,80.7650838 22.9229559,94.5520838 24.3289559,95.1140838 C25.7359559,95.6770838 23.3449559,97.7860838 23.3449559,99.6140838 L23.3449559,101.442084 L20.7869559,100.163084 C20.6349559,100.087084 20.5479559,99.9230838 20.5719559,99.7540838 C20.5719559,99.7540838 21.4019559,96.3910838 20.9539559,96.9420838 C20.4919559,97.5140838 18.7299559,101.130084 18.7299559,101.130084 C18.6349559,101.308084 18.6889559,101.528084 18.8549559,101.642084 L25.3249559,106.109084 C25.5399559,106.259084 25.8399559,106.160084 25.9249559,105.911084 L29.6849559,94.9420838 C29.7359559,94.7940838 29.6939559,94.6280838 29.5769559,94.5210838 L9.58595595,76.1490838 C9.57195595,76.1360838 9.55595595,76.1240838 9.53895595,76.1130838 L4.67995595,72.8300838 Z" id="Fill-46" fill="#FF8D6E"></path>
                            <path d="M38.8049559,43.0752838 C38.8049559,43.0752838 40.1259559,44.8172838 43.3139559,45.0052838 C46.5009559,45.1922838 50.2159559,43.0752838 50.2159559,43.0752838 L66.0009559,46.6922838 C66.0009559,46.6922838 82.6889559,69.5672838 84.7509559,72.9422838 C86.8139559,76.3172838 72.1889559,80.0672838 72.1889559,80.0672838 L61.8769559,67.6922838 L57.3759559,91.1922838 C57.3759559,91.1922838 48.3759559,94.3802838 39.9389559,93.2552838 C31.5009559,92.1302838 29.8139559,91.1922838 29.8139559,91.1922838 L27.3759559,64.8802838 L13.5009559,78.1922838 C13.5009559,78.1922838 3.75095595,78.7552838 1.87595595,75.0052838 C0.000955948923,71.2552838 0.000955948923,69.7552838 0.000955948923,69.7552838 L21.9389559,45.3802838 L38.8049559,43.0752838 Z" id="T-shirt" fill="#FFFFFF"></path>
                        </g>
                    </g>
                </g>
            </g>
        </g>
    </g>
</svg>