<?xml version="1.0" encoding="UTF-8"?>
<svg width="494px" height="350px" viewBox="0 0 494 414" version="1.1" xmlns="http://www.w3.org/2000/svg" xmlns:xlink="http://www.w3.org/1999/xlink">
    <!-- Generator: Sketch 59.1 (86144) - https://sketch.com -->
    <title>Illustrations/Error 404</title>
    <desc>Created with Sketch.</desc>
    <defs>
        <path d="M363.152446,79.6131109 C366.715446,83.1761109 366.715446,88.9541109 363.152446,92.5161109 C359.589446,96.0801109 353.812446,96.0801109 350.249446,92.5161109 C346.685446,88.9541109 346.685446,83.1761109 350.249446,79.6131109 C353.812446,76.0501109 359.589446,76.0501109 363.152446,79.6131109" id="path-1"></path>
        <path d="M276.595014,0.38280477 C323.239235,-1.36357863 372.354601,7.17973876 415.52624,29.3169241 C432.312049,37.9239245 451.020858,48.8688253 459.592483,69.8413468 C469.140586,93.2007556 462.888341,120.574642 462.756547,145.360795 C462.450025,203.166575 491.319979,264.77129 451.985353,313.16546 C436.09914,332.711238 414.739468,350.353874 393.462666,359.421352 C369.410195,369.670638 344.029796,366.435053 319.257448,363.007194 C269.61191,356.138004 227.475655,366.949415 179.300822,380.529812 C138.135053,392.136036 90.3576,399.427738 53.3902801,368.141022 C37.0377948,354.300995 24.7399831,332.864322 21.3882128,308.629272 C17.9715438,283.921499 26.4702833,265.668976 34.127336,243.820813 C51.1367962,195.290704 12.6987709,153.917583 33.384495,105.59322 C53.5759903,58.421273 98.1065094,45.1813355 136.954894,33.7612617 C182.928162,20.2469974 228.988295,2.16592835 276.595014,0.38280477 Z M8.88012917,175.434472 C15.2821401,169.571963 19.8120721,174.904189 21.2168802,184.523993 L21.2131565,184.503485 L21.2108475,184.475771 C21.0541934,183.075501 24.829956,198.747715 24.26385,208.698717 L24.2451551,209.001528 C23.6291163,218.266178 19.6413385,244.552555 6.97010937,239.662436 C-1.17518155,236.519926 0.601047005,221.182124 1.02838024,213.560985 C1.55555768,204.191014 2.04778965,181.691325 8.88012917,175.434472 Z M482.532191,168.022017 C489.583189,167.047178 489.340568,195.136273 482.131815,196.381765 C472.346084,198.074263 477.079698,177.677338 479.748534,170.642817 C480.271718,169.263836 481.301112,168.192247 482.532191,168.022017 Z M473.542717,97.1881678 C475.397822,85.6750189 490.06294,79.6055405 493.696271,97.6094552 C496.079553,109.412852 494.22245,150.876598 480.183356,153.071212 C467.99038,154.976803 472.333604,104.696637 473.542717,97.1881678 Z M12.1743891,114.001211 C22.5811515,112.415259 9.30486645,142.433214 5.34804028,145.436112 C0.493614631,149.118703 -0.344078318,115.910476 12.1743891,114.001211 Z M480.59935,412.491896 L481.597338,412.491896 L481.597338,413.715426 L480.59935,413.715426 L480.59935,412.491896 Z" id="path-2"></path>
        <path d="M175.558447,3.34148236 C178.975623,10.0748424 162.282197,25.9589356 135.078594,43.4407585 C134.591335,40.3452774 133.829078,37.3412286 132.816988,34.4546606 C143.197319,27.623061 149.143339,22.4757707 148.176804,20.6485331 C146.256474,17.0181436 117.776381,27.8682436 84.5647376,44.8829098 C51.3530936,61.897576 25.9864719,78.6337004 27.9068021,82.26409 C28.6716187,83.7099779 33.6493922,82.8589448 41.4611285,80.2363478 C43.1286789,82.7118105 45.0053329,85.0342665 47.0659279,87.1786551 C21.8036192,96.2200182 3.48914146,98.9292119 0.441553089,92.9241176 C-4.38468146,83.4142832 30.9041288,55.651286 79.2613212,30.9137256 C127.618514,6.17616521 170.732203,-6.16834756 175.558447,3.34148236 Z" id="path-4"></path>
        <path d="M166.765882,9.85719295 C168.96334,14.1862299 155.758983,25.7076072 134.250934,39.2956023 C133.850217,37.6503249 133.371191,36.0353993 132.817338,34.4556586 C143.197193,27.6231704 149.143349,22.4757901 148.176804,20.6485331 C146.256474,17.0181436 117.776381,27.8682436 84.5647376,44.8829098 C51.3530936,61.897576 25.9864719,78.6337004 27.9068021,82.26409 C28.6716187,83.7099779 33.6493922,82.8589448 41.4611285,80.2363478 C42.2799344,81.4518848 43.1493275,82.6307289 44.0662075,83.7697333 C27.0638412,89.7433018 15.4252982,91.7103815 13.6356584,88.1847611 C10.3275249,81.6676718 41.9251182,58.850305 84.2108606,37.2207449 C126.496603,15.5911848 163.457744,3.3401058 166.765882,9.85719295 Z" id="path-5"></path>
        <path d="M16.9561,23.6241 C16.9561,23.6241 13.2981,21.8911 10.6021,27.6681 C7.9051,33.4441 4.4391,34.2151 5.9801,38.8361 C7.5201,43.4581 12.2031,48.4641 14.4831,41.1461 C16.7641,33.8301 20.0371,34.6001 21.9631,29.7861 C23.8891,24.9721 16.9561,23.6241 16.9561,23.6241" id="path-6"></path>
        <path d="M26.126,11.878 C24.008,13.033 20.156,17.484 23.815,17.666 C27.474,17.847 28.244,16.317 32.673,14.772 C37.102,13.226 42.301,7.256 38.258,6.679 C34.214,6.101 26.126,11.878 26.126,11.878" id="path-7"></path>
        <path d="M77.3467,40.8204 C76.3847,42.7464 74.0737,44.2864 76.1917,47.1744 C78.3097,50.0624 77.7327,51.0254 77.3467,54.8774 C76.9617,58.7284 79.4657,59.3054 81.1987,53.5294 C82.9317,47.7524 84.0867,38.8944 81.9687,37.9314 C79.8507,36.9684 77.3467,40.8204 77.3467,40.8204" id="path-8"></path>
        <path d="M276.025609,0.220558234 C322.66945,-1.52771304 371.784415,7.02483985 414.955703,29.185956 C431.741376,37.8022607 450.450032,48.7589931 459.021588,69.7541863 C468.569612,93.1388471 462.317418,120.542325 462.185625,145.355272 C461.879106,203.223542 490.748825,264.894853 451.414519,313.341338 C435.528436,332.908245 414.168937,350.569953 392.892309,359.647233 C368.840034,369.907599 343.459841,366.668516 318.687695,363.236951 C269.042562,356.360336 226.90665,367.183435 178.73221,380.778512 C137.566776,392.397282 89.789712,399.696867 52.8226932,368.376329 C36.4703412,354.521341 24.1726296,333.061495 20.8208867,308.800246 C17.4042455,284.065763 25.9029157,265.793509 33.5599061,243.921728 C50.5692277,195.339157 12.1315156,153.921311 32.8170712,105.544708 C53.0084019,58.3217672 97.5385583,45.067517 136.386627,33.6350979 C182.35952,20.1062245 228.419278,2.00560941 276.025609,0.220558234 Z M8.31290491,175.46146 C14.7148637,169.592614 19.2447588,174.930603 20.6495554,184.560807 C20.4069359,182.772078 24.3467565,199.021438 23.6778057,209.064803 C23.0617719,218.339468 19.0740266,244.654261 6.40290067,239.758856 C-1.74232389,236.612948 0.0338901896,221.258566 0.461219941,213.629189 C0.988393093,204.249088 1.48062105,181.725077 8.31290491,175.46146 Z M481.961108,168.040992 C489.012049,167.065099 488.76943,195.184559 481.560736,196.431397 C471.775084,198.125725 476.50866,177.70675 479.177474,170.664625 C479.700653,169.284153 480.730039,168.211406 481.961108,168.040992 Z M472.971708,97.1305697 C474.826798,85.6049749 489.491797,79.5289353 493.125098,97.5523126 C495.50836,109.368469 493.651273,150.877038 479.612292,153.074025 C467.419416,154.981675 471.762604,104.647155 472.971708,97.1305697 Z M11.607138,113.961788 C22.0138156,112.374122 8.73763873,142.424527 4.7808448,145.430671 C-0.0735413087,149.117243 -0.911227434,115.873117 11.607138,113.961788 Z M480.028283,412.775148 L481.026263,412.775148 L481.026263,414 L480.028283,414 L480.028283,412.775148 Z" id="path-9"></path>
    </defs>
    <g id="Page-1" stroke="none" stroke-width="1" fill="none" fill-rule="evenodd">
        <g id="Slide-3" transform="translate(-40.000000, -68.000000)">
            <g id="Carousel" transform="translate(40.000000, 40.000000)">
                <g id="Illustrations/Error-404" transform="translate(0.000000, 28.000000)">
                    <g id="_Overrides/Illustrations/Background/6-blobs" fill="#000000">
                        <path d="M236.399461,380.616558 C257.080024,376.878494 279.690561,375.056663 299.742111,383.717103 C315.756992,390.635403 301.766935,402.038398 292.284807,402.859816 C279.538799,403.966891 266.540187,403.025325 253.746253,403.776861 C232.8041,405.010214 184.249256,428.163161 182.327271,400.418856 C180.964408,380.753869 221.010598,383.397118 236.399461,380.616558 Z M276.025609,0.220558234 C322.66945,-1.52771304 371.784415,7.02483985 414.955703,29.185956 C431.741376,37.8022607 450.450032,48.7589931 459.021588,69.7541863 C468.569612,93.1388471 462.317418,120.542325 462.185625,145.355272 C461.879106,203.223542 490.748825,264.894853 451.414519,313.341338 C435.528436,332.908245 414.168937,350.569953 392.892309,359.647233 C368.840034,369.907599 343.459841,366.668516 318.687695,363.236951 C269.042562,356.360336 226.90665,367.183435 178.73221,380.778512 C137.566776,392.397282 89.789712,399.696867 52.8226932,368.376329 C36.4703412,354.521341 24.1726296,333.061495 20.8208867,308.800246 C17.4042455,284.065763 25.9029157,265.793509 33.5599061,243.921728 C50.5692277,195.339157 12.1315156,153.921311 32.8170712,105.544708 C53.0084019,58.3217672 97.5385583,45.067517 136.386627,33.6350979 C182.35952,20.1062245 228.419278,2.00560941 276.025609,0.220558234 Z M8.31290491,175.46146 C14.7148637,169.592614 19.2447588,174.930603 20.6495554,184.560807 C20.4069359,182.772078 24.3467565,199.021438 23.6778057,209.064803 C23.0617719,218.339468 19.0740266,244.654261 6.40290067,239.758856 C-1.74232389,236.612948 0.0338901896,221.258566 0.461219941,213.629189 C0.988393093,204.249088 1.48062105,181.725077 8.31290491,175.46146 Z M481.961108,168.040992 C489.012049,167.065099 488.76943,195.184559 481.560736,196.431397 C471.775084,198.125725 476.50866,177.70675 479.177474,170.664625 C479.700653,169.284153 480.730039,168.211406 481.961108,168.040992 Z M472.971708,97.1305697 C474.826798,85.6049749 489.491797,79.5289353 493.125098,97.5523126 C495.50836,109.368469 493.651273,150.877038 479.612292,153.074025 C467.419416,154.981675 471.762604,104.647155 472.971708,97.1305697 Z M11.607138,113.961788 C22.0138156,112.374122 8.73763873,142.424527 4.7808448,145.430671 C-0.0735413087,149.117243 -0.911227434,115.873117 11.607138,113.961788 Z" id="Background"></path>
                    </g>
                    <g id="Planets" stroke-width="1" transform="translate(-1.000000, -1.000000)">
                        <g id="Mercury">
                            <use fill="#0099FF" xlink:href="#path-1"></use>
                            <use fill-opacity="0.1" fill="#FFFFFF" style="mix-blend-mode: saturation;" xlink:href="#path-1"></use>
                            <use fill-opacity="0.64" fill="#FFFFFF" style="mix-blend-mode: lighten;" xlink:href="#path-1"></use>
                        </g>
                        <g id="Saturn" transform="translate(0.430831, 1.061045)">
                            <mask id="mask-3" fill="white">
                                <use xlink:href="#path-2"></use>
                            </mask>
                            <g id="Mask"></g>
                            <g id="Planet" mask="url(#mask-3)">
                                <g transform="translate(243.626673, 272.123529)">
                                    <circle id="Saturn" fill="#E41C77" cx="84.2047245" cy="51.5" r="51.5"></circle>
                                    <g id="Outer-Saturn-Ring" fill="none">
                                        <use fill="#E41C77" xlink:href="#path-4"></use>
                                        <use fill-opacity="0.1" fill="#FFFFFF" style="mix-blend-mode: saturation;" xlink:href="#path-4"></use>
                                        <use fill-opacity="0.64" fill="#FFFFFF" style="mix-blend-mode: lighten;" xlink:href="#path-4"></use>
                                    </g>
                                    <g id="Inner-Saturn-Ring" fill="none">
                                        <use fill="#E41C77" xlink:href="#path-5"></use>
                                        <use fill-opacity="0.16" fill="#FF0000" style="mix-blend-mode: saturation;" xlink:href="#path-5"></use>
                                        <use fill-opacity="0.34" fill="#000000" style="mix-blend-mode: darken;" xlink:href="#path-5"></use>
                                    </g>
                                </g>
                            </g>
                        </g>
                        <path d="M87.8014787,255.812104 C87.8014787,265.563104 79.8964787,273.468104 70.1454787,273.468104 C60.3934787,273.468104 52.4884787,265.563104 52.4884787,255.812104 C52.4884787,246.060104 60.3934787,238.156104 70.1454787,238.156104 C79.8964787,238.156104 87.8014787,246.060104 87.8014787,255.812104" id="Venus" fill="#4EB862"></path>
                        <g id="Earth" transform="translate(96.968290, 26.736518)">
                            <path d="M87.25,43.625 C87.25,67.719 67.718,87.25 43.625,87.25 C19.531,87.25 0,67.719 0,43.625 C0,19.531 19.531,0 43.625,0 C67.718,0 87.25,19.531 87.25,43.625" fill="#0099FF"></path>
                            <g id="Water-3">
                                <use fill="#0099FF" xlink:href="#path-6"></use>
                                <use fill-opacity="0.1" fill="#FFFFFF" style="mix-blend-mode: saturation;" xlink:href="#path-6"></use>
                                <use fill-opacity="0.64" fill="#FFFFFF" style="mix-blend-mode: lighten;" xlink:href="#path-6"></use>
                            </g>
                            <g id="Water-2">
                                <use fill="#0099FF" xlink:href="#path-7"></use>
                                <use fill-opacity="0.1" fill="#FFFFFF" style="mix-blend-mode: saturation;" xlink:href="#path-7"></use>
                                <use fill-opacity="0.64" fill="#FFFFFF" style="mix-blend-mode: lighten;" xlink:href="#path-7"></use>
                            </g>
                            <g id="Water-1-">
                                <use fill="#0099FF" xlink:href="#path-8"></use>
                                <use fill-opacity="0.1" fill="#FFFFFF" style="mix-blend-mode: saturation;" xlink:href="#path-8"></use>
                                <use fill-opacity="0.64" fill="#FFFFFF" style="mix-blend-mode: lighten;" xlink:href="#path-8"></use>
                            </g>
                        </g>
                    </g>
                    <g id="Stars" stroke-width="1" transform="translate(50.896970, 35.520710)" fill="#FFFFFF">
                        <path d="M348.744241,294.012038 C349.194241,294.012038 349.559241,294.377038 349.559241,294.827038 C349.559241,295.278038 349.194241,295.642038 348.744241,295.642038 C348.293241,295.642038 347.928241,295.278038 347.928241,294.827038 C347.928241,294.377038 348.293241,294.012038 348.744241,294.012038 Z M40.3473808,278.441443 C40.6193808,278.441443 40.8403808,278.661443 40.8403808,278.935443 L40.8403808,285.353343 L43.9410808,285.353343 C44.2130808,285.353343 44.4340808,285.573343 44.4340808,285.846343 C44.4340808,286.118343 44.2130808,286.339343 43.9410808,286.339343 L40.8403808,286.339343 L40.8403808,292.756443 C40.8403808,293.028443 40.6193808,293.249443 40.3473808,293.249443 C40.0753808,293.249443 39.8543808,293.028443 39.8543808,292.756443 L39.8543808,286.339343 L36.9950808,286.339343 C36.7210808,286.339343 36.5020808,286.118343 36.5020808,285.846343 C36.5020808,285.573343 36.7210808,285.353343 36.9950808,285.353343 L39.8543808,285.353343 L39.8543808,278.935443 C39.8543808,278.661443 40.0753808,278.441443 40.3473808,278.441443 Z M146.464412,281.508288 C147.142412,281.508288 147.691412,282.058288 147.691412,282.736288 C147.691412,283.414288 147.142412,283.963288 146.464412,283.963288 C145.787412,283.963288 145.238412,283.414288 145.238412,282.736288 C145.238412,282.058288 145.787412,281.508288 146.464412,281.508288 Z M248.271127,177.911508 C249.013127,177.911508 249.615127,178.513508 249.615127,179.255508 C249.615127,179.997508 249.013127,180.599508 248.271127,180.599508 C247.529127,180.599508 246.927127,179.997508 246.927127,179.255508 C246.927127,178.513508 247.529127,177.911508 248.271127,177.911508 Z M319.585581,148.667081 C319.857581,148.667081 320.078581,148.888081 320.078581,149.160081 L320.078581,159.343381 L326.772081,159.343381 C327.044081,159.343381 327.265081,159.563381 327.265081,159.837381 C327.265081,160.109381 327.044081,160.330381 326.772081,160.330381 L320.078581,160.330381 L320.078581,170.512081 C320.078581,170.785081 319.857581,171.006081 319.585581,171.006081 C319.313581,171.006081 319.092581,170.785081 319.092581,170.512081 L319.092581,160.330381 L312.878081,160.330381 C312.606081,160.330381 312.385081,160.109381 312.385081,159.837381 C312.385081,159.563381 312.606081,159.343381 312.878081,159.343381 L319.092581,159.343381 L319.092581,149.160081 C319.092581,148.888081 319.313581,148.667081 319.585581,148.667081 Z M1.62730586,146.917564 C2.17530586,146.917564 2.62030586,147.361564 2.62030586,147.910564 C2.62030586,148.458564 2.17530586,148.903564 1.62730586,148.903564 C1.07830586,148.903564 0.634305859,148.458564 0.634305859,147.910564 C0.634305859,147.361564 1.07830586,146.917564 1.62730586,146.917564 Z M380.728593,118.072962 C381.793593,118.072962 382.656593,118.935962 382.656593,120.000962 C382.656593,121.064962 381.793593,121.928962 380.728593,121.928962 C379.664593,121.928962 378.801593,121.064962 378.801593,120.000962 C378.801593,118.935962 379.664593,118.072962 380.728593,118.072962 Z M268.535813,18.7304237 C268.807813,18.7304237 269.028813,18.9514237 269.028813,19.2234237 L269.028813,25.9527237 L272.868813,25.9527237 C273.140813,25.9527237 273.361813,26.1727237 273.361813,26.4457237 C273.361813,26.7177237 273.140813,26.9387237 272.868813,26.9387237 L269.028813,26.9387237 L269.028813,33.6664237 C269.028813,33.9384237 268.807813,34.1594237 268.535813,34.1594237 C268.263813,34.1594237 268.042813,33.9384237 268.042813,33.6664237 L268.042813,26.9387237 L264.491813,26.9387237 C264.219813,26.9387237 263.998813,26.7177237 263.998813,26.4457237 C263.998813,26.1727237 264.219813,25.9527237 264.491813,25.9527237 L268.042813,25.9527237 L268.042813,19.2234237 C268.042813,18.9514237 268.263813,18.7304237 268.535813,18.7304237 Z M180.662288,0.440291124 C181.420288,0.440291124 182.034288,1.05429112 182.034288,1.81229112 C182.034288,2.57029112 181.420288,3.18429112 180.662288,3.18429112 C179.904288,3.18429112 179.289288,2.57029112 179.289288,1.81229112 C179.289288,1.05429112 179.904288,0.440291124 180.662288,0.440291124 Z"></path>
                    </g>
                    <g id="Spaceman-Backpack" stroke-width="1">
                        <mask id="mask-10" fill="white">
                            <use xlink:href="#path-9"></use>
                        </mask>
                        <g id="Mask"></g>
                        <path d="M171.078112,176.527932 C160.00353,168.397469 148.736338,162.34098 136.984128,159.952278 C128.403498,158.205136 118.300948,158.100227 112.120459,172.388054 C107.460891,183.15537 107.845114,197.425039 112.219259,208.307352 C118.1273,223.004728 128.521259,226.113672 137.05199,230.469422 C148.436944,236.279778 163.089283,239.324163 172.099045,255.813065 C178.229635,267.034316 180.690653,284.719587 175.428306,298.969082 C173.536136,304.089458 170.943384,307.315416 168.032277,309.835255 C157.894799,318.611313 149.884015,299.249512 159.023514,294.476143 C159.856827,293.973789 162.524427,294.068611 163.289877,294.100891 C165.714968,294.199748 168.160019,294.708154 170.478326,296.201093 C179.64477,302.092148 184.029893,322.783472 176.342455,337.244802 C167.409538,354.05045 154.419833,355.698735 144.041841,366.730342 C134.393372,376.983199 135.343449,395.027583 138.740572,413.27775 C138.94915,414.403506 139.851324,413.915738 139.64075,412.777414 C138.050968,404.241436 136.117881,394.194362 137.267554,384.922002 C138.531994,374.721599 142.99496,369.272373 147.485869,365.69739 C153.377942,361.006738 159.491566,357.859461 165.283841,352.559529 C172.509215,345.950249 182.726532,335.852738 181.432152,316.527251 C180.12879,297.056506 168.254827,290.360474 159.980576,292.406204 C154.614439,293.731691 151.342063,302.348369 156.798019,310.325503 C162.760948,319.045072 172.362512,310.76128 176.286568,300.153345 C182.502984,283.351732 178.282528,262.232702 170.622035,250.942857 C160.501522,236.027593 145.785312,232.995313 133.946277,226.938824 C126.138083,222.944204 116.629332,219.272382 111.947809,204.429746 C105.710435,184.650326 113.693275,166.067274 123.425574,162.058532 C141.787405,154.496999 161.155199,172.813743 178.223647,183.566937 C188.204443,189.855437 201.638249,193.059202 207.997376,171.875613 C208.083252,171.589415 211.354578,161.504935 217.991185,156.192896 C224.627793,150.880857 232.144821,150.57038 237.265719,150.57038 L237.265719,149.624843 C229.120505,149.624843 224.116903,150.53694 217.417963,155.244609 C210.719024,159.952278 207.281752,170.624472 207.192007,170.92336 C199.376827,196.956983 182.102794,184.620064 171.078112,176.527932 Z" id="Fill-68" fill="#FFFFFF" mask="url(#mask-10)"></path>
                        <g id="Body" transform="translate(185.821146, 116.299512)">
                            <g id="Silhouette">
                                <path d="M74.47475,38.639 C69.54575,34.532 64.62575,30.434 61.12375,27.754 C64.69975,24.899 66.99575,20.511 66.99575,15.58 C66.99575,6.976 60.02075,1.49213975e-13 51.41475,1.49213975e-13 C42.81075,1.49213975e-13 35.83475,6.976 35.83475,15.58 C35.83475,19.073 36.99775,22.285 38.93875,24.884 C38.55175,24.911 38.32875,24.929 38.32875,24.929 C38.32875,24.929 35.83475,27.421 29.60275,29.914 C23.37075,32.408 16.24775,37.769 8.41275,38.639 C-2.80425,39.886 -2.80425,54.843 8.41275,51.104 C20.75875,46.989 34.58875,41.132 34.58875,43.625 C34.58875,46.118 29.60275,53.597 27.11075,58.582 C24.61775,63.568 20.87775,69.8 18.38475,77.279 C15.89275,84.757 13.39975,87.25 13.39975,87.25 C13.39975,87.25 4.67375,81.018 2.18175,87.25 C-0.31125,93.483 7.16675,99.714 9.66075,102.207 C12.15275,104.701 15.89275,105.947 20.87775,98.468 C25.86375,90.99 30.84975,81.018 33.34175,76.033 C34.58875,73.539 39.57475,64.815 43.31375,71.046 C47.05275,77.279 47.05275,83.511 45.80675,86.004 C44.55975,88.496 35.83475,94.729 35.83475,98.468 C35.83475,102.207 37.08075,109.686 40.82075,113.425 C44.55975,117.164 50.79175,115.918 50.79175,112.179 C50.79175,108.44 45.80675,105.947 52.03875,98.468 C58.27075,90.99 60.76375,89.743 59.51775,77.279 C58.27075,64.815 55.77875,59.828 57.02475,54.843 C58.27075,49.858 60.76375,42.379 62.00975,42.379 C63.25675,42.379 66.99575,43.625 65.74875,48.611 C64.50275,53.597 59.51775,59.828 65.74875,64.815 C71.98175,69.8 75.72075,57.336 76.96675,53.597 C78.21375,49.858 81.95375,44.871 74.47475,38.639" id="Fill-74" fill="#FFFFFF"></path>
                                <path d="M65.5077264,16.6855 C64.5627264,21.6655 62.0137264,28.7855 52.5457264,25.6135 C46.2837264,23.5165 41.7217264,23.4795 41.7217264,16.4415 C41.7217264,9.4035 47.0387264,3.6975 53.5987264,3.6975 C60.1577264,3.6975 66.8157264,9.7885 65.5077264,16.6855" id="Fill-80" fill="#000000"></path>
                                <path d="M61.8075592,9.9537403 C61.8075592,9.9537403 63.6295264,12.0176037 63.6295264,14.1994362 C63.6295264,16.3788854 61.2212885,19.1314977 60.7625198,16.8364625 C60.3025595,14.542619 59.1550419,11.4444407 59.8449824,9.9537403 C60.5325397,8.46184829 61.8075592,9.9537403 61.8075592,9.9537403" id="Fill-82" fill="#FFFFFF"></path>
                            </g>
                            <path d="M26.7156359,59.3629635 C24.0140453,58.1512095 21.5468707,56.5066923 21.0276728,54.4294844 C20.6450452,52.8986668 20.6149149,50.0746987 20.9734511,46.6796005 C27.4821909,44.3582354 32.805738,42.5762511 34.2198678,43.1289249 C35.1628576,41.8874599 36.1231227,40.3790118 37.0567,38.5267 C41.2628116,30.1804885 37.4401797,27.6851514 35.5223919,26.9867846 C34.1345387,27.8433814 32.1910312,28.8786044 29.60275,29.914 C27.8996892,30.5955523 26.1300883,31.4912126 24.2976005,32.4508164 C25.6821912,28.8230687 27.4890048,25.5318497 29.7526728,23.2684844 C32.0616889,20.9591595 34.4896914,20.4324389 36.7430549,20.8076518 C37.2240572,22.1458026 37.8833825,23.3993898 38.6902375,24.5418591 C39.2771941,24.9654187 39.843264,25.4659656 40.3387,25.9427 C41.9007,27.4457 43.0737,30.2957 42.0577,35.5187 C41.0417,40.7427 35.3377,48.2607 32.1507,50.7137 C31.7799365,50.999395 31.4190456,51.2400338 31.0707506,51.4392411 C29.6834031,53.887508 28.1712439,56.4605866 27.11075,58.582 C26.9822448,58.8390105 26.8504262,59.0993316 26.7156359,59.3629635 L26.7156359,59.3629635 Z M57.1277264,28.3079 C57.1277264,28.3079 60.1087264,28.3449 61.1227264,27.7399 C61.1227264,27.7399 61.1047264,27.5739 61.8917264,29.7339 C62.6787264,31.8949 63.8457264,37.6019 62.2987264,44.5619 C60.9437264,50.6579 56.7217264,56.3559 56.7217264,56.3559 C56.7217264,56.3559 57.4877264,51.5969 58.5297264,46.5369 C60.3707264,37.6019 57.3917264,28.3079 57.1277264,28.3079 Z" id="Backpack" fill="#0099FF"></path>
                            <path d="M61.1227264,27.7399 C61.1227264,27.7399 61.1047264,27.5739 61.8917264,29.7339 C62.6787264,31.8949 63.8457264,37.6019 62.2987264,44.5619 C60.9437264,50.6579 56.7217264,56.3559 56.7217264,56.3559 C56.7217264,56.3559 57.4877264,51.5969 58.5297264,46.5369 C60.3707264,37.6019 57.3917264,28.3079 57.1277264,28.3079 C57.1277264,28.3079 60.1087264,28.3449 61.1227264,27.7399 Z M35.1027,23.8847 C36.5097,22.6977 38.7757,24.4387 40.3387,25.9427 C41.9007,27.4457 43.0737,30.2957 42.0577,35.5187 C41.0417,40.7427 35.3377,48.2607 32.1507,50.7137 C28.9647,53.1687 26.5077,52.2967 26.5077,50.3977 C26.5077,48.4987 32.1507,48.2607 37.0567,38.5267 C42.4727,27.7797 34.5767,26.7337 34.5767,26.7337 C34.5767,26.7337 33.6967,25.0717 35.1027,23.8847 Z" id="Overlay-Backpack" fill-opacity="0.38" fill="#000000"></path>
                        </g>
                    </g>
                </g>
            </g>
        </g>
    </g>
</svg>