<?xml version="1.0" encoding="UTF-8"?>
<svg width="341px" height="246px" viewBox="0 0 341 246" version="1.1" xmlns="http://www.w3.org/2000/svg" xmlns:xlink="http://www.w3.org/1999/xlink">
    <!-- Generator: Sketch 59.1 (86144) - https://sketch.com -->
    <title>Illustrations/Login</title>
    <desc>Created with Sketch.</desc>
    <defs>
        <path d="M23.88744,78.83296 C23.88744,78.83296 26.99464,86.00096 28.90104,94.79296 C30.80824,103.58496 34.51624,157.50576 34.51624,157.50576 C34.51624,157.50576 21.59144,158.88256 21.27464,158.45856 L21.27464,158.45856 L17.77864,102.94976 L15.12984,158.98816 C15.12984,158.98816 14.81224,159.41216 10.68104,158.45856 C6.54984,157.50576 2.41864,151.36096 2.41864,151.36096 L2.41864,151.36096 L3.47784,146.59456 C4.20184,143.33456 4.46344,112.19776 6.65544,94.58096 C7.66904,86.43776 11.70504,78.83296 11.70504,78.83296 L11.70504,78.83296 Z M14.84576,31.932 C14.84576,31.932 16.17696,30.232 19.24656,30.7744 C21.11616,31.104 25.27456,32.6296 25.34576,36.8624 C25.41696,41.096 21.33376,46.26 21.33376,46.26 L21.33376,46.26 L18.72096,41.8368 C18.72096,41.8368 19.75056,40.6272 19.25536,38.8136 C18.75936,36.9992 17.10176,39.872 17.10176,39.872 L17.10176,39.872 Z M23.14808,28.80624 C23.53608,26.60464 25.63608,25.13584 27.83688,25.52384 C30.03848,25.91344 31.50808,28.01344 31.11928,30.21424 C30.73048,32.41584 28.63128,33.88464 26.42968,33.49584 C24.22888,33.10704 22.75928,31.00704 23.14808,28.80624 Z" id="path-1"></path>
        <path d="M53.0305909,55.7912297 L86.9842744,90.8510955 C86.9842744,90.8510955 79.0370744,96.2486955 78.6594744,96.6262955 L78.6594744,96.6262955 L48.3018742,69.3003804 C42.3282248,73.0226064 38.8549182,75.5133781 37.8819544,76.7726955 C36.3923544,78.7006955 44.4971544,90.7934955 45.6747544,92.5294955 C45.7523544,92.6422955 45.7147544,92.7950955 45.5963544,92.8630955 L45.5963544,92.8630955 L39.8659544,96.1246955 C39.7587544,96.1854955 39.6259544,96.156328 39.5571544,96.0550955 C38.3011544,94.1934955 27.5243544,78.1742955 26.5459544,74.8830955 C25.8974211,72.6996289 29.4396732,67.4994536 37.1727107,59.2825697 L37.1727107,59.2825697 L53.0305909,55.7912297 Z" id="path-2"></path>
    </defs>
    <g id="Page-1" stroke="none" stroke-width="1" fill="none" fill-rule="evenodd">
        <g id="Slide-4" transform="translate(-124.000000, -80.000000)">
            <g id="Carousel" transform="translate(40.000000, 2.000000)">
                <g id="Illustrations/Login" transform="translate(50.000000, 66.000000)">
                    <g id="Group" transform="translate(34.161111, 12.000000)">
                        <g id="Woman" transform="translate(252.800000, 81.600000)">
                            <g>
                                <polygon id="Body" fill="#FF8D6E" points="11.70504 68.37536 11.70504 78.83288 23.88744 78.83288 24.48024 68.79528"></polygon>
                                <path d="M27.56056,18.25776 L28.64856,12.57776 L31.83736,11.45136 C31.83736,11.45136 32.97656,10.13376 33.22776,8.30736 C33.47976,6.48096 34.80296,6.35456 34.80296,6.35456 L34.36136,12.84096 C34.36136,12.84096 30.86216,13.51136 30.39016,14.45696 C29.91736,15.40176 29.63896,21.46976 29.63896,21.46976 L27.56056,18.25776 Z" id="Right-Hand" fill="#FF8D6E"></path>
                                <path d="M8.6676,15.04528 C8.6676,14.79408 7.73,7.10128 7.73,7.10128 C7.73,7.10128 5.6452,5.28448 6.022,3.08048 C6.4004,0.87568 6.4636,0.24608 6.4636,0.24608 C6.4636,0.24608 4.1332,0.42448 3.7548,1.84688 C3.378,3.26928 3.7548,5.53648 3.7548,5.72528 C3.7548,5.91408 5.6068,6.76208 5.9212,9.02848 C6.2364,11.29568 5.2668,18.13088 5.2668,18.13088 L8.6676,15.04528 Z" id="Left-Hand" fill="#FF8D6E"></path>
                                <path d="M16.21688,50.36008 C16.14808,50.63288 16.94248,52.07608 18.39448,52.26408 C19.84568,52.45288 20.89448,50.65928 20.89448,50.65928 L27.70728,17.48888 L36.37688,23.35848 L26.19528,72.19608 L8.26248,72.19608 C8.26248,72.19608 4.52208576,45.3664855 3.46104288,37.7108804 C2.75368096,32.6071437 1.84913205,26.1647522 0.747396154,18.383706 L8.26248,11.50968 L16.21688,50.36008 Z" id="Sweater" fill="#EFAED0"></path>
                                <path d="M19.14808,52.26792 C20.24728,52.34792 21.08168,51.34712 20.86008,50.26712 C20.71768,49.57992 20.69128,48.71752 20.90728,47.65832 C21.61368,44.20632 26.35368,39.71192 24.48008,35.54152 C23.13848,32.55672 19.89768,30.91992 16.41208,31.73432 C15.08328,32.04472 14.57448,31.97832 13.98248,33.77032 C11.90248,40.07432 12.53128,44.72872 12.53128,44.72872 C12.53128,44.72872 13.67768,45.89832 15.00648,46.03672 L16.33528,46.17432 L15.96248,49.11672 C15.76328,50.68872 16.92408,52.10712 18.50488,52.22072 L19.14808,52.26792 Z" id="Head" fill="#FF8D6E"></path>
                                <path d="M11.90592,38.34448 C12.42512,38.29168 12.80432,38.38848 13.14992,38.45728 C13.32992,38.50208 13.44032,38.52848 13.62112,38.55168 C13.83952,38.56288 14.06432,38.60208 14.30592,38.71968 C14.13632,38.92768 13.94912,39.05888 13.75632,39.16128 C13.52512,39.28768 13.20352,39.28848 12.97392,39.23648 C12.49712,39.10928 12.10592,38.83328 11.90592,38.34448" id="Eye" fill="#000000"></path>
                                <path d="M24.1348,156.90856 L24.1348,164.32376 L26.1476,164.32376 L26.1476,161.78136 C26.1476,161.78136 28.0772,164.21816 29.666,164.32376 C30.9188,164.40696 33.97,164.36136 35.2012,164.33896 C35.326,164.33656 35.3628,164.16776 35.2492,164.11736 C33.8188,163.47496 29.6404,161.50216 28.7692,159.99896 C27.8412,158.39816 27.842,155.95496 27.842,155.95496 L24.1348,156.90856 Z" id="Shoe-Right" fill="#000000"></path>
                                <path d="M8.16136,163.11952 C8.47896,163.01392 10.15096,163.11952 10.15096,163.11952 L10.15096,155.80992 L7.28696,153.94192 L6.91256,156.31232 C6.79176,157.08032 5.91096,157.45872 5.27096,157.01872 L1.83016,154.65552 C1.64056,154.49632 1.35176,154.64352 1.37576,154.88992 C1.49896,156.20832 1.93096,159.16432 3.37176,160.47152 C4.43896,161.43952 6.70536,162.60272 6.70536,162.60272 L8.13496,160.66912 L8.16136,163.11952 Z" id="Shoe-Left" fill="#000000"></path>
                            </g>
                            <g id="Hair-&amp;-Pants">
                                <use fill="#0099FF" xlink:href="#path-1"></use>
                                <use fill-opacity="0.16" fill="#FF0000" style="mix-blend-mode: saturation;" xlink:href="#path-1"></use>
                                <use fill-opacity="0.34" fill="#000000" style="mix-blend-mode: darken;" xlink:href="#path-1"></use>
                            </g>
                            <path d="M21.27464,158.45856 C21.59144,158.88256 34.51624,157.50576 34.51624,157.50576 C34.51624,157.50576 30.80824,103.58496 28.90104,94.79296 C26.99464,86.00096 23.88744,78.83296 23.88744,78.83296 L11.70504,78.83296 C11.70504,78.83296 7.66904,86.43776 6.65544,94.58096 C4.46344,112.19776 4.20184,143.33456 3.47784,146.59456 L2.41864,151.36096 C2.41864,151.36096 6.54984,157.50576 10.68104,158.45856 C14.81224,159.41216 15.12984,158.98816 15.12984,158.98816 L17.77864,102.94976 L21.27464,158.45856 Z" id="Hair-&amp;-Pants-Overlay" fill-opacity="0.26" fill="#000000"></path>
                            <path d="M14.84576,31.932 C14.84576,31.932 16.17696,30.232 19.24656,30.7744 C21.11616,31.104 25.27456,32.6296 25.34576,36.8624 C25.41696,41.096 21.33376,46.26 21.33376,46.26 L21.33376,46.26 L18.72096,41.8368 C18.72096,41.8368 19.75056,40.6272 19.25536,38.8136 C18.75936,36.9992 17.10176,39.872 17.10176,39.872 L17.10176,39.872 Z M23.14808,28.80624 C23.53608,26.60464 25.63608,25.13584 27.83688,25.52384 C30.03848,25.91344 31.50808,28.01344 31.11928,30.21424 C30.73048,32.41584 28.63128,33.88464 26.42968,33.49584 C24.22888,33.10704 22.75928,31.00704 23.14808,28.80624 Z" id="Hair" fill="#FF134A"></path>
                        </g>
                        <g id="Person-5" transform="translate(125.752686, 125.861144)">
                            <path d="M82.1805944,90.0872555 C82.2389944,90.0512555 82.3141944,90.0600555 82.3637944,90.1072555 L82.3637944,90.1072555 L91.3197944,98.7488555 C91.3845944,98.8120555 91.3797944,98.9184555 91.3077944,98.9752555 L91.3077944,98.9752555 L89.8493944,100.131256 C89.7909944,100.176856 89.7069944,100.173656 89.6533944,100.122456 L89.6533944,100.122456 L88.2837944,98.8280555 C88.2101944,98.7584555 88.0917944,98.7792555 88.0461944,98.8696555 L88.0461944,98.8696555 L85.9453944,103.076856 C85.5253944,103.918456 84.6645944,104.450456 83.7245944,104.450456 L83.7245944,104.450456 L76.2717944,104.450456 C75.7429944,104.450456 75.6589944,103.692056 76.1741944,103.576856 C79.0205944,102.940056 83.1405944,102.503256 83.2341944,99.5512555 C83.3109944,97.1264555 79.2885944,93.3392555 78.4605944,92.5864555 C78.3861944,92.5192555 78.3981944,92.4008555 78.4845944,92.3480555 L78.4845944,92.3480555 Z M44.7775287,93.3388555 C44.6631287,93.4044555 44.6223287,93.5444555 44.6895287,93.6572555 C45.8359287,95.5900555 47.4143287,98.3484555 47.8559287,99.1212555 C47.9215287,99.2364555 47.8767287,99.3804555 47.7591287,99.4420555 L47.7591287,99.4420555 L46.3831287,100.167656 C46.2703287,100.226856 46.1303287,100.184456 46.0687287,100.072456 L46.0687287,100.072456 L45.1607287,98.4228555 L44.9247287,100.114856 C44.7239287,101.560456 43.4879287,102.636456 42.0287287,102.636456 L42.0287287,102.636456 L36.0839287,102.636456 C35.8087287,102.636456 35.7551287,102.244456 36.0215287,102.175656 C38.5431287,101.526056 42.6223287,100.282856 42.4791287,99.0660555 C42.3439287,97.9148555 42.2127287,96.1980555 41.9559287,95.2812555 C41.9281954,95.1825889 41.8137954,95.1356555 41.6127287,95.1404555 L41.6127287,95.1404555 Z" id="Shoes" fill="#000000"></path>
                            <g id="Pants">
                                <use fill="#E41C77" xlink:href="#path-2"></use>
                                <use fill-opacity="0.16" fill="#FF0000" style="mix-blend-mode: saturation;" xlink:href="#path-2"></use>
                                <use fill-opacity="0.34" fill="#000000" style="mix-blend-mode: darken;" xlink:href="#path-2"></use>
                            </g>
                            <path d="M8.58211441,17.7333355 L4.31971441,12.2485355 C3.73251441,11.4933355 3.49811441,10.5229355 3.67251441,9.58293553 L5.42771441,0.185335525 C5.45571441,0.0109355252 5.21971441,-0.0738644748 5.13251441,0.0813355252 C3.80771441,2.44293553 -0.081885589,9.48613553 0.00131441099,10.6485355 C0.102914411,12.0477355 6.70851441,18.9605355 6.70851441,18.9605355 L8.58211441,17.7333355 Z" id="Hand" fill="#FF8D6E"></path>
                            <g id="Head" transform="translate(20.009944, 10.530361)">
                                <path d="M11.8932901,12.8154542 C11.8932901,12.8154542 11.1116901,18.3474542 10.9220901,21.0802542 C10.7932901,22.9442542 12.5484901,27.2650542 12.5484901,27.2650542 L5.36209011,20.7858542 L2.66609011,18.0986542 L11.8932901,12.8154542 Z" id="Fill-24" fill="#E5745A"></path>
                                <path d="M13.0596901,13.2936142 C12.3916901,17.4896142 7.72529011,18.9264142 5.07009011,18.5040142 C2.41489011,18.0808142 0.46769011,17.7480142 1.13569011,13.5520142 C1.80369011,9.35601423 4.74049011,4.17841423 9.46209011,4.93041423 C12.1164901,5.35281423 13.7276901,9.09761423 13.0596901,13.2936142" id="Fill-50" fill="#FF8D6E"></path>
                                <path d="M2.39953011,9.56785423 C2.30193011,9.77425423 -0.12606989,10.5238542 0.00513011007,11.5198542 C0.13553011,12.5166542 1.27793011,12.8006542 1.27793011,12.8006542 L2.39953011,9.56785423 Z" id="Fill-52" fill="#FF8D6E"></path>
                                <path d="M3.81281011,10.9685742 C3.66321011,11.2461742 3.44321011,11.4181742 3.32321011,11.3525742 C3.20161011,11.2869742 3.22561011,11.0101742 3.37521011,10.7317742 C3.52561011,10.4541742 3.74481011,10.2829742 3.86481011,10.3477742 C3.98641011,10.4133742 3.96241011,10.6901742 3.81281011,10.9685742" id="Fill-54" fill="#212121"></path>
                                <path d="M6.86281011,5.16937423 C6.67801011,5.21337423 3.10841011,4.59977423 3.85001011,1.17417423 C4.59241011,-2.25142577 8.03961011,2.83017423 9.18441011,3.62137423 C10.3308101,4.41337423 16.7164101,5.67897423 14.3524101,12.4117742 C12.4964101,17.6989742 11.2572101,18.0117742 11.2572101,18.0117742 L9.57481011,14.2525742 C9.57481011,14.2525742 10.9964101,13.7781742 10.9268101,12.6157742 C10.8572101,11.4525742 10.0444101,10.7101742 9.38201011,11.3021742 L8.72121011,11.8941742 L6.86281011,5.16937423 Z" id="Hair" fill="#000000"></path>
                            </g>
                            <path d="M78.6594744,96.6262955 C79.0370744,96.2486955 86.9842744,90.8510955 86.9842744,90.8510955 L53.0305909,55.7912297 L37.1727107,59.2825697 L78.6594744,96.6262955 Z" id="Pants---Overlay" fill-opacity="0.25" fill="#FFFFFF"></path>
                            <path d="M35.3376344,59.6810155 C35.6208344,59.6810155 54.6080344,55.5242155 54.6080344,55.5242155 L7.19523441,14.4354155 L1.43443441,19.4762155 L35.3376344,59.6810155 Z" id="Sweater" fill="#FBB13C"></path>
                        </g>
                        <g id="Key">
                            <path d="M339.33952,9.04368 C341.143377,14.4426189 340.501929,19.5369658 337.91715,20.5284817 L337.91816,20.53016 L337.830439,20.5599501 C337.824409,20.5620153 337.81837,20.5640586 337.81232,20.56608 L337.81136,20.5646574 L291.87536,35.9146574 L316.256319,28.1359379 C314.141549,42.2454262 319.060518,57.7658824 329.68128,67.27824 L337.56448,74.33904 L311.80448,83.44704 L303.92048,76.38624 C293.177302,66.7626427 288.543825,50.496617 290.847367,36.2580276 L270.82736,42.9476574 L274.86501,41.6 C272.55541,55.8424 277.464252,71.62 288.211452,81.2456 L296.094652,88.3064 L270.334652,97.4144 L262.450652,90.3536 C251.704709,80.7275259 247.085656,64.3513144 249.393365,50.1100804 L132.39656,89.20536 C133.579431,94.0384894 134.252781,99.0721669 134.327906,104.251701 L134.33496,105.22456 C134.33496,142.30376 104.27576,172.36296 67.19576,172.36296 C30.11656,172.36296 0.05736,142.30376 0.05736,105.22456 C0.05736,68.14536 30.11656,38.08616 67.19576,38.08616 C91.107032,38.08616 112.089765,50.5914519 123.984502,69.4130806 L124.34216,69.98536 L331.252661,0.846044922 L331.26536,0.841657418 L331.33176,0.82056 L331.33236,0.821657418 L331.404866,0.800266449 C334.059388,0.0897090312 337.546011,3.67571019 339.33952,9.04368 Z M67.19576,61.24296 C42.90616,61.24296 23.21416,80.93416 23.21416,105.22456 C23.21416,129.51496 42.90616,149.20696 67.19576,149.20696 C91.48616,149.20696 111.17896,129.51496 111.17896,105.22456 C111.17896,80.93416 91.48616,61.24296 67.19576,61.24296 Z" fill="#FBB13C"></path>
                            <path d="M316.334839,27.63264 C314.025239,41.87504 318.93408,57.65264 329.68128,67.27824 L337.56448,74.33904 L311.80448,83.44704 L303.92048,76.38624 C293.17328,66.75904 288.540357,50.4844372 290.849957,36.2420372" id="Part-2-Overlay-" fill-opacity="0.12" fill="#000000"></path>
                            <path d="M274.852021,41.6 C272.542421,55.8424 277.451263,71.62 288.198463,81.2456 L296.081663,88.3064 L270.321663,97.4144 L262.437663,90.3536 C251.690463,80.7264 247.071586,64.3474836 249.381186,50.1050836" id="Part-1-Overlay" fill-opacity="0.12" fill="#000000"></path>
                        </g>
                        <g id="Person-7" transform="translate(36.974532, 103.772393)">
                            <g id="Head" transform="translate(19.180310, 0.000000)">
                                <polygon id="Fill-13" fill="#E5745A" points="3.9268373 13.1830473 3.9268373 22.4398473 9.2108373 22.4398473 9.2108373 12.7102473"></polygon>
                                <path d="M12.4174773,11.1994473 C12.4174773,15.0210473 10.7294773,17.0522473 7.1118773,17.0522473 C3.4950773,17.0522473 0.327077301,12.1938473 0.327077301,8.3722473 C0.327077301,4.5498473 3.2590773,1.4522473 6.8758773,1.4522473 C10.4934773,1.4522473 12.4174773,7.3778473 12.4174773,11.1994473" id="Fill-16" fill="#FF8D6E"></path>
                                <path d="M11.5158773,7.5096073 C11.5158773,7.5096073 13.2798773,9.6720073 13.3182773,10.3640073 C13.3566773,11.0568073 12.3046773,11.5568073 12.0422773,10.6336073 C11.7798773,9.7104073 11.5158773,7.5096073 11.5158773,7.5096073" id="Fill-18" fill="#FFC9C0"></path>
                                <path d="M10.5284373,9.0299273 C10.5284373,9.3931273 10.3596373,9.6875273 10.1508373,9.6875273 C9.9420373,9.6875273 9.7732373,9.3931273 9.7732373,9.0299273 C9.7732373,8.6667273 9.9420373,8.3723273 10.1508373,8.3723273 C10.3596373,8.3723273 10.5284373,8.6667273 10.5284373,9.0299273" id="Fill-20" fill="#212121"></path>
                                <path d="M3.7268373,9.1838473 L7.7572373,6.1614473 L8.1988373,3.8310473 L9.7100373,5.9094473 L14.9372373,4.9646473 C14.9372373,4.9646473 10.2772373,-2.0889527 3.7268373,0.619047296 C-2.8227627,3.3278473 1.2532373,12.2574473 1.2532373,12.2574473 C1.2532373,12.2574473 0.830037301,9.6878473 1.9012373,8.6798473 C2.9716373,7.6726473 3.7268373,9.1838473 3.7268373,9.1838473" id="Fill-74" fill="#212121"></path>
                            </g>
                            <path d="M6.73737042,38.7019967 C6.73737042,38.7019967 14.3429877,21.4008873 17.4605877,20.4560873 C20.5773877,19.5120873 23.1069877,19.4176873 23.1069877,19.4176873 C23.1069877,19.4176873 24.6669877,20.4960873 25.5053877,20.5512873 C27.6373877,20.6896873 28.3917877,19.4176873 28.3917877,19.4176873 C28.3917877,19.4176873 31.4405877,19.6064873 33.9917877,20.6456873 C36.5413877,21.6848873 36.6357877,23.4792873 39.8477877,31.2248873 C43.0597877,38.9712873 44.557245,43.0449023 44.557245,43.0449023 C38.7932243,45.1740612 32.4899119,45.8921977 25.6473077,45.1993117 C18.8047035,44.5064258 12.5013911,42.3406541 6.73737042,38.7019967 Z" id="Sweater" fill="#FF134A"></path>
                            <path d="M37.4204277,124.458807 L36.9116277,113.389207 C36.9084277,113.331607 36.9556277,113.282807 37.0132277,113.282807 L40.2500277,113.282807 C40.3052277,113.282807 40.3508277,113.326007 40.3516277,113.380407 C40.3668277,114.180407 40.5388277,119.648407 42.4300277,121.470007 C43.8004277,122.789207 47.6484277,123.694007 50.1924277,124.167607 C50.4268277,124.210807 50.3908277,124.555607 50.1516277,124.555607 L41.2108277,124.555607 C41.1852277,124.555607 41.1604277,124.545207 41.1404277,124.527607 L39.1876277,122.666807 L39.2228277,124.451607 C39.2244277,124.508407 39.1780277,124.555607 39.1212277,124.555607 L37.5220277,124.555607 C37.4684277,124.555607 37.4236277,124.512407 37.4204277,124.458807" id="Right-Shoe" fill="#212121"></path>
                            <path d="M14.3681077,124.465047 L15.0330164,112.281847 C15.0353077,112.230647 14.9977077,112.185847 14.9465077,112.181847 L12.4985077,111.943447 C12.4489077,111.938647 12.4033077,111.969847 12.3953077,112.020247 C12.2729077,112.834647 11.2761077,119.204247 10.0129077,120.852247 C9.0761077,122.076247 4.6385077,123.380247 1.9953077,124.066647 C1.7129077,124.141047 1.7705077,124.555447 2.0633077,124.555447 L11.2033077,124.555447 C11.2369077,124.555447 11.2673077,124.538647 11.2849077,124.510647 L12.6377077,122.314647 L12.7097077,124.463447 C12.7113077,124.514647 12.7537077,124.555447 12.8049077,124.555447 L14.2721077,124.555447 C14.3225077,124.555447 14.3649077,124.515447 14.3681077,124.465047" id="Left-Shoe" fill="#212121"></path>
                            <path d="M33.1125877,116.652567 L43.7525877,115.738967 L36.3972568,68.310067 C33.0989613,68.6261621 29.5969081,68.6732391 25.8910971,68.4512981 C22.1852861,68.229357 18.5391523,67.6930292 14.9526956,66.8423146 L7.2581877,114.636567 L18.3397877,115.940567 L25.1777045,68.4117028 L26.6031311,68.499281 L33.1125877,116.652567 Z" id="Pants" fill="#0099FF"></path>
                            <g id="Hands" transform="translate(0.000000, 59.908089)" fill="#FF8D6E">
                                <path d="M3.7368277,0.449918246 C1.42108547e-13,-0.967681754 0.258427701,1.26191825 0.0280277006,3.02191825 C-0.0471722994,3.60591825 0.0176277006,4.16671825 0.361627701,4.56831825 C1.4952277,5.89151825 4.8960277,5.51311825 5.8408277,2.77391825 C6.3248277,1.36991825 5.0144277,0.933918246 3.7368277,0.449918246" id="Hand-2"></path>
                                <path d="M46.2399477,4.15615825 C44.9999477,4.92815825 45.8095477,5.83375825 46.6463477,7.03055825 C46.9007477,7.39455825 47.2655477,7.71135825 47.7895477,7.90655825 C49.6799477,8.60975825 51.4743477,7.19375825 51.4743477,5.68175825 C51.4743477,4.17055825 51.1903477,2.18655825 49.3959477,2.56495825 C48.7015477,2.71055825 46.7959477,3.80975825 46.2399477,4.15615825" id="Hand-1"></path>
                            </g>
                        </g>
                    </g>
                </g>
            </g>
        </g>
    </g>
</svg>