<svg width="64" height="48" viewBox="0 0 64 48" fill="none" xmlns="http://www.w3.org/2000/svg">
<g clip-path="url(#clip0_2048_243196)">
<path d="M0 0H64V48H0V0Z" fill="#00008B"/>
<path d="M3.75 0L15.95 9.05L28.1 0H32V3.1L20 12.05L32 20.95V24H28L16 15.05L4.05 24H0V21L11.95 12.1L0 3.2V0H3.75Z" fill="white"/>
<path d="M21.2 14.05L32 22V24L18.45 14.05H21.2ZM12 15.05L12.3 16.8L2.7 24H0L12 15.05ZM32 0V0.15L19.55 9.55L19.65 7.35L29.5 0H32ZM0 0L11.95 8.8H8.95L0 2.1V0Z" fill="#FF0000"/>
<path d="M12.05 0V24H20.05V0H12.05ZM0 8V16H32V8H0Z" fill="white"/>
<path d="M0 9.65V14.45H32V9.65H0ZM13.65 0V24H18.45V0H13.65Z" fill="#FF0000"/>
<path d="M52.7013 39.67L50.6513 39.93L50.8713 41.98L49.3913 40.54L47.9213 41.99L48.1213 39.94L46.0713 39.7L47.8013 38.58L46.7113 36.83L48.6713 37.48L49.3613 35.53L50.0713 37.47L52.0213 36.8L50.9513 38.56L52.6913 39.67H52.7013ZM52.3313 27.95L52.6013 26.65L51.6213 25.75L52.9413 25.6L53.4913 24.39L54.0413 25.6L55.3613 25.75L54.3813 26.65L54.6513 27.95L53.4913 27.29L52.3313 27.95ZM41.9213 21.95L39.8913 22.17L40.0713 24.2L38.6313 22.75L37.1513 24.16L37.3913 22.13L35.3713 21.86L37.1013 20.78L36.0513 19.03L37.9813 19.71L38.7013 17.8L39.3713 19.73L41.3113 19.1L40.2213 20.83L41.9313 21.95H41.9213ZM62.3013 18.67L60.2113 18.94L60.4413 21.03L58.9313 19.56L57.4313 21.04L57.6413 18.94L55.5513 18.7L57.3213 17.55L56.2113 15.76L58.2113 16.43L58.9113 14.45L59.6313 16.43L61.6213 15.74L60.5213 17.54L62.3013 18.67ZM52.6913 10.32L50.6213 10.55L50.8113 12.63L49.3413 11.15L47.8313 12.59L48.0713 10.52L46.0013 10.24L47.7713 9.13997L46.7013 7.34997L48.6713 8.03997L49.4013 6.08997L50.0813 8.05997L52.0613 7.40997L50.9513 9.16997L52.6913 10.32ZM23.4013 38.57L18.8213 39.11L19.2813 43.7L16.0013 40.46L12.7013 43.68L13.1913 39.09L8.61133 38.51L12.5013 36.03L10.1013 32.09L14.4613 33.59L16.0413 29.25L17.5913 33.6L21.9613 32.13L19.5313 36.05L23.4113 38.56L23.4013 38.57Z" fill="white"/>
</g>
<defs>
<clipPath id="clip0_2048_243196">
<rect width="64" height="48" fill="white"/>
</clipPath>
</defs>
</svg>
