<svg width="64" height="48" viewBox="0 0 64 48" fill="none" xmlns="http://www.w3.org/2000/svg">
<g clip-path="url(#clip0_2048_243203)">
<path fill-rule="evenodd" clip-rule="evenodd" d="M0 0H64V48H0V0Z" fill="#229E45"/>
<path fill-rule="evenodd" clip-rule="evenodd" d="M32.14 43.6L62.29 24.03L31.96 4.40002L1.70996 24.07L32.14 43.6Z" fill="#F8E509"/>
<path fill-rule="evenodd" clip-rule="evenodd" d="M45.2798 24C45.2798 31.03 39.5698 36.73 32.5198 36.73C30.0005 36.726 27.5389 35.9752 25.4463 34.5725C23.3536 33.1698 21.7238 31.1781 20.7629 28.8492C19.802 26.5204 19.5531 23.9589 20.0478 21.4886C20.5424 19.0184 21.7584 16.7502 23.5419 14.9709C25.3254 13.1915 27.5964 11.981 30.0678 11.4921C32.5393 11.0033 35.1001 11.2582 37.4267 12.2246C39.7533 13.1909 41.7412 14.8254 43.139 16.9214C44.5368 19.0173 45.2818 21.4807 45.2798 24Z" fill="#2B49A3"/>
<path fill-rule="evenodd" clip-rule="evenodd" d="M28.3302 31.63L27.9302 31.4L27.5302 31.6L27.6202 31.15L27.3002 30.81L27.7502 30.76L27.9702 30.36L28.1602 30.78L28.6002 30.86L28.2702 31.16M36.8702 33.79L36.4802 33.56L36.0802 33.76L36.1602 33.31L35.8502 32.98L36.3002 32.93L36.5102 32.52L36.7102 32.94L37.1502 33.02L36.8102 33.33M33.1902 30.33L32.8502 30.13L32.5002 30.31L32.5802 29.92L32.3002 29.63L32.7002 29.59L32.8802 29.23L33.0402 29.6L33.4302 29.67L33.1302 29.94M41.8302 29.09L41.4902 28.89L41.1402 29.07L41.2202 28.68L40.9502 28.4L41.3402 28.36L41.5202 28.01L41.6802 28.37L42.0602 28.44L41.7702 28.7M33.0402 26.5L32.6402 26.28L32.2402 26.48L32.3202 26.02L32.0102 25.69L32.4602 25.64L32.6702 25.23L32.8702 25.65L33.3102 25.73L32.9702 26.05M22.5102 22.55L22.1102 22.33L21.7102 22.53L21.8102 22.07L21.4802 21.74L21.9402 21.69L22.1402 21.28L22.3402 21.7L22.7802 21.78L22.4502 22.09M23.7802 27.81L23.3802 27.58L22.9802 27.78L23.0702 27.33L22.7502 27L23.2002 26.94L23.4102 26.54L23.6102 26.96L24.0502 27.04L23.7202 27.35M36.9202 20.62L36.5602 20.42L36.2002 20.6L36.2802 20.2L36.0002 19.9L36.4002 19.85L36.5902 19.49L36.7602 19.87L37.1602 19.94L36.8602 20.21M36.1902 24.04L35.9202 23.88L35.6302 24.02L35.6902 23.7L35.4702 23.47L35.7902 23.43L35.9402 23.15L36.0702 23.45L36.3702 23.5L36.1502 23.72M21.9302 28.76L21.6602 28.61L21.3902 28.74L21.4502 28.44L21.2402 28.22L21.5402 28.18L21.6802 27.91L21.8102 28.19L22.1102 28.25L21.8802 28.45M41.9002 29.98L41.6802 29.87L41.4602 29.97L41.5102 29.74L41.3402 29.58L41.5802 29.55L41.7002 29.35L41.8002 29.55L42.0502 29.6L41.8602 29.75" fill="#FFFFEF"/>
<path fill-rule="evenodd" clip-rule="evenodd" d="M21.9302 28.76L21.6602 28.61L21.3902 28.74L21.4502 28.44L21.2402 28.22L21.5402 28.18L21.6802 27.91L21.8102 28.19L22.1102 28.25L21.8802 28.45" fill="#FFFFEF"/>
<path fill-rule="evenodd" clip-rule="evenodd" d="M21.9302 28.76L21.6602 28.61L21.3902 28.74L21.4502 28.44L21.2402 28.22L21.5402 28.18L21.6802 27.91L21.8102 28.19L22.1102 28.25L21.8802 28.45M26.1102 28.75L25.8502 28.61L25.5802 28.74L25.6402 28.44L25.4302 28.22L25.7302 28.18L25.8702 27.91L26.0002 28.19L26.3002 28.24L26.0702 28.45M25.5902 30.15L25.3302 30L25.0602 30.14L25.1202 29.84L24.9102 29.61L25.2102 29.57L25.3502 29.3L25.4802 29.58L25.7802 29.64L25.5502 29.84M34.2902 27.62L34.0302 27.46L33.7502 27.6L33.8102 27.3L33.6102 27.07L33.9102 27.04L34.0502 26.77L34.1702 27.05L34.4702 27.1L34.2502 27.31M31.7402 27.61L31.4702 27.46L31.2002 27.6L31.2602 27.3L31.0602 27.07L31.3602 27.04L31.5002 26.76L31.6202 27.05L31.9202 27.1L31.7002 27.31M24.8202 26.73L24.6502 26.63L24.4802 26.71L24.5202 26.52L24.3902 26.38L24.5802 26.36L24.6602 26.19L24.7402 26.37L24.9302 26.4L24.7902 26.53M41.5702 31.07L41.3102 30.92L41.0402 31.06L41.1002 30.76L40.8902 30.53L41.1902 30.49L41.3302 30.22L41.4602 30.5L41.7602 30.56L41.5302 30.76M39.4502 31.36L39.2302 31.22L39.0002 31.34L39.0502 31.08L38.8802 30.9L39.1302 30.87L39.2502 30.64L39.3502 30.88L39.6002 30.92L39.4102 31.1M40.4502 31.33L40.2502 31.21L40.0402 31.31L40.0802 31.08L39.9202 30.91L40.1502 30.88L40.2602 30.68L40.3602 30.88L40.5902 30.93L40.4202 31.09M43.3302 28.81L43.1302 28.71L42.9302 28.81L42.9802 28.58L42.8202 28.41L43.0502 28.38L43.1502 28.18L43.2502 28.39L43.4602 28.43L43.3002 28.59M39.4202 32.77L39.1702 32.63L38.9002 32.75L38.9602 32.47L38.7602 32.27L39.0602 32.24L39.1902 31.99L39.3102 32.25L39.6102 32.3L39.3802 32.49M39.4402 33.91L39.2002 33.77L38.9602 33.9L39.0202 33.62L38.8302 33.42L39.1002 33.38L39.2202 33.13L39.3302 33.39L39.6002 33.44L39.4002 33.64M37.5002 31.33L37.3102 31.21L37.1102 31.31L37.1502 31.09L37.0002 30.92L37.2202 30.9L37.3202 30.7L37.4202 30.9L37.6402 30.94L37.4802 31.1M35.7002 31.33L35.5002 31.21L35.3002 31.31L35.3502 31.09L35.1902 30.92L35.4202 30.9L35.5202 30.7L35.6202 30.9L35.8302 30.94L35.6702 31.1M32.6302 28.64L32.4302 28.53L32.2302 28.63L32.2802 28.4L32.1202 28.24L32.3402 28.21L32.4402 28.01L32.5402 28.21L32.7602 28.26L32.6002 28.41M32.9702 34.11L32.8102 34.02L32.6302 34.11L32.6702 33.91L32.5402 33.77L32.7302 33.75L32.8202 33.58L32.9002 33.76L33.0902 33.79L32.9502 33.92M28.3302 25.26L27.9302 25.03L27.5302 25.23L27.6202 24.78L27.3002 24.45L27.7502 24.39L27.9702 23.99L28.1602 24.41L28.6002 24.49L28.2702 24.8" fill="#FFFFEF"/>
<path fill-rule="evenodd" clip-rule="evenodd" d="M44.4398 28.5799C44.6875 27.9371 44.8815 27.2748 45.0198 26.5999C38.2398 20.6499 30.6898 17.5999 21.1498 18.2299C20.8038 18.8995 20.5193 19.599 20.2998 20.3199C31.5998 19.2399 39.8998 24.2399 44.4398 28.5799Z" fill="white"/>
<path d="M41.3993 25.24L41.6293 25.37C41.595 25.4379 41.5844 25.5153 41.5993 25.59C41.6228 25.6623 41.6728 25.7231 41.7393 25.76C41.8093 25.81 41.8793 25.84 41.9393 25.83C41.9993 25.83 42.0393 25.8 42.0693 25.76C42.0868 25.7334 42.0939 25.7014 42.0893 25.67C42.0811 25.633 42.064 25.5987 42.0393 25.57C42.0193 25.54 41.9693 25.47 41.8893 25.39C41.8071 25.3051 41.7455 25.2025 41.7093 25.09C41.6844 25.0048 41.6909 24.9136 41.7276 24.8328C41.7643 24.752 41.8288 24.6872 41.9093 24.65C41.9821 24.6196 42.0624 24.6126 42.1393 24.63C42.2333 24.6516 42.3219 24.6925 42.3993 24.75C42.5393 24.85 42.6293 24.95 42.6593 25.07C42.6732 25.1261 42.675 25.1845 42.6646 25.2414C42.6543 25.2983 42.632 25.3523 42.5993 25.4L42.3593 25.25C42.3893 25.19 42.3993 25.13 42.3793 25.08C42.3693 25.03 42.3293 24.98 42.2593 24.94C42.208 24.8987 42.1451 24.8742 42.0793 24.87C42.0612 24.8694 42.0433 24.8737 42.0274 24.8825C42.0116 24.8913 41.9984 24.9043 41.9893 24.92C41.9693 24.95 41.9693 24.98 41.9793 25.02C41.9893 25.06 42.0393 25.14 42.1393 25.24C42.2393 25.34 42.2993 25.43 42.3393 25.49C42.375 25.5555 42.3912 25.6299 42.3859 25.7044C42.3806 25.7788 42.354 25.8502 42.3093 25.91C42.2625 25.978 42.1963 26.0302 42.1193 26.06C42.0443 26.0945 41.9605 26.105 41.8793 26.09C41.7893 26.07 41.6993 26.03 41.5993 25.96C41.4493 25.86 41.3593 25.75 41.3293 25.63C41.2968 25.4939 41.3183 25.3505 41.3893 25.23L41.3993 25.24ZM40.2393 24.48L40.4893 24.61C40.4584 24.679 40.4513 24.7565 40.4693 24.83C40.4949 24.8986 40.5447 24.9555 40.6093 24.99C40.6893 25.04 40.7493 25.06 40.8093 25.05C40.8693 25.05 40.9093 25.02 40.9393 24.97C40.9545 24.9462 40.9615 24.9181 40.9593 24.89C40.9593 24.86 40.9393 24.82 40.9093 24.79C40.8581 24.7281 40.8047 24.6681 40.7493 24.61C40.6393 24.5 40.5693 24.41 40.5493 24.33C40.533 24.2785 40.5281 24.2241 40.535 24.1705C40.5419 24.117 40.5604 24.0656 40.5893 24.02C40.6274 23.9583 40.6831 23.9095 40.7493 23.88C40.818 23.8483 40.8947 23.8378 40.9693 23.85C41.0618 23.8656 41.1502 23.8996 41.2293 23.95C41.3793 24.05 41.4693 24.15 41.4993 24.26C41.5176 24.3162 41.5234 24.3757 41.5165 24.4343C41.5096 24.493 41.4901 24.5495 41.4593 24.6L41.2093 24.46C41.2393 24.39 41.2493 24.34 41.2293 24.29C41.2093 24.24 41.1693 24.19 41.0993 24.15C41.044 24.1103 40.9774 24.0892 40.9093 24.09C40.8929 24.0911 40.877 24.0962 40.8631 24.1049C40.8491 24.1137 40.8375 24.1257 40.8293 24.14C40.8093 24.17 40.8093 24.2 40.8193 24.24C40.8293 24.28 40.8893 24.36 40.9893 24.46C41.0893 24.56 41.1593 24.64 41.1893 24.7C41.2294 24.7627 41.2507 24.8356 41.2507 24.91C41.2507 24.9844 41.2294 25.0573 41.1893 25.12C41.1462 25.1897 41.0837 25.2454 41.0093 25.28C40.9343 25.3145 40.8505 25.325 40.7693 25.31C40.6664 25.2926 40.5679 25.2552 40.4793 25.2C40.3501 25.1311 40.2505 25.0172 40.1993 24.88C40.1607 24.7465 40.175 24.6032 40.2393 24.48ZM38.8193 24.1L39.5493 22.9L40.4293 23.45L40.3093 23.65L39.6693 23.25L39.5093 23.52L40.1093 23.89L39.9793 24.09L39.3793 23.72L39.1793 24.05L39.8493 24.45L39.7293 24.65L38.8293 24.1H38.8193ZM36.7493 22.4L36.8593 22.2L37.3993 22.47L37.1493 22.97C37.0693 22.99 36.9693 23 36.8493 22.99C36.7341 22.9773 36.6222 22.9434 36.5193 22.89C36.3983 22.831 36.2949 22.7414 36.2193 22.63C36.1506 22.5265 36.1156 22.4042 36.1193 22.28C36.1244 22.1507 36.1586 22.0242 36.2193 21.91C36.2794 21.7897 36.3688 21.6865 36.4793 21.61C36.585 21.5369 36.7108 21.4984 36.8393 21.5C36.9393 21.5 37.0393 21.53 37.1593 21.6C37.3193 21.67 37.4193 21.77 37.4693 21.88C37.5213 21.9892 37.532 22.1135 37.4993 22.23L37.2293 22.15C37.2459 22.083 37.2388 22.0124 37.2093 21.95C37.1793 21.89 37.1293 21.85 37.0493 21.81C37.0027 21.7834 36.951 21.7669 36.8975 21.7618C36.8441 21.7566 36.7902 21.7628 36.7393 21.78C36.6393 21.81 36.5493 21.9 36.4793 22.04C36.4093 22.18 36.3793 22.31 36.4093 22.42C36.4232 22.4721 36.4482 22.5207 36.4828 22.5621C36.5173 22.6036 36.5605 22.637 36.6093 22.66C36.6593 22.69 36.7193 22.71 36.7793 22.71C36.839 22.719 36.8997 22.719 36.9593 22.71L37.0393 22.55L36.7493 22.4ZM27.7293 20.17L27.9293 18.77L28.3493 18.84L28.4593 19.82L28.8493 18.92L29.2693 18.98L29.0693 20.36L28.7993 20.32L28.9693 19.23L28.5293 20.28L28.2593 20.24L28.1493 19.11L27.9893 20.21L27.7293 20.17ZM26.3193 20L26.4493 18.6L27.4793 18.7L27.4593 18.94L26.7093 18.87L26.6793 19.17L27.3793 19.24L27.3493 19.48L26.6493 19.41L26.6193 19.79L27.3993 19.86L27.3793 20.1L26.3193 20Z" fill="#309E3A"/>
<path d="M21.6498 19.13C21.6498 18.98 21.6798 18.87 21.7198 18.77C21.7549 18.6989 21.8023 18.6346 21.8598 18.58C21.9111 18.5283 21.9724 18.4875 22.0398 18.46C22.1398 18.43 22.2398 18.41 22.3398 18.41C22.5498 18.41 22.7098 18.49 22.8398 18.61C22.9017 18.6865 22.9477 18.7745 22.9752 18.8689C23.0027 18.9634 23.0111 19.0623 22.9998 19.16C22.9998 19.38 22.9298 19.56 22.7998 19.69C22.733 19.7518 22.654 19.7988 22.5679 19.8281C22.4818 19.8574 22.3904 19.8683 22.2998 19.86C22.2105 19.8609 22.1218 19.8437 22.0393 19.8093C21.9568 19.7749 21.8821 19.7241 21.8198 19.66C21.6954 19.5128 21.6343 19.3222 21.6498 19.13Z" fill="#309E3A"/>
<path d="M21.9395 19.1301C21.9395 19.2801 21.9695 19.4001 22.0395 19.4901C22.1095 19.5701 22.1995 19.6201 22.3195 19.6201C22.3714 19.6237 22.4234 19.6157 22.4719 19.5967C22.5203 19.5777 22.5639 19.5481 22.5995 19.5101C22.6695 19.4301 22.6995 19.3101 22.7095 19.1401C22.7095 18.9801 22.6895 18.8601 22.6095 18.7801C22.5769 18.7398 22.5358 18.7072 22.4891 18.6847C22.4424 18.6622 22.3913 18.6504 22.3395 18.6501C22.2868 18.6484 22.2345 18.6583 22.1861 18.679C22.1378 18.6997 22.0945 18.7308 22.0595 18.7701C21.9795 18.8501 21.9495 18.9701 21.9395 19.1301Z" fill="#F7FFFF"/>
<path d="M23.2998 19.85L23.3198 18.45H23.9198C24.0698 18.45 24.1698 18.47 24.2398 18.5C24.3098 18.52 24.3598 18.57 24.3998 18.63C24.4398 18.69 24.4598 18.77 24.4598 18.86C24.4606 18.9562 24.4248 19.0491 24.3598 19.12C24.2859 19.1892 24.1907 19.2315 24.0898 19.24L24.2398 19.36C24.2798 19.4 24.3298 19.48 24.3898 19.59L24.5598 19.87H24.2198L24.0198 19.55L23.8798 19.35C23.8556 19.3224 23.8245 19.3017 23.7898 19.29C23.7443 19.2767 23.6972 19.27 23.6498 19.27H23.5898V19.85H23.2998Z" fill="#309E3A"/>
<path d="M23.5996 19.0499H23.7996C23.9396 19.0499 24.0296 19.0499 24.0596 19.0299C24.0896 19.0299 24.1196 18.9999 24.1396 18.9799C24.1596 18.9599 24.1696 18.9099 24.1696 18.8799C24.1696 18.8199 24.1596 18.7799 24.1296 18.7599C24.1096 18.7299 24.0696 18.7099 24.0296 18.6999H23.8296L23.5996 18.6899V19.0399V19.0499Z" fill="white"/>
<path d="M24.9001 18.52L25.4201 18.55C25.5301 18.55 25.6201 18.56 25.6801 18.58C25.7579 18.6083 25.8269 18.6566 25.8801 18.72C25.9377 18.7899 25.9787 18.872 26.0001 18.96C26.0301 19.05 26.0401 19.16 26.0301 19.29C26.03 19.3921 26.0131 19.4934 25.9801 19.59C25.9401 19.69 25.8801 19.77 25.8101 19.83C25.7518 19.878 25.6834 19.9122 25.6101 19.93C25.5501 19.95 25.4601 19.95 25.3601 19.95L24.8301 19.92L24.9001 18.52Z" fill="#309E3A"/>
<path d="M25.1701 18.77L25.1201 19.7H25.5001C25.5501 19.7 25.5901 19.68 25.6201 19.65C25.6501 19.62 25.6801 19.58 25.7001 19.52C25.7201 19.46 25.7401 19.37 25.7401 19.26L25.7301 19.01C25.7158 18.9573 25.6883 18.9091 25.6501 18.87C25.6169 18.8366 25.5755 18.8125 25.5301 18.8C25.4545 18.7832 25.3775 18.7731 25.3001 18.77H25.1701Z" fill="white"/>
<path d="M31.7598 21.02L32.0898 19.66L32.5298 19.76L32.8498 19.86C32.9198 19.9 32.9798 19.96 33.0098 20.05C33.0498 20.13 33.0498 20.22 33.0298 20.33C33.0098 20.41 32.9798 20.48 32.9298 20.53C32.8931 20.5739 32.8472 20.6093 32.7954 20.6334C32.7435 20.6576 32.687 20.6701 32.6298 20.67C32.5598 20.67 32.4598 20.65 32.3298 20.62L32.1598 20.57L32.0398 21.09L31.7598 21.02Z" fill="#309E3A"/>
<path d="M32.2997 19.9601L32.2197 20.3401L32.3697 20.3801C32.4697 20.4001 32.5497 20.4201 32.5897 20.4101C32.6286 20.4047 32.6649 20.3874 32.6936 20.3605C32.7222 20.3336 32.7418 20.2986 32.7497 20.2601C32.7497 20.2101 32.7497 20.1701 32.7297 20.1301C32.7078 20.0894 32.6725 20.0576 32.6297 20.0401L32.4397 19.9901L32.3097 19.9601H32.2997Z" fill="white"/>
<path d="M33.0586 21.41L33.5286 20.09L34.0786 20.29C34.2286 20.34 34.3186 20.39 34.3786 20.43C34.4286 20.48 34.4686 20.53 34.4786 20.61C34.4886 20.69 34.4986 20.76 34.4786 20.84C34.4386 20.94 34.3786 21.01 34.2986 21.06C34.2186 21.1 34.1186 21.11 33.9986 21.09C34.0386 21.14 34.0786 21.19 34.0986 21.25L34.1786 21.52L34.2386 21.83L33.9286 21.72L33.8286 21.36C33.8104 21.2786 33.787 21.1984 33.7586 21.12C33.7453 21.0889 33.7247 21.0614 33.6986 21.04C33.6786 21.01 33.6386 20.99 33.5686 20.97L33.5186 20.95L33.3186 21.51L33.0586 21.41Z" fill="#309E3A"/>
<path d="M33.5979 20.7399L33.7879 20.8099C33.9179 20.8599 33.9979 20.8799 34.0379 20.8799C34.0679 20.8799 34.0979 20.8799 34.1279 20.8499C34.1579 20.8299 34.1779 20.7999 34.1879 20.7599C34.2079 20.7199 34.2079 20.6799 34.1879 20.6399C34.1731 20.6012 34.1446 20.5691 34.1079 20.5499L33.9079 20.4799L33.7079 20.4099L33.5879 20.7399H33.5979Z" fill="white"/>
<path d="M34.6987 21.3599C34.7331 21.2429 34.7909 21.134 34.8687 21.0399C34.9193 20.9796 34.9802 20.9288 35.0487 20.8899C35.1107 20.8549 35.1784 20.8312 35.2487 20.8199C35.3487 20.8199 35.4487 20.8199 35.5587 20.8599C35.6481 20.8821 35.7317 20.9229 35.8041 20.9798C35.8765 21.0367 35.936 21.1083 35.9787 21.1899C36.0587 21.3499 36.0587 21.5399 35.9987 21.7599C35.9492 21.9489 35.827 22.1107 35.6587 22.2099C35.5087 22.2999 35.3287 22.3099 35.1387 22.2499C35.0495 22.2272 34.9661 22.1862 34.8938 22.1293C34.8215 22.0725 34.7618 22.0012 34.7187 21.9199C34.6786 21.8325 34.6562 21.738 34.6528 21.6419C34.6494 21.5458 34.665 21.45 34.6987 21.3599Z" fill="#309E3A"/>
<path d="M34.9792 21.4399C34.9392 21.5899 34.9292 21.7199 34.9792 21.8199C35.0292 21.9199 35.0992 21.9799 35.2092 22.0199C35.3092 22.0499 35.4092 22.0399 35.5092 21.9799C35.6092 21.9299 35.6692 21.8199 35.7192 21.6599C35.7692 21.5099 35.7692 21.3899 35.7192 21.2899C35.6994 21.2425 35.6695 21.1999 35.6315 21.1654C35.5934 21.1308 35.5483 21.105 35.4992 21.0899C35.45 21.0729 35.3977 21.0668 35.3459 21.072C35.2941 21.0772 35.244 21.0935 35.1992 21.1199C35.0992 21.1799 35.0292 21.2799 34.9792 21.4399Z" fill="white"/>
<path d="M37.4307 23.3099L38.0707 22.0699L38.6007 22.3399C38.7006 22.3879 38.7918 22.4521 38.8707 22.5299C38.9207 22.5799 38.9507 22.6399 38.9507 22.7199C38.9507 22.7999 38.9507 22.8699 38.9107 22.9399C38.8722 23.0299 38.8006 23.1015 38.7107 23.1399C38.6107 23.1599 38.5107 23.1599 38.4007 23.1199C38.4407 23.1799 38.4607 23.2399 38.4807 23.2899C38.5007 23.3499 38.5107 23.4399 38.5207 23.5699L38.5407 23.8899L38.2407 23.7399L38.2007 23.3699C38.1959 23.2861 38.1859 23.2026 38.1707 23.1199C38.1638 23.0825 38.1465 23.0478 38.1207 23.0199L38.0007 22.9499L37.9507 22.9199L37.6807 23.4399L37.4307 23.3099Z" fill="#309E3A"/>
<path d="M38.0508 22.7199L38.2408 22.8199C38.3608 22.8799 38.4408 22.9199 38.4708 22.9199C38.5008 22.9199 38.5408 22.9199 38.5708 22.8999C38.6008 22.8899 38.6208 22.8599 38.6408 22.8199C38.6608 22.7799 38.6708 22.7399 38.6608 22.6999C38.6484 22.6601 38.624 22.6251 38.5908 22.5999C38.5323 22.564 38.4722 22.5306 38.4108 22.4999L38.2108 22.3999L38.0508 22.7199Z" fill="white"/>
<path d="M42.6104 25.87C42.6751 25.7672 42.7602 25.6787 42.8604 25.61C42.9277 25.567 43.0022 25.5365 43.0804 25.52C43.153 25.5052 43.2278 25.5052 43.3004 25.52C43.4004 25.54 43.4904 25.58 43.5804 25.64C43.6582 25.6885 43.7251 25.7527 43.7768 25.8284C43.8284 25.9042 43.8637 25.9899 43.8804 26.08C43.9104 26.25 43.8604 26.44 43.7404 26.63C43.64 26.7953 43.4782 26.914 43.2904 26.96C43.2009 26.9794 43.1083 26.9796 43.0187 26.9606C42.929 26.9416 42.8445 26.904 42.7704 26.85C42.6926 26.8015 42.6257 26.7374 42.5741 26.6616C42.5224 26.5859 42.4871 26.5002 42.4704 26.41C42.4404 26.23 42.4904 26.05 42.6104 25.87Z" fill="#309E3A"/>
<path d="M42.861 26.03C42.761 26.16 42.731 26.28 42.751 26.39C42.7583 26.4406 42.7764 26.4891 42.804 26.5323C42.8316 26.5754 42.8681 26.6121 42.911 26.64C43.011 26.71 43.111 26.73 43.211 26.7C43.311 26.67 43.411 26.6 43.501 26.46C43.591 26.32 43.631 26.2 43.611 26.1C43.601 26 43.541 25.91 43.451 25.84C43.361 25.77 43.251 25.76 43.151 25.79C43.051 25.81 42.951 25.89 42.851 26.03H42.861Z" fill="white"/>
<path d="M30.1807 20.45L30.4107 19.47L31.1307 19.64L31.1007 19.8L30.5707 19.68L30.5207 19.9L31.0107 20.01L30.9707 20.18L30.4807 20.06L30.4207 20.33L30.9707 20.46L30.9307 20.62L30.1807 20.45Z" fill="#309E3A"/>
</g>
<defs>
<clipPath id="clip0_2048_243203">
<rect width="64" height="48" fill="white"/>
</clipPath>
</defs>
</svg>
