<svg width="64" height="48" viewBox="0 0 64 48" fill="none" xmlns="http://www.w3.org/2000/svg">
<g clip-path="url(#clip0_2048_243210)">
<path d="M15.01 0H48.98V48H15L15.01 0Z" fill="white"/>
<path d="M-1.9707 0H15.0093V48H-1.9707V0ZM48.9793 0H65.9593V48H48.9893L48.9793 0ZM20.0993 23.2L18.7693 23.64L24.9093 29.04C25.3793 30.41 24.7493 30.82 24.3493 31.54L31.0093 30.7L30.8493 37.4L32.2393 37.37L31.9293 30.71L38.5993 31.51C38.1893 30.64 37.8193 30.18 38.1993 28.79L44.3293 23.69L43.2593 23.29C42.3793 22.61 43.6393 20.03 43.8193 18.4C43.8193 18.4 40.2493 19.63 40.0193 18.98L39.0993 17.23L35.8393 20.81C35.4893 20.9 35.3393 20.76 35.2493 20.46L36.7493 12.98L34.3693 14.32C34.1693 14.41 33.9693 14.33 33.8493 14.1L31.5493 9.5L29.1893 14.28C29.0093 14.45 28.8293 14.47 28.6893 14.35L26.3993 13.08L27.7693 20.49C27.6593 20.79 27.3993 20.87 27.0993 20.71L23.9793 17.18C23.5793 17.83 23.2993 18.89 22.7593 19.13C22.2193 19.36 20.4093 18.68 19.1993 18.43C19.6193 19.91 20.8993 22.39 20.0993 23.2Z" fill="#D52B1E"/>
</g>
<defs>
<clipPath id="clip0_2048_243210">
<rect width="64" height="48" fill="white"/>
</clipPath>
</defs>
</svg>
