<svg width="64" height="48" viewBox="0 0 64 48" fill="none" xmlns="http://www.w3.org/2000/svg">
<g clip-path="url(#clip0_2048_243196)">
<g clip-path="url(#clip1_2048_243196)">
<path d="M0 0H64V16H0V0Z" fill="#FF9933"/>
<path d="M0 16H64V32H0V16Z" fill="white"/>
<path d="M0 32H64V48H0V32Z" fill="#128807"/>
<path d="M31.9986 30.4C35.5333 30.4 38.3986 27.5346 38.3986 24C38.3986 20.4654 35.5333 17.6 31.9986 17.6C28.464 17.6 25.5986 20.4654 25.5986 24C25.5986 27.5346 28.464 30.4 31.9986 30.4Z" fill="#000088"/>
<path d="M31.9994 29.6C35.0922 29.6 37.5994 27.0928 37.5994 24C37.5994 20.9072 35.0922 18.4 31.9994 18.4C28.9066 18.4 26.3994 20.9072 26.3994 24C26.3994 27.0928 28.9066 29.6 31.9994 29.6Z" fill="white"/>
<path d="M31.9989 25.12C32.6175 25.12 33.1189 24.6186 33.1189 24C33.1189 23.3814 32.6175 22.88 31.9989 22.88C31.3803 22.88 30.8789 23.3814 30.8789 24C30.8789 24.6186 31.3803 25.12 31.9989 25.12Z" fill="#000088"/>
<path d="M37.5141 25.0186C37.6718 25.0394 37.8164 24.9284 37.8372 24.7707C37.8579 24.613 37.7469 24.4683 37.5892 24.4475C37.4315 24.4268 37.2869 24.5378 37.2661 24.6955C37.2454 24.8532 37.3564 24.9978 37.5141 25.0186Z" fill="#000088"/>
<path d="M31.9996 29.6L32.1916 26.24L31.9996 24.64L31.8076 26.24L31.9996 29.6Z" fill="#000088"/>
<path d="M37.0632 26.4111C37.2102 26.472 37.3787 26.4022 37.4395 26.2553C37.5004 26.1083 37.4306 25.9399 37.2837 25.879C37.1367 25.8181 36.9682 25.8879 36.9074 26.0348C36.8465 26.1818 36.9163 26.3503 37.0632 26.4111Z" fill="#000088"/>
<path d="M30.5511 29.4092L31.6062 26.2134L31.8349 24.6182L31.2353 26.114L30.5511 29.4092Z" fill="#000088"/>
<path d="M36.2646 27.6393C36.3907 27.7361 36.5715 27.7123 36.6684 27.5862C36.7652 27.46 36.7414 27.2792 36.6152 27.1823C36.489 27.0855 36.3082 27.1093 36.2114 27.2355C36.1146 27.3617 36.1384 27.5425 36.2646 27.6393Z" fill="#000088"/>
<path d="M29.198 28.8498L31.0443 26.0359L31.678 24.5543L30.7117 25.8439L29.198 28.8498Z" fill="#000088"/>
<path d="M35.1783 28.6195C35.2751 28.7457 35.4559 28.7695 35.5821 28.6727C35.7083 28.5759 35.7321 28.3951 35.6353 28.2689C35.5385 28.1427 35.3577 28.1189 35.2315 28.2157C35.1053 28.3126 35.0815 28.4933 35.1783 28.6195Z" fill="#000088"/>
<path d="M28.0387 27.9598L30.5503 25.7197L31.5459 24.4526L30.2788 25.4482L28.0387 27.9598Z" fill="#000088"/>
<path d="M33.874 29.2848C33.9348 29.4318 34.1033 29.5016 34.2502 29.4407C34.3972 29.3798 34.467 29.2114 34.4061 29.0644C34.3452 28.9175 34.1768 28.8477 34.0298 28.9086C33.8829 28.9694 33.8131 29.1379 33.874 29.2848Z" fill="#000088"/>
<path d="M27.1491 26.8002L30.155 25.2865L31.4446 24.3202L29.963 24.954L27.1491 26.8002Z" fill="#000088"/>
<path d="M32.4421 29.5901C32.4629 29.7478 32.6075 29.8588 32.7652 29.838C32.9229 29.8173 33.0339 29.6726 33.0132 29.5149C32.9924 29.3572 32.8477 29.2462 32.6901 29.267C32.5324 29.2877 32.4213 29.4324 32.4421 29.5901Z" fill="#000088"/>
<path d="M26.5898 25.4494L29.885 24.7652L31.3807 24.1656L29.7856 24.3943L26.5898 25.4494Z" fill="#000088"/>
<path d="M30.9802 29.5144C30.9594 29.6721 31.0705 29.8168 31.2281 29.8375C31.3858 29.8583 31.5305 29.7473 31.5513 29.5896C31.572 29.4319 31.461 29.2872 31.3033 29.2665C31.1456 29.2457 31.001 29.3567 30.9802 29.5144Z" fill="#000088"/>
<path d="M26.3984 24L29.7584 24.192L31.3584 24L29.7584 23.808L26.3984 24Z" fill="#000088"/>
<path d="M29.5881 29.0628C29.5272 29.2098 29.597 29.3783 29.744 29.4391C29.8909 29.5 30.0594 29.4302 30.1203 29.2833C30.1811 29.1363 30.1113 28.9678 29.9644 28.907C29.8174 28.8461 29.649 28.9159 29.5881 29.0628Z" fill="#000088"/>
<path d="M26.59 22.5506L29.7858 23.6057L31.381 23.8344L29.8852 23.2348L26.59 22.5506Z" fill="#000088"/>
<path d="M28.3589 28.2663C28.2621 28.3925 28.2859 28.5733 28.4121 28.6701C28.5383 28.767 28.7191 28.7432 28.8159 28.617C28.9127 28.4908 28.8889 28.31 28.7627 28.2132C28.6365 28.1163 28.4557 28.1401 28.3589 28.2663Z" fill="#000088"/>
<path d="M27.1486 21.2L29.9624 23.0463L31.444 23.68L30.1544 22.7137L27.1486 21.2Z" fill="#000088"/>
<path d="M27.3769 27.179C27.2507 27.2758 27.2269 27.4566 27.3238 27.5828C27.4206 27.709 27.6014 27.7328 27.7276 27.636C27.8538 27.5392 27.8776 27.3584 27.7807 27.2322C27.6839 27.106 27.5031 27.0822 27.3769 27.179Z" fill="#000088"/>
<path d="M28.0377 20.0402L30.2778 22.5518L31.5449 23.5474L30.5493 22.2803L28.0377 20.0402Z" fill="#000088"/>
<path d="M26.7127 25.8753C26.5658 25.9361 26.496 26.1046 26.5569 26.2516C26.6177 26.3985 26.7862 26.4683 26.9331 26.4074C27.0801 26.3466 27.1499 26.1781 27.089 26.0311C27.0281 25.8842 26.8597 25.8144 26.7127 25.8753Z" fill="#000088"/>
<path d="M29.1975 19.1505L30.7112 22.1563L31.6775 23.4459L31.0438 21.9643L29.1975 19.1505Z" fill="#000088"/>
<path d="M26.4078 24.4435C26.2501 24.4643 26.1391 24.609 26.1599 24.7667C26.1807 24.9244 26.3253 25.0354 26.483 25.0146C26.6407 24.9939 26.7517 24.8492 26.731 24.6915C26.7102 24.5338 26.5655 24.4228 26.4078 24.4435Z" fill="#000088"/>
<path d="M30.5494 18.591L31.2335 21.8862L31.8331 23.382L31.6044 21.7868L30.5494 18.591Z" fill="#000088"/>
<path d="M26.482 22.9815C26.3243 22.9607 26.1797 23.0717 26.1589 23.2294C26.1381 23.3871 26.2491 23.5318 26.4068 23.5525C26.5645 23.5733 26.7092 23.4623 26.73 23.3046C26.7507 23.1469 26.6397 23.0022 26.482 22.9815Z" fill="#000088"/>
<path d="M31.9965 18.4L31.8045 21.76L31.9965 23.36L32.1885 21.76L31.9965 18.4Z" fill="#000088"/>
<path d="M26.9329 21.5889C26.7859 21.5281 26.6174 21.5978 26.5566 21.7448C26.4957 21.8917 26.5655 22.0602 26.7124 22.1211C26.8594 22.1819 27.0279 22.1122 27.0887 21.9652C27.1496 21.8183 27.0798 21.6498 26.9329 21.5889Z" fill="#000088"/>
<path d="M33.445 18.5908L32.3899 21.7867L32.1612 23.3818L32.7608 21.886L33.445 18.5908Z" fill="#000088"/>
<path d="M27.7315 20.3607C27.6053 20.2639 27.4246 20.2877 27.3277 20.4139C27.2309 20.5401 27.2547 20.7209 27.3809 20.8177C27.5071 20.9145 27.6879 20.8907 27.7847 20.7646C27.8815 20.6384 27.8577 20.4576 27.7315 20.3607Z" fill="#000088"/>
<path d="M34.7981 19.1503L32.9518 21.9641L32.3181 23.4458L33.2844 22.1561L34.7981 19.1503Z" fill="#000088"/>
<path d="M28.8178 19.3805C28.721 19.2543 28.5402 19.2305 28.414 19.3274C28.2878 19.4242 28.264 19.605 28.3608 19.7312C28.4576 19.8574 28.6384 19.8812 28.7646 19.7843C28.8908 19.6875 28.9146 19.5067 28.8178 19.3805Z" fill="#000088"/>
<path d="M35.9574 20.0402L33.4458 22.2803L32.4502 23.5475L33.7173 22.5519L35.9574 20.0402Z" fill="#000088"/>
<path d="M30.1231 18.7152C30.0622 18.5682 29.8938 18.4985 29.7468 18.5593C29.5999 18.6202 29.5301 18.7887 29.591 18.9356C29.6518 19.0826 29.8203 19.1523 29.9672 19.0915C30.1142 19.0306 30.184 18.8621 30.1231 18.7152Z" fill="#000088"/>
<path d="M36.8479 21.1998L33.8421 22.7135L32.5524 23.6798L34.0341 23.0461L36.8479 21.1998Z" fill="#000088"/>
<path d="M31.555 18.4099C31.5342 18.2522 31.3895 18.1412 31.2318 18.162C31.0741 18.1828 30.9631 18.3274 30.9839 18.4851C31.0047 18.6428 31.1493 18.7538 31.307 18.7331C31.4647 18.7123 31.5757 18.5676 31.555 18.4099Z" fill="#000088"/>
<path d="M37.4073 22.5507L34.1121 23.2348L32.6163 23.8344L34.2115 23.6058L37.4073 22.5507Z" fill="#000088"/>
<path d="M33.0169 18.4857C33.0376 18.328 32.9266 18.1833 32.7689 18.1625C32.6112 18.1418 32.4666 18.2528 32.4458 18.4105C32.425 18.5682 32.536 18.7128 32.6937 18.7336C32.8514 18.7544 32.9961 18.6434 33.0169 18.4857Z" fill="#000088"/>
<path d="M37.5987 24L34.2387 23.808L32.6387 24L34.2387 24.192L37.5987 24Z" fill="#000088"/>
<path d="M34.409 18.9372C34.4698 18.7902 34.4001 18.6218 34.2531 18.5609C34.1062 18.5 33.9377 18.5698 33.8768 18.7168C33.8159 18.8637 33.8857 19.0322 34.0327 19.0931C34.1796 19.1539 34.3481 19.0841 34.409 18.9372Z" fill="#000088"/>
<path d="M37.4071 25.4494L34.2113 24.3943L32.6161 24.1657L34.1119 24.7652L37.4071 25.4494Z" fill="#000088"/>
<path d="M35.6372 19.7337C35.734 19.6075 35.7102 19.4267 35.584 19.3299C35.4578 19.233 35.277 19.2568 35.1802 19.383C35.0834 19.5092 35.1072 19.69 35.2334 19.7868C35.3596 19.8837 35.5403 19.8599 35.6372 19.7337Z" fill="#000088"/>
<path d="M36.8475 26.8L34.0337 24.9537L32.5521 24.32L33.8417 25.2863L36.8475 26.8Z" fill="#000088"/>
<path d="M36.6192 20.821C36.7454 20.7242 36.7692 20.5434 36.6723 20.4172C36.5755 20.291 36.3947 20.2672 36.2685 20.364C36.1423 20.4608 36.1185 20.6416 36.2154 20.7678C36.3122 20.894 36.493 20.9178 36.6192 20.821Z" fill="#000088"/>
<path d="M35.9584 27.9598L33.7183 25.4482L32.4512 24.4526L33.4468 25.7197L35.9584 27.9598Z" fill="#000088"/>
<path d="M37.2834 22.1247C37.4303 22.0639 37.5001 21.8954 37.4392 21.7484C37.3784 21.6015 37.2099 21.5317 37.063 21.5926C36.916 21.6534 36.8462 21.8219 36.9071 21.9689C36.968 22.1158 37.1364 22.1856 37.2834 22.1247Z" fill="#000088"/>
<path d="M34.7986 28.8495L33.2849 25.8437L32.3186 24.5541L32.9523 26.0357L34.7986 28.8495Z" fill="#000088"/>
<path d="M37.5883 23.5565C37.746 23.5357 37.857 23.391 37.8362 23.2333C37.8154 23.0756 37.6708 22.9646 37.5131 22.9854C37.3554 23.0061 37.2444 23.1508 37.2651 23.3085C37.2859 23.4662 37.4306 23.5772 37.5883 23.5565Z" fill="#000088"/>
<path d="M33.4467 29.409L32.7626 26.1138L32.163 24.618L32.3916 26.2132L33.4467 29.409Z" fill="#000088"/>
</g>
</g>
<defs>
<clipPath id="clip0_2048_243196">
<rect width="64" height="48" fill="white"/>
</clipPath>
<clipPath id="clip1_2048_243196">
<rect width="64" height="48" fill="white"/>
</clipPath>
</defs>
</svg>
