<svg width="64" height="48" viewBox="0 0 64 48" fill="none" xmlns="http://www.w3.org/2000/svg">
<g clip-path="url(#clip0_2048_243227)">
<mask id="mask0_2048_243227" style="mask-type:luminance" maskUnits="userSpaceOnUse" x="0" y="0" width="65" height="48">
<path d="M0 0H64.0031V48H0V0Z" fill="white"/>
</mask>
<g mask="url(#mask0_2048_243227)">
<path fill-rule="evenodd" clip-rule="evenodd" d="M0 0H91.2V3.69375H0V0ZM0 7.3875H91.2V11.0812H0V7.3875ZM0 14.7656H91.2V18.4688H0V14.7656ZM0 22.1531H91.2V25.8469H0V22.1531ZM0 29.5406H91.2V33.2344H0V29.5406ZM0 36.9187H91.2V40.6125H0V36.9187ZM0 44.3063H91.2V48H0V44.3063Z" fill="#BD3D44"/>
<path fill-rule="evenodd" clip-rule="evenodd" d="M0 3.69373H91.2V7.38748H0V3.69373ZM0 11.0812H91.2V14.7656H0V11.0812ZM0 18.4593H91.2V22.1531H0V18.4593ZM0 25.8469H91.2V29.5406H0V25.8469ZM0 33.2343H91.2V36.9281H0V33.2343ZM0 40.6125H91.2V44.3062H0V40.6125Z" fill="white"/>
<path fill-rule="evenodd" clip-rule="evenodd" d="M0 0H36.4781V25.8469H0V0Z" fill="#192F5D"/>
<path fill-rule="evenodd" clip-rule="evenodd" d="M3.03613 1.1062L3.37363 2.12808H4.44238L3.57988 2.7562L3.90801 3.78745L3.03613 3.14995L2.17363 3.77808L2.50176 2.7562L1.62988 2.12808H2.71738L3.03613 1.1062ZM9.12051 1.1062L9.44863 2.12808H10.5268L9.65488 2.7562L9.98301 3.78745L9.12051 3.14995L8.24863 3.77808L8.57676 2.7562L7.71426 2.12808H8.78301L9.12051 1.1062ZM15.1955 1.1062L15.533 2.12808H16.5924L15.7299 2.7562L16.058 3.78745L15.1861 3.14995L14.3236 3.77808L14.6518 2.7562L13.7799 2.12808H14.858L15.1955 1.1062ZM21.2799 1.1062L21.608 2.12808H22.6861L21.8143 2.7562L22.1518 3.78745L21.2799 3.14995L20.408 3.77808L20.7455 2.7562L19.8736 2.12808H20.9424L21.2799 1.1062ZM27.3549 1.1062L27.6924 2.12808H28.7611L27.8986 2.7562L28.2268 3.78745L27.3549 3.14995L26.4924 3.77808L26.8205 2.7562L25.958 2.12808H27.0268L27.3549 1.1062ZM33.4393 1.1062L33.7674 2.12808H34.8455L33.9736 2.7562L34.3111 3.78745L33.4393 3.14995L32.5674 3.77808L32.9049 2.7562L32.033 2.12808H33.1111L33.4393 1.1062ZM6.08301 3.6937L6.41113 4.71558H7.48926L6.61738 5.3437L6.93613 6.36558L6.09238 5.73745L5.22051 6.36558L5.52988 5.3437L4.68613 4.71558H5.75488L6.08301 3.6937ZM12.158 3.6937L12.4955 4.71558H13.5643L12.6924 5.3437L13.0299 6.36558L12.158 5.73745L11.2861 6.36558L11.6236 5.3437L10.7518 4.71558H11.8299L12.158 3.6937ZM18.2424 3.6937L18.5705 4.71558H19.6486L18.7768 5.3437L19.1049 6.36558L18.2424 5.73745L17.3705 6.36558L17.6986 5.3437L16.8361 4.71558H17.9049L18.2424 3.6937ZM24.3174 3.6937L24.6549 4.71558H25.7236L24.8518 5.3437L25.1893 6.36558L24.3174 5.73745L23.4549 6.36558L23.783 5.3437L22.9111 4.71558H23.9986L24.3174 3.6937ZM30.4018 3.6937L30.7299 4.71558H31.808L30.9361 5.3437L31.2643 6.36558L30.4018 5.73745L29.5299 6.36558L29.858 5.3437L28.9955 4.71558H30.0643L30.4018 3.6937ZM3.03613 6.27183L3.37363 7.31245H4.44238L3.57988 7.94058L3.90801 8.96245L3.03613 8.32495L2.17363 8.96245L2.50176 7.9312L1.62988 7.30308H2.71738L3.03613 6.27183ZM9.12051 6.27183L9.44863 7.30308H10.5268L9.65488 7.9312L9.98301 8.95308L9.12051 8.31558L8.24863 8.95308L8.57676 7.92183L7.71426 7.2937H8.78301L9.12051 6.27183ZM15.1955 6.27183L15.533 7.30308H16.5924L15.7299 7.9312L16.058 8.95308L15.1861 8.31558L14.3236 8.95308L14.6518 7.92183L13.7799 7.2937H14.858L15.1955 6.27183ZM21.2799 6.27183L21.608 7.30308H22.6861L21.8143 7.9312L22.1518 8.95308L21.2799 8.31558L20.408 8.95308L20.7455 7.92183L19.8736 7.2937H20.9424L21.2799 6.27183ZM27.3549 6.27183L27.6924 7.30308H28.7611L27.8986 7.9312L28.2268 8.95308L27.3549 8.31558L26.4924 8.95308L26.8205 7.92183L25.958 7.2937H27.0268L27.3549 6.27183ZM33.4393 6.27183L33.7674 7.30308H34.8455L33.9736 7.9312L34.3111 8.95308L33.4393 8.31558L32.5674 8.95308L32.9049 7.92183L32.033 7.2937H33.1111L33.4393 6.27183ZM6.08301 8.85933L6.41113 9.8812H7.48926L6.61738 10.5093L6.94551 11.5406L6.08301 10.9031L5.21113 11.5312L5.53926 10.5093L4.67676 9.8812H5.74551L6.08301 8.85933ZM12.158 8.85933L12.4955 9.8812H13.5643L12.6924 10.5093L13.0299 11.5406L12.158 10.9031L11.2861 11.5312L11.6236 10.5093L10.7518 9.8812H11.8299L12.158 8.85933ZM18.2424 8.85933L18.5705 9.8812H19.6486L18.7768 10.5093L19.1049 11.5406L18.2424 10.9031L17.3705 11.5312L17.6986 10.5093L16.8361 9.8812H17.9049L18.2424 8.85933ZM24.3174 8.85933L24.6549 9.8812H25.7236L24.8611 10.5093L25.1893 11.5406L24.3174 10.9031L23.4549 11.5312L23.783 10.5093L22.9111 9.8812H23.9986L24.3174 8.85933ZM30.4018 8.85933L30.7299 9.8812H31.808L30.9361 10.5093L31.2643 11.5406L30.4018 10.9031L29.5299 11.5312L29.858 10.5093L28.9955 9.8812H30.0643L30.4018 8.85933ZM3.03613 11.4468L3.37363 12.4687H4.44238L3.57988 13.0968L3.90801 14.1281L3.03613 13.4906L2.17363 14.1187L2.50176 13.0968L1.62988 12.4687H2.71738L3.03613 11.4468ZM9.12051 11.4468L9.44863 12.4687H10.5268L9.65488 13.0968L9.98301 14.1187L9.12051 13.4906L8.24863 14.1187L8.57676 13.0968L7.71426 12.4687H8.78301L9.12051 11.4468ZM15.1955 11.4468L15.533 12.4687H16.5924L15.7299 13.0968L16.058 14.1281L15.1861 13.4906L14.3236 14.1187L14.6518 13.0968L13.7799 12.4687H14.858L15.1955 11.4468ZM21.2799 11.4468L21.608 12.4687H22.6861L21.8143 13.0968L22.1518 14.1281L21.2799 13.4906L20.408 14.1187L20.7455 13.0968L19.8736 12.4687H20.9424L21.2799 11.4468ZM27.3549 11.4468L27.6924 12.4687H28.7611L27.8986 13.0968L28.2268 14.1281L27.3549 13.4906L26.4924 14.1187L26.8205 13.0968L25.958 12.4687H27.0268L27.3549 11.4468ZM33.4393 11.4468L33.7674 12.4687H34.8455L33.9736 13.0968L34.3111 14.1281L33.4393 13.4906L32.5674 14.1187L32.9049 13.0968L32.033 12.4687H33.1111L33.4393 11.4468ZM6.08301 14.0343L6.41113 15.0562H7.48926L6.61738 15.6843L6.94551 16.7062L6.08301 16.0687L5.21113 16.7062L5.53926 15.6749L4.67676 15.0468H5.74551L6.08301 14.0343ZM12.158 14.0343L12.4955 15.0562H13.5643L12.6924 15.6843L13.0299 16.7062L12.158 16.0687L11.2861 16.7062L11.6236 15.6749L10.7518 15.0468H11.8299L12.158 14.0343ZM18.2424 14.0343L18.5705 15.0562H19.6486L18.7768 15.6843L19.1049 16.7062L18.2424 16.0687L17.3705 16.7062L17.6986 15.6749L16.8361 15.0468H17.9049L18.2424 14.0343ZM24.3174 14.0343L24.6549 15.0562H25.7236L24.8611 15.6843L25.1893 16.7062L24.3174 16.0687L23.4549 16.7062L23.783 15.6749L22.9111 15.0468H23.9986L24.3174 14.0343ZM30.4018 14.0343L30.7299 15.0562H31.808L30.9361 15.6843L31.2643 16.7062L30.4018 16.0687L29.5299 16.7062L29.858 15.6749L28.9955 15.0468H30.0643L30.4018 14.0343ZM3.03613 16.6124L3.37363 17.6437H4.44238L3.57988 18.2718L3.90801 19.2843L3.03613 18.6562L2.17363 19.2843L2.50176 18.2624L1.62988 17.6343H2.71738L3.03613 16.6124ZM9.12051 16.6124L9.44863 17.6437H10.5268L9.65488 18.2718L9.99238 19.2843L9.12051 18.6562L8.24863 19.2843L8.58613 18.2624L7.71426 17.6343H8.78301L9.12051 16.6124ZM15.1955 16.6124L15.533 17.6437H16.5924L15.7299 18.2718L16.058 19.2843L15.1861 18.6562L14.3236 19.2843L14.6518 18.2624L13.7799 17.6343H14.858L15.1955 16.6124ZM21.2799 16.6124L21.608 17.6437H22.6861L21.8143 18.2718L22.1518 19.2843L21.2799 18.6562L20.408 19.2843L20.7455 18.2624L19.8736 17.6343H20.9424L21.2799 16.6124ZM27.3549 16.6124L27.6924 17.6437H28.7611L27.8986 18.2718L28.2268 19.2843L27.3549 18.6562L26.4924 19.2843L26.8205 18.2624L25.958 17.6343H27.0268L27.3549 16.6124ZM33.4393 16.6124L33.7674 17.6437H34.8455L33.9736 18.2718L34.3111 19.2843L33.4393 18.6562L32.5674 19.2843L32.9049 18.2624L32.033 17.6343H33.1111L33.4393 16.6124ZM6.08301 19.1999L6.41113 20.2218H7.48926L6.61738 20.8499L6.94551 21.8812L6.08301 21.2437L5.21113 21.8718L5.53926 20.8499L4.67676 20.2218H5.74551L6.08301 19.1999ZM12.158 19.1999L12.4955 20.2218H13.5643L12.6924 20.8499L13.0299 21.8812L12.158 21.2437L11.2861 21.8718L11.6236 20.8499L10.7518 20.2218H11.8299L12.158 19.1999ZM18.2424 19.1999L18.5705 20.2218H19.6486L18.7768 20.8499L19.1049 21.8812L18.2424 21.2437L17.3705 21.8718L17.6986 20.8499L16.8361 20.2218H17.9049L18.2424 19.1999ZM24.3174 19.1999L24.6549 20.2218H25.7236L24.8611 20.8499L25.1893 21.8812L24.3174 21.2437L23.4549 21.8718L23.783 20.8499L22.9111 20.2218H23.9986L24.3174 19.1999ZM30.4018 19.1999L30.7299 20.2218H31.808L30.9361 20.8499L31.2643 21.8812L30.4018 21.2437L29.5299 21.8718L29.858 20.8499L28.9955 20.2218H30.0643L30.4018 19.1999ZM3.03613 21.7874L3.37363 22.8093H4.44238L3.57988 23.4374L3.90801 24.4593L3.03613 23.8312L2.17363 24.4593L2.50176 23.4281L1.62988 22.7999H2.71738L3.03613 21.7874ZM9.12051 21.7874L9.44863 22.8093H10.5268L9.65488 23.4374L9.99238 24.4593L9.12051 23.8312L8.24863 24.4593L8.58613 23.4281L7.71426 22.7999H8.78301L9.12051 21.7874ZM15.1955 21.7874L15.533 22.8093H16.5924L15.7486 23.4374L16.0768 24.4593L15.2049 23.8312L14.3424 24.4593L14.6705 23.4281L13.7986 22.7999H14.8768L15.1955 21.7874ZM21.2799 21.7874L21.608 22.8093H22.6861L21.8143 23.4374L22.1518 24.4593L21.2799 23.8312L20.408 24.4593L20.7455 23.4281L19.8736 22.7999H20.9424L21.2799 21.7874ZM27.3549 21.7874L27.6924 22.8093H28.7611L27.8986 23.4374L28.2268 24.4593L27.3549 23.8312L26.4924 24.4593L26.8205 23.4281L25.958 22.7999H27.0268L27.3549 21.7874ZM33.4393 21.7874L33.7674 22.8093H34.8455L33.9736 23.4374L34.3111 24.4593L33.4393 23.8312L32.5674 24.4593L32.9049 23.4281L32.033 22.7999H33.1111L33.4393 21.7874Z" fill="white"/>
</g>
</g>
<defs>
<clipPath id="clip0_2048_243227">
<rect width="64" height="48" fill="white"/>
</clipPath>
</defs>
</svg>
