<svg width="64" height="48" viewBox="0 0 64 48" fill="none" xmlns="http://www.w3.org/2000/svg">
<g clip-path="url(#clip0_2048_243196)">
<path d="M0 0H64V48H0V0Z" fill="white"/>
<path d="M26.6 5.33H64V10.67H26.6V5.33ZM26.6 16H64V21.33H26.6V16ZM0 26.67H64V32H0V26.67ZM0 37.33H64V42.67H0V37.33Z" fill="#0038A8"/>
<path d="M12.7262 15.9374L13.609 17.2556C9.98165 19.8806 12.1962 21.4329 9.62563 22.2731C11.2244 20.7129 9.37389 20.5814 10.7209 17.3293" fill="#FCD116"/>
<path d="M13.33 13.33H15.09L13.33 23.01L11.57 13.33H13.33V23.01Z" fill="#FCD116"/>
<path d="M11.0593 14.7468L10.7515 16.3031C6.33038 15.5943 6.79866 18.2579 4.38686 17.0344C6.62065 17.0616 5.40512 15.6601 8.65717 14.313" fill="#FCD116"/>
<path d="M13.33 13.33L14.5745 14.5745L6.48521 20.1748L12.0855 12.0855L13.33 13.33L6.48521 20.1748Z" fill="#FCD116"/>
<path d="M10.7226 12.7262L9.40443 13.609C6.7794 9.98165 5.22711 12.1962 4.38686 9.62563C5.94713 11.2244 6.07864 9.37388 9.33069 10.7209" fill="#FCD116"/>
<path d="M13.33 13.33V15.09L3.65001 13.33L13.33 11.57V13.33H3.65001Z" fill="#FCD116"/>
<path d="M11.9132 11.0593L10.3569 10.7515C11.0657 6.33038 8.40212 6.79866 9.62563 4.38686C9.59839 6.62065 10.9999 5.40512 12.347 8.65717" fill="#FCD116"/>
<path d="M13.33 13.33L12.0855 14.5745L6.48521 6.48521L14.5745 12.0855L13.33 13.33L6.48521 6.48521Z" fill="#FCD116"/>
<path d="M13.9338 10.7226L13.051 9.40443C16.6784 6.7794 14.4638 5.22711 17.0344 4.38686C15.4356 5.94713 17.2861 6.07864 15.9391 9.33069" fill="#FCD116"/>
<path d="M13.33 13.33H11.57L13.33 3.65001L15.09 13.33H13.33V3.65001Z" fill="#FCD116"/>
<path d="M15.6007 11.9132L15.9085 10.3569C20.3296 11.0657 19.8613 8.40212 22.2731 9.62563C20.0394 9.59839 21.2549 10.9999 18.0028 12.347" fill="#FCD116"/>
<path d="M13.33 13.33L12.0855 12.0855L20.1748 6.48522L14.5745 14.5745L13.33 13.33L20.1748 6.48522Z" fill="#FCD116"/>
<path d="M15.9374 13.9338L17.2556 13.051C19.8806 16.6784 21.4329 14.4638 22.2731 17.0344C20.7129 15.4356 20.5814 17.2861 17.3293 15.9391" fill="#FCD116"/>
<path d="M13.33 13.33V11.57L23.01 13.33L13.33 15.09V13.33L23.01 13.33Z" fill="#FCD116"/>
<path d="M14.5465 16.3195L14.8192 14.8192L16.3195 14.5465C15.6108 18.9675 18.2579 19.8613 17.0344 22.2731C17.0616 20.0394 15.6601 21.2549 14.313 18.0028" fill="#FCD116"/>
<path d="M13.33 13.33L14.5745 12.0855L20.1748 20.1748L12.0855 14.5745L13.33 13.33L20.1748 20.1748Z" fill="#FCD116"/>
<path d="M13.33 16.5567C15.112 16.5567 16.5567 15.112 16.5567 13.33C16.5567 11.548 15.112 10.1033 13.33 10.1033C11.548 10.1033 10.1033 11.548 10.1033 13.33C10.1033 15.112 11.548 16.5567 13.33 16.5567Z" fill="#FCD116"/>
<path d="M15.706 12.0393C15.5006 12.274 15.3833 11.8634 14.65 11.8634C13.9167 11.8634 13.7993 12.3033 13.682 12.2153C13.5647 12.1273 14.298 11.5994 14.5327 11.57C14.7673 11.5407 15.442 11.7754 15.706 12.0393ZM14.8553 12.3033C15.0606 12.4793 14.8846 12.8607 14.6793 12.8607C14.474 12.8607 14.0927 12.5087 14.2687 12.274" fill="black"/>
<path d="M13.8873 12.5673C13.9167 12.2153 14.21 12.1567 14.6793 12.1567C15.1486 12.1567 15.354 12.5087 15.53 12.5967C15.3246 12.5967 15.1486 12.3033 14.6793 12.3033C14.21 12.3033 14.21 12.3033 13.8873 12.5967M13.9753 12.6553C14.0927 12.4793 14.2393 12.8313 14.562 12.8313C14.8846 12.8313 15.0606 12.7433 15.266 12.5967C15.4713 12.45 14.9726 12.9487 14.65 12.9487C14.3273 12.9487 13.8873 12.7727 13.9753 12.6553Z" fill="black"/>
<path d="M14.9726 12.8313C15.354 12.626 15.1193 12.3327 14.9726 12.274C15.0313 12.3327 15.266 12.626 14.9726 12.8313ZM13.33 14.5913C13.506 14.5913 13.5647 14.5327 13.7993 14.5327C14.034 14.5327 14.5913 14.8553 14.914 14.738C14.2393 15.002 14.5033 14.826 13.33 14.826H13.1833M15.0313 15.002C14.914 14.7966 14.9433 14.8553 14.7087 14.5327C14.9433 14.7087 15.002 14.7966 15.0313 15.002ZM13.33 15.2953C14.0633 15.2953 13.946 15.1486 14.914 14.738C14.21 14.826 14.0633 15.0606 13.33 15.0606H13.1833M13.33 14.21C13.5353 14.21 13.594 14.0633 13.8287 14.0633C14.0633 14.0633 14.386 14.1513 14.5327 14.2687C14.562 14.298 14.4447 14.034 14.21 14.0047C13.9753 13.9753 14.0633 13.594 13.7993 13.5353C13.7993 13.6527 13.8873 13.6233 13.9167 13.7993C13.9167 13.946 13.6527 13.946 13.594 13.7993C13.6527 14.034 13.4767 14.034 13.33 14.034" fill="black"/>
<path d="M10.954 12.0393C11.1594 12.274 11.2767 11.8634 12.01 11.8634C12.7433 11.8634 12.8607 12.3033 12.978 12.2153C13.0953 12.1273 12.362 11.5994 12.1273 11.57C11.8927 11.5407 11.218 11.7754 10.954 12.0393ZM11.8047 12.3033C11.5994 12.4793 11.7754 12.8607 11.9807 12.8607C12.186 12.8607 12.5673 12.5087 12.3913 12.274" fill="black"/>
<path d="M12.7727 12.5673C12.7433 12.2153 12.45 12.1567 11.9807 12.1567C11.5114 12.1567 11.306 12.5087 11.13 12.5967C11.3354 12.5967 11.5114 12.3033 11.9807 12.3033C12.45 12.3033 12.45 12.3033 12.7727 12.5967M12.6847 12.6553C12.5673 12.4793 12.4207 12.8313 12.098 12.8313C11.7754 12.8313 11.5994 12.7433 11.394 12.5967C11.1887 12.45 11.6874 12.9487 12.01 12.9487C12.3327 12.9487 12.7727 12.7727 12.6847 12.6553Z" fill="black"/>
<path d="M11.6874 12.8313C11.306 12.626 11.5407 12.3327 11.6874 12.274C11.6287 12.3327 11.394 12.626 11.6874 12.8313ZM13.33 14.5913C13.154 14.5913 13.0953 14.5327 12.8607 14.5327C12.626 14.5327 12.0687 14.8553 11.746 14.738C12.4207 15.002 12.1567 14.826 13.33 14.826H13.4767M11.6287 15.002C11.746 14.7966 11.7167 14.8553 11.9513 14.5327C11.7167 14.7087 11.658 14.7966 11.6287 15.002ZM13.33 15.2953C12.5967 15.2953 12.714 15.1486 11.746 14.738C12.45 14.826 12.5967 15.0606 13.33 15.0606H13.4767M13.33 14.21C13.1247 14.21 13.066 14.0633 12.8313 14.0633C12.5967 14.0633 12.274 14.1513 12.1273 14.2687C12.098 14.298 12.2153 14.034 12.45 14.0047C12.6847 13.9753 12.5967 13.594 12.8607 13.5353C12.8607 13.6527 12.7727 13.6233 12.7433 13.7993C12.7433 13.946 13.0073 13.946 13.066 13.7993C13.0073 14.034 13.1833 14.034 13.33 14.034" fill="black"/>
<path d="M13.33 15.5593C13.1833 15.5593 12.802 15.6473 13.33 15.6473C13.858 15.6473 13.4767 15.5593 13.33 15.5593Z" fill="black"/>
</g>
<defs>
<clipPath id="clip0_2048_243196">
<rect width="64" height="48" fill="white"/>
</clipPath>
</defs>
</svg>
