<svg width="200" height="28" viewBox="0 0 200 28" fill="none" xmlns="http://www.w3.org/2000/svg">
<path d="M0 18.1625V0H2.92087V18.1625H0Z" transform="translate(35.3159 4.77966)" fill="white"/>
<path d="M0 18.8529V0L11.5242 11.0993C11.8428 11.418 12.1614 11.7366 12.4801 12.1083C12.7987 12.4801 13.1174 12.8518 13.4891 13.3298V0.690388H16.1976V19.5964L4.46097 8.28465C4.14233 7.96601 3.82368 7.64737 3.55815 7.32873C3.23951 7.01009 2.97398 6.63834 2.70844 6.2666V18.906H0V18.8529Z" transform="translate(42.4854 4.08936)" fill="white"/>
<path d="M0 18.1625V0H10.1434V2.49602H2.92087V7.01009H10.0903V9.61232H2.92087V18.1625H0Z" transform="translate(62.9312 4.77966)" fill="white"/>
<path d="M2.76155 10.0372V18.1625H0V0H4.14232C5.36377 0 6.26659 0.0531065 6.95698 0.212427C7.64737 0.371747 8.17843 0.637281 8.65639 1.00903C9.24057 1.43388 9.66542 2.01806 9.98406 2.70844C10.3027 3.39883 10.462 4.14233 10.462 4.99203C10.462 6.42592 10.0903 7.59426 9.39989 8.39087C8.7095 9.24057 7.64736 9.71853 6.26659 9.87785L12.5332 18.1625H9.18746L3.13329 10.0372H2.76155ZM2.97397 7.75358H3.50504C5.04514 7.75358 6.10728 7.59426 6.63834 7.22252C7.16941 6.85077 7.38183 6.21349 7.38183 5.31067C7.38183 4.30165 7.1163 3.61126 6.53212 3.1864C6.00106 2.76155 4.93893 2.54912 3.45194 2.54912H2.92087V7.75358H2.97397Z" transform="translate(76.2612 4.77966)" fill="white"/>
<path d="M14.4981 18.906L12.427 14.2326H5.20446L3.08019 18.906H0L8.81572 0L17.5783 18.906H14.4981ZM6.31971 11.7897H11.3648L9.50611 7.64737C9.3999 7.38184 9.29368 7.0632 9.18747 6.74456C9.08125 6.42592 8.97504 6.00106 8.81572 5.57621C8.70951 5.94796 8.60329 6.3197 8.49708 6.69145C8.39087 7.01009 8.28466 7.32873 8.17844 7.64737L6.31971 11.7897Z" transform="translate(87.9976 4.03613)" fill="white"/>
<path d="M10.8338 9.29368H18.0563C18.0563 9.39989 18.0563 9.61232 18.0563 9.82475C18.0563 10.4089 18.1094 10.8338 18.1094 10.9931C18.1094 13.5422 17.3659 15.5603 15.932 16.941C14.4981 18.3218 12.427 19.0653 9.71854 19.0653C8.23155 19.0653 6.90388 18.8529 5.73553 18.428C4.56718 18.0032 3.55815 17.3128 2.65534 16.4631C1.80563 15.5603 1.11524 14.5512 0.690389 13.3829C0.212429 12.2146 0 10.94 0 9.55921C0 8.17844 0.212429 6.90388 0.690389 5.73553C1.16835 4.56718 1.85873 3.55815 2.76155 2.65534C3.66436 1.80563 4.67339 1.11524 5.89484 0.690388C7.06319 0.212427 8.33776 0 9.71854 0C11.1524 0 12.427 0.265534 13.5422 0.796601C14.6575 1.32767 15.6665 2.12427 16.5693 3.1864L14.3919 4.83271C13.7546 4.14233 13.0643 3.61126 12.3208 3.23951C11.5242 2.86776 10.6745 2.70844 9.71854 2.70844C7.75359 2.70844 6.16038 3.34572 4.88582 4.62029C3.66436 5.89485 3.02708 7.54116 3.02708 9.55921C3.02708 11.6304 3.66436 13.2767 4.88582 14.5512C6.10727 15.8258 7.75359 16.4631 9.71854 16.4631C11.418 16.4631 12.7456 16.0913 13.7015 15.2947C14.6575 14.4981 15.1354 13.436 15.1354 12.0552V11.7897H10.7807V9.29368H10.8338Z" transform="translate(106.107 4.35486)" fill="white"/>
<path d="M0 18.1625V0H2.97397V18.1625H0Z" transform="translate(127.35 4.77966)" fill="white"/>
<path d="M0 15.0292L2.3367 13.914C2.54913 14.7106 2.97398 15.3478 3.55816 15.7727C4.14233 16.1976 4.93893 16.41 5.84174 16.41C6.74456 16.41 7.43494 16.1444 7.9129 15.6665C8.44397 15.1885 8.7095 14.5512 8.7095 13.7015C8.7095 12.6394 7.80669 11.6835 6.05417 10.8338C5.78863 10.7276 5.62932 10.6213 5.47 10.5682C3.45195 9.61232 2.12427 8.70951 1.48699 7.9129C0.796603 7.1163 0.477966 6.16038 0.477966 4.99203C0.477966 3.50504 0.955928 2.3367 1.96496 1.38077C2.97398 0.47796 4.30165 0 5.89485 0C7.22252 0 8.33776 0.265534 9.24057 0.796601C10.1434 1.32767 10.7807 2.07116 11.0993 3.02708L8.81572 4.19543C8.44398 3.61126 8.07224 3.1864 7.59427 2.92087C7.16942 2.65534 6.63834 2.54912 6.10728 2.54912C5.31067 2.54912 4.67339 2.76155 4.19543 3.1864C3.71747 3.61126 3.50505 4.14233 3.50505 4.83271C3.50505 5.94796 4.51407 6.95698 6.58523 7.9129C6.74455 7.96601 6.85077 8.07222 6.95699 8.07222C8.76262 8.92193 9.98407 9.71853 10.6745 10.5151C11.3648 11.3117 11.6835 12.2677 11.6835 13.4891C11.6835 15.1885 11.1524 16.5693 10.0372 17.5783C8.92193 18.5874 7.48805 19.1184 5.62932 19.1184C4.08922 19.1184 2.81466 18.7467 1.80563 18.0563C0.955926 17.3659 0.31864 16.3569 0 15.0292Z" transform="translate(133.51 4.30176)" fill="white"/>
<path d="M7.8067 2.49602V18.1625H4.83272V2.49602H0V0H12.5863V2.49602H7.8067Z" transform="translate(146.575 4.77966)" fill="white"/>
<path d="M0 18.1625V0H2.97398V18.1625H0Z" transform="translate(161.498 4.77966)" fill="white"/>
<path d="M15.3478 4.83271C14.4981 4.14233 13.6484 3.61126 12.6925 3.23951C11.7366 2.86776 10.7807 2.70844 9.77164 2.70844C7.80669 2.70844 6.16038 3.34572 4.93892 4.62029C3.71747 5.89485 3.08018 7.54116 3.08018 9.55921C3.08018 11.5242 3.66436 13.1174 4.88581 14.3919C6.10727 15.6665 7.64736 16.3038 9.45299 16.3038C10.5151 16.3038 11.5773 16.0913 12.5332 15.7196C13.4891 15.3478 14.445 14.7637 15.3478 14.0202V17.419C14.5512 18.0032 13.7015 18.428 12.7456 18.6936C11.7897 18.9591 10.7807 19.1184 9.71853 19.1184C8.33775 19.1184 7.0632 18.906 5.84174 18.428C4.67339 17.9501 3.61125 17.3128 2.70843 16.41C1.80562 15.5603 1.16834 14.4981 0.690381 13.3298C0.212421 12.1614 0 10.8869 0 9.55921C0 8.23155 0.212421 6.95698 0.690381 5.78864C1.16834 4.62029 1.85873 3.61126 2.76154 2.70844C3.66436 1.80563 4.67339 1.11524 5.84174 0.690388C7.01009 0.212427 8.28464 0 9.61231 0C10.6744 0 11.6835 0.159321 12.6925 0.477961C13.6484 0.796601 14.6043 1.27456 15.5072 1.91184L15.3478 4.83271Z" transform="translate(167.923 4.35486)" fill="white"/>
<path d="M0 15.0292L2.33669 13.914C2.54912 14.7106 2.97398 15.3478 3.55816 15.7727C4.14233 16.1976 4.93893 16.41 5.84174 16.41C6.74456 16.41 7.43494 16.1444 7.9129 15.6665C8.44397 15.1885 8.7095 14.5512 8.7095 13.7015C8.7095 12.6394 7.80669 11.6835 6.05417 10.8338C5.78863 10.7276 5.62931 10.6213 5.46999 10.5682C3.45193 9.61232 2.12426 8.70951 1.48698 7.9129C0.796595 7.1163 0.477957 6.16038 0.477957 4.99203C0.477957 3.50504 0.955928 2.3367 1.96496 1.38077C2.97398 0.47796 4.30165 0 5.89485 0C7.22252 0 8.33776 0.265534 9.24057 0.796601C10.1434 1.32767 10.7807 2.07116 11.0993 3.02708L8.81572 4.19543C8.44398 3.61126 8.07222 3.1864 7.59426 2.92087C7.1694 2.65534 6.63834 2.54912 6.10728 2.54912C5.31067 2.54912 4.67339 2.76155 4.19543 3.1864C3.71747 3.61126 3.50505 4.14233 3.50505 4.83271C3.50505 5.94796 4.51407 6.95698 6.58523 7.9129C6.74455 7.96601 6.85077 8.07222 6.95699 8.07222C8.76262 8.92193 9.98407 9.71853 10.6745 10.5151C11.3648 11.3117 11.6835 12.2677 11.6835 13.4891C11.6835 15.1885 11.1524 16.5693 10.0372 17.5783C8.92193 18.5874 7.48805 19.1184 5.62932 19.1184C4.08922 19.1184 2.81465 18.7467 1.80563 18.0563C0.955918 17.3659 0.31864 16.3569 0 15.0292Z" transform="translate(185.874 4.30176)" fill="white"/>
<path d="M2.92087 1.43388C2.92087 2.23048 2.28358 2.86776 1.48698 2.86776C0.690381 2.86776 0 2.23048 0 1.43388C0 0.637281 0.637274 0 1.48698 0C2.28358 0 2.92087 0.637281 2.92087 1.43388ZM0.318644 1.43388C0.318644 2.07116 0.796591 2.54912 1.43387 2.54912C2.07115 2.54912 2.49601 2.07116 2.49601 1.43388C2.49601 0.796601 2.01806 0.265534 1.38078 0.265534C0.796604 0.31864 0.318644 0.796601 0.318644 1.43388ZM1.22145 2.17738H0.902805V0.743495C1.00902 0.743495 1.22145 0.690388 1.43387 0.690388C1.69941 0.690388 1.80563 0.743494 1.91185 0.796601C1.96495 0.849708 2.07116 0.955922 2.07116 1.11524C2.07116 1.27456 1.96494 1.38078 1.75252 1.43388C1.91184 1.48699 1.96494 1.5932 2.01805 1.80563C2.07116 2.01806 2.07116 2.12427 2.12427 2.17738H1.75252C1.69941 2.12427 1.69942 2.01806 1.64631 1.80563C1.64631 1.64631 1.5401 1.5932 1.32767 1.5932H1.16834V2.17738H1.22145ZM1.22145 1.38078H1.38078C1.5401 1.38078 1.69941 1.32767 1.69941 1.16835C1.69941 1.06213 1.59321 0.955921 1.38078 0.955921C1.27457 0.955921 1.22145 0.955921 1.22145 0.955921V1.38078Z" transform="translate(197.079 4.35486)" fill="white"/>
<path d="M30.4833 0H0V27.9341H30.4833V0Z" fill="#0099DB"/>
<path d="M4.88582 0H0V4.83271H4.88582V0Z" transform="translate(4.72656 4.72644)" fill="white"/>
<path d="M17.897 0H6.63834V9.61232H11.2055V4.7265H16.1444V9.61232V13.3298V13.7015H6.63834H5.41689H4.7265V6.58524H0V15.401C0 17.1004 1.38078 18.428 3.02708 18.428H13.436H17.897H20.9241V15.401V11.0462V3.08019C20.9772 1.38078 19.5964 0 17.897 0Z" transform="translate(4.72656 4.72644)" fill="white"/>
</svg>
