<?xml version="1.0" encoding="UTF-8"?>
<svg width="370px" height="300px" viewBox="0 0 370 300" version="1.1" xmlns="http://www.w3.org/2000/svg" xmlns:xlink="http://www.w3.org/1999/xlink">
    <!-- Generator: Sketch 59.1 (86144) - https://sketch.com -->
    <title>Illustrations/Login</title>
    <desc>Created with Sketch.</desc>
    <defs>
        <path d="M177.522711,0.307900621 C193.055236,-0.618559006 190.353863,0.695478261 239.735034,2.24653416 C289.115459,3.79759006 314.389075,52.2619379 351.716469,109.255975 C389.043863,166.250758 361.437378,195.32877 333.830893,225.571752 C306.224408,255.813242 276.365034,288.782683 258.699216,293.636348 C220.594448,304.104671 100.923741,301.563801 49.5983879,275.198832 C-1.72696566,248.834609 46.0994586,184.085292 39.1008525,160.82318 C32.101499,137.559578 29.7686303,92.5841739 49.209701,47.9970932 C68.6515192,3.40926708 130.714347,3.09845963 177.522711,0.307900621 Z M6.30098788,114.959478 C21.4709879,85.2270559 25.2412505,123.779851 25.5335131,138.410907 C25.7831697,150.937863 31.4101596,174.423578 24.086402,188.507553 C16.7633919,202.591528 4.20880606,185.899602 6.30098788,168.685938 C8.3931697,151.472273 -8.86901212,144.691901 6.30098788,114.959478 Z M324.227038,41.1263851 C310.321018,4.66278261 343.798917,42.6670062 348.434008,50.3701118 C348.434008,50.3701118 354.614129,61.1559503 360.794998,70.9139627 C366.975119,80.6719752 371.610958,94.0247702 366.460109,96.592472 C361.310008,99.1601739 338.133059,77.5899876 324.227038,41.1263851 Z" id="path-1"></path>
    </defs>
    <g id="Page-1" stroke="none" stroke-width="1" fill="none" fill-rule="evenodd">
        <g id="New-Page" transform="translate(-102.000000, -92.000000)">
            <g id="Illustrations/Cannot-Find-3" transform="translate(102.000000, 92.000000)">
                <g id="_Overrides/Illustrations/Background/large-blob">
                    <g id="Background">
                        <use fill="#0099FF" xlink:href="#path-1"></use>
                        <use fill-opacity="0.16" fill="#FF0000" style="mix-blend-mode: saturation;" xlink:href="#path-1"></use>
                        <use fill-opacity="0.34" fill="#000000" style="mix-blend-mode: darken;" xlink:href="#path-1"></use>
                    </g>
                </g>
                <g id="Stars" stroke-width="1" transform="translate(60.545455, 23.105590)" fill="#FFFFFF">
                    <path d="M106.130149,232.713901 C106.386149,232.713901 106.593349,232.920301 106.593349,233.176301 L106.593349,233.176301 L106.593349,243.073101 L112.381349,243.073101 C112.637349,243.073101 112.844549,243.280301 112.844549,243.535501 C112.844549,243.791501 112.637349,243.998701 112.381349,243.998701 L112.381349,243.998701 L106.593349,243.998701 L106.593349,253.895501 C106.593349,254.151501 106.386149,254.357901 106.130149,254.357901 C105.874149,254.357901 105.666949,254.151501 105.666949,253.895501 L105.666949,253.895501 L105.666949,243.998701 L100.294949,243.998701 C100.038949,243.998701 99.8317495,243.791501 99.8317495,243.535501 C99.8317495,243.280301 100.038949,243.073101 100.294949,243.073101 L100.294949,243.073101 L105.666949,243.073101 L105.666949,233.176301 C105.666949,232.920301 105.874149,232.713901 106.130149,232.713901 Z M239.641182,107.969759 C239.897182,107.969759 240.104382,108.176159 240.104382,108.432159 L240.104382,108.432159 L240.104382,124.930559 L249.346782,124.930559 C249.602782,124.930559 249.809982,125.138559 249.809982,125.393759 C249.809982,125.648959 249.602782,125.856159 249.346782,125.856159 L249.346782,125.856159 L240.104382,125.856159 L240.104382,142.356159 C240.104382,142.612159 239.897182,142.819359 239.641182,142.819359 C239.385982,142.819359 239.178782,142.612159 239.178782,142.356159 L239.178782,142.356159 L239.178782,125.856159 L230.582782,125.856159 C230.327582,125.856159 230.120382,125.648959 230.120382,125.393759 C230.120382,125.138559 230.327582,124.930559 230.582782,124.930559 L230.582782,124.930559 L239.178782,124.930559 L239.178782,108.432159 C239.178782,108.176159 239.385982,107.969759 239.641182,107.969759 Z M5.06339798,119.331602 C5.31939798,119.331602 5.52579798,119.538802 5.52579798,119.794802 L5.52579798,119.794802 L5.52579798,127.585202 L9.91939798,127.585202 C10.175398,127.585202 10.381798,127.792402 10.381798,128.047602 C10.381798,128.302802 10.175398,128.510002 9.91939798,128.510002 L9.91939798,128.510002 L5.52579798,128.510002 L5.52579798,136.301202 C5.52579798,136.556402 5.31939798,136.763602 5.06339798,136.763602 C4.80739798,136.763602 4.60099798,136.556402 4.60099798,136.301202 L4.60099798,136.301202 L4.60099798,128.510002 L0.53139798,128.510002 C0.27539798,128.510002 0.0681979798,128.302802 0.0681979798,128.047602 C0.0681979798,127.792402 0.27539798,127.585202 0.53139798,127.585202 L0.53139798,127.585202 L4.60099798,127.585202 L4.60099798,119.794802 C4.60099798,119.538802 4.80739798,119.331602 5.06339798,119.331602 Z M167.343487,-0.100968944 C167.599487,-0.100968944 167.805887,0.106231056 167.805887,0.361431056 L167.805887,0.361431056 L167.805887,9.12463106 L172.772287,9.12463106 C173.028287,9.12463106 173.235487,9.33183106 173.235487,9.58703106 C173.235487,9.84303106 173.028287,10.0494311 172.772287,10.0494311 L172.772287,10.0494311 L167.805887,10.0494311 L167.805887,18.8126311 C167.805887,19.0686311 167.599487,19.2750311 167.343487,19.2750311 C167.088287,19.2750311 166.881087,19.0686311 166.881087,18.8126311 L166.881087,18.8126311 L166.881087,10.0494311 L162.277087,10.0494311 C162.021087,10.0494311 161.814687,9.84303106 161.814687,9.58703106 C161.814687,9.33183106 162.021087,9.12463106 162.277087,9.12463106 L162.277087,9.12463106 L166.881087,9.12463106 L166.881087,0.361431056 C166.881087,0.106231056 167.088287,-0.100968944 167.343487,-0.100968944 Z"></path>
                </g>
                <g id="Magnifying-Glass" stroke-width="1" transform="translate(58.154040, 34.593168)">
                    <path d="M124.00122,109.264074 L252.63024,219.43496 C254.66784,221.18056 254.90464,224.24616 253.15984,226.28296 L251.51664,228.20056 C249.77264,230.23816 246.70704,230.47496 244.66944,228.73096 L116.039221,118.560334 C117.507433,117.170376 118.917487,115.690311 120.26184,114.12072 C121.606737,112.550511 122.853002,110.929113 124.00122,109.264074 Z" id="Combined-Shape" fill="#BDBDBD"></path>
                    <path d="M176.66512,141.8984 L250.18512,204.8672 C253.72512,207.9 254.13792,213.2296 251.10512,216.7704 L241.80192,227.632 C238.76832,231.1736 233.43952,231.5856 229.89872,228.5528 L156.37952,165.584 C152.83792,162.5512 152.42592,157.2216 155.45872,153.6808 L164.76192,142.8192 C167.79472,139.2776 173.12352,138.8656 176.66512,141.8984 Z M125.74656,18.59384 C151.676992,40.8034969 158.998739,76.6680002 146.18724,106.462754 L149.86192,109.61008 C152.72992,112.06688 153.06352,116.38288 150.60672,119.25088 L149.133399,120.97107 L151.8308,123.28128 C154.0228,125.15888 154.278,128.45808 152.4004,130.65008 L141.5356,143.33568 C139.6572,145.52848 136.358,145.78288 134.166,143.90528 L131.468932,141.595384 L129.99552,143.31568 C127.53952,146.18368 123.22352,146.51728 120.35552,144.06128 L116.680521,140.913636 C89.2088302,158.151735 52.6441897,156.429095 26.71376,134.21944 C-5.21504,106.87304 -8.92944,58.81944 18.41776,26.89064 C45.76416,-5.03896 93.81776,-8.75336 125.74656,18.59384 Z M113.94344,32.37512 C89.62584,11.54632 53.02664,14.37592 32.19784,38.69352 C11.36984,63.01192 14.19864,99.61032 38.51784,120.43912 C62.83544,141.26712 99.43384,138.43832 120.26184,114.12072 C141.09144,89.80152 138.26184,53.20312 113.94344,32.37512 Z" id="Magnifying-Glass-Color" fill="#E41C77"></path>
                    <path d="M146.307137,106.399028 L149.981399,109.547326 C152.849399,112.004126 153.182999,116.320126 150.726199,119.188126 L130.114999,143.252926 C127.658999,146.120926 123.342999,146.454526 120.474999,143.998526 L116.798412,140.851878 C123.154774,136.863571 129.024367,131.860205 134.162839,125.860686 C139.301273,119.861236 143.343079,113.292585 146.307137,106.399028 Z" id="Combined-Shape" fill-opacity="0.38" fill="#000000"></path>
                    <path d="M124.306232,20.1643646 C155.287832,46.6995646 158.891032,93.3251646 132.356632,124.305965 C105.821432,155.286765 59.1950315,158.890765 28.2150315,132.355565 C-2.76656849,105.821165 -6.37056849,59.1955646 20.1646315,28.2147646 C46.6990315,-2.76603541 93.3246315,-6.37083541 124.306232,20.1643646 Z M120.347248,25.0548488 C91.9984484,0.774848827 49.3352484,4.07244883 25.0552484,32.4212488 C0.774448414,60.7700488 4.07284841,103.434049 32.4208484,127.713249 C60.7688484,151.994049 103.432848,148.696449 127.713648,120.347649 C151.994448,91.9996488 148.696048,49.3356488 120.347248,25.0548488 Z" id="Shape" fill-opacity="0.38" fill="#000000"></path>
                    <path d="M109.29656,108.58568 C107.28776,114.41768 97.07496,120.94008 89.13656,122.32488 C81.82696,123.60088 74.39496,123.58648 67.16216,120.73608 C65.98216,120.27128 59.25736,117.32568 71.34296,117.59768 C83.42776,117.87048 84.44216,117.99288 94.25016,114.82168 C104.05816,111.65128 111.30536,102.75368 109.29656,108.58568 Z M112.74968,51.78136 C112.77768,51.33256 113.72408,48.84056 115.59688,50.95496 C118.12968,53.81256 118.91288,55.26616 120.00488,57.38296 C121.47368,60.23016 123.12408,65.05496 119.77768,67.26696 C116.43208,69.47976 115.21208,61.56056 114.40248,57.81176 C113.94408,55.68456 112.64008,53.57176 112.74968,51.78136 Z M73.77856,28.69856 C73.77856,28.69856 80.88176,26.94336 84.14096,27.49536 C87.40016,28.04816 97.24176,30.50416 102.44176,40.55696 C107.64256,50.61056 96.66336,46.43216 80.67056,39.82736 C64.67856,33.22176 73.77856,28.69856 73.77856,28.69856 Z" id="Combined-Shape" fill="#FFFFFF"></path>
                </g>
            </g>
        </g>
    </g>
</svg>